<?xml version="1.0" encoding="UTF-8"?>
<svg id="Layer_1" data-name="Layer 1" xmlns="http://www.w3.org/2000/svg" viewBox="0 0 150.16 300">
  <rect x="90.15" y="139.99" width="100" height="20.02" transform="translate(290.15 9.85) rotate(90)"/>
  <rect x="100.13" y="209.99" width="40" height="20.02" transform="translate(340.13 99.87) rotate(90)"/>
  <rect x="50.05" y="260" width="40.04" height="20" transform="translate(140.15 540) rotate(180)"/>
  <rect y="280" width="50.05" height="20" transform="translate(50.05 580) rotate(180)"/>
  <rect x="90.11" y="239.99" width="20" height="20.02" transform="translate(350.11 149.89) rotate(90)"/>
  <rect x="100.13" y="69.99" width="40" height="20.02" transform="translate(40.13 200.13) rotate(-90)"/>
  <rect x="50.05" y="20" width="40.04" height="20" transform="translate(140.15 60) rotate(-180)"/>
  <rect x="0" y="0" width="50.05" height="20" transform="translate(50.05 20) rotate(-180)"/>
  <rect x="90.11" y="39.99" width="20" height="20.02" transform="translate(50.11 150.11) rotate(-90)"/>
</svg>