<?xml version="1.0" encoding="UTF-8"?>
<svg id="Layer_1" xmlns="http://www.w3.org/2000/svg" version="1.1" viewBox="0 0 322.7 353.6">
  <!-- Generator: Adobe Illustrator 30.3.0, SVG Export Plug-In . SVG Version: 2.1.3 Build 182)  -->
  <defs>
    <style>
      .st0 {
        fill: #01924f;
        stroke: #000;
        stroke-miterlimit: 10;
        stroke-width: 10px;
      }

      .st1 {
        fill: #d82d19;
      }

      .st2 {
        fill: #ebbdb0;
      }
    </style>
  </defs>
  <polygon class="st0" points="317.7 67.5 317.7 348.6 5 348.6 5 5 255.4 5 255.4 36.2 286.5 36.2 286.5 67.5 317.7 67.5"/>
  <g>
    <path d="M40.1,140.9v1.1h1.1v2.3h-1.1v-2.3h-4.5v9.1h3.4v-1.1h1.1v-2.3h-2.3v-1.1h3.4v5.7h-1.1v-1.1h-1.1v1.1h-3.4v-1.1h-1.1v-9.1h1.1v-1.1h4.5,0Z"/>
    <path d="M45,143.2v1.1h1.1v-1.1h3.4v1.1h1.1v2.3h-1.1v-2.3h-3.4v1.1h-1.1v6.8h-1.1v-9.1h1.1Z"/>
    <path d="M59,143.2v1.1h1.1v3.4h-5.7v3.4h4.5v-1.1h1.1v1.1h-1.1v1.1h-4.5v-1.1h-1.1v-6.8h1.1v2.3h4.5v-2.3h-4.5v-1.1h4.5Z"/>
    <path d="M68.5,143.2v1.1h1.1v3.4h-5.7v3.4h4.5v-1.1h1.1v1.1h-1.1v1.1h-4.5v-1.1h-1.1v-6.8h1.1v2.3h4.5v-2.3h-4.5v-1.1h4.5Z"/>
    <path d="M75.7,140.9v3.4h2.3v1.1h-2.3v5.7h2.3v1.1h-2.3v-1.1h-1.1v-5.7h-2.3v-1.1h2.3v-3.4h1.1Z"/>
    <path d="M85.2,143.2v7.9h2.3v1.1h-5.7v-1.1h2.3v-6.8h-1.1v-1.1h2.3ZM85.2,139.8v2.3h-1.1v-2.3h1.1Z"/>
    <path d="M91.2,143.2v1.1h1.1v-1.1h3.4v1.1h1.1v7.9h-1.1v-7.9h-3.4v1.1h-1.1v6.8h-1.1v-9.1h1.1Z"/>
    <path d="M106.3,142.1v2.3h-1.1v3.4h-1.1v1.1h-2.3v1.1h3.4v1.1h1.1v2.3h-1.1v-2.3h-4.5v2.3h4.5v1.1h-4.5v-1.1h-1.1v-2.3h1.1v-3.4h3.4v-3.4h-3.4v3.4h-1.1v-3.4h1.1v-1.1h3.4v1.1h1.1v-2.3h1.1,0Z"/>
    <path d="M114.7,143.2v1.1h1.1v1.1h-1.1v-1.1h-4.5v2.3h2.3v1.1h2.3v1.1h1.1v2.3h-1.1v1.1h-4.5v-1.1h-1.1v-1.1h1.1v1.1h4.5v-2.3h-2.3v-1.1h-2.3v-1.1h-1.1v-2.3h1.1v-1.1h4.5Z"/>
    <path d="M133.7,143.2v1.1h1.1v1.1h-1.1v-1.1h-4.5v6.8h4.5v-1.1h1.1v1.1h-1.1v1.1h-4.5v-1.1h-1.1v-6.8h1.1v-1.1h4.5Z"/>
    <path d="M143.1,143.2v1.1h1.1v6.8h-1.1v-6.8h-4.5v6.8h4.5v1.1h-4.5v-1.1h-1.1v-6.8h1.1v-1.1h4.5Z"/>
    <path d="M150.4,143.2v1.1h1.1v-1.1h2.3v1.1h1.1v7.9h-1.1v-7.9h-2.3v7.9h-1.1v-7.9h-2.3v7.9h-1.1v-9.1h3.4,0Z"/>
    <path d="M158.2,143.2v1.1h1.1v-1.1h3.4v1.1h-3.4v1.1h-1.1v4.5h1.1v1.1h3.4v-6.8h1.1v6.8h-1.1v1.1h-3.4v-1.1h-1.1v3.4h-1.1v-11.3h1.1Z"/>
    <path d="M167.6,143.2v7.9h3.4v-1.1h1.1v-6.8h1.1v9.1h-1.1v-1.1h-1.1v1.1h-3.4v-1.1h-1.1v-7.9h1.1Z"/>
    <path d="M179.4,140.9v3.4h2.3v1.1h-2.3v5.7h2.3v1.1h-2.3v-1.1h-1.1v-5.7h-2.3v-1.1h2.3v-3.4h1.1Z"/>
    <path d="M190.5,143.2v1.1h1.1v3.4h-5.7v3.4h4.5v-1.1h1.1v1.1h-1.1v1.1h-4.5v-1.1h-1.1v-6.8h1.1v2.3h4.5v-2.3h-4.5v-1.1h4.5Z"/>
    <path d="M195.5,143.2v1.1h1.1v-1.1h3.4v1.1h1.1v2.3h-1.1v-2.3h-3.4v1.1h-1.1v6.8h-1.1v-9.1h1.1Z"/>
    <path d="M214.5,143.2v1.1h1.1v-1.1h3.4v1.1h-3.4v1.1h-1.1v4.5h1.1v1.1h3.4v-6.8h1.1v6.8h-1.1v1.1h-3.4v-1.1h-1.1v3.4h-1.1v-11.3h1.1Z"/>
    <path d="M228.5,143.2v1.1h1.1v3.4h-5.7v3.4h4.5v-1.1h1.1v1.1h-1.1v1.1h-4.5v-1.1h-1.1v-6.8h1.1v2.3h4.5v-2.3h-4.5v-1.1h4.5Z"/>
    <path d="M233.4,143.2v1.1h1.1v-1.1h3.4v1.1h1.1v2.3h-1.1v-2.3h-3.4v1.1h-1.1v6.8h-1.1v-9.1h1.1Z"/>
    <path d="M247.4,143.2v1.1h1.1v1.1h-1.1v-1.1h-4.5v2.3h2.3v1.1h2.3v1.1h1.1v2.3h-1.1v1.1h-4.5v-1.1h-1.1v-1.1h1.1v1.1h4.5v-2.3h-2.3v-1.1h-2.3v-1.1h-1.1v-2.3h1.1v-1.1h4.5Z"/>
    <path d="M256.9,143.2v1.1h1.1v6.8h-1.1v-6.8h-4.5v6.8h4.5v1.1h-4.5v-1.1h-1.1v-6.8h1.1v-1.1h4.5Z"/>
    <path d="M261.8,143.2v1.1h1.1v-1.1h3.4v1.1h1.1v7.9h-1.1v-7.9h-3.4v1.1h-1.1v6.8h-1.1v-9.1h1.1Z"/>
    <path d="M273.5,150v3.4h-1.1v1.1h-1.1v-1.1h1.1v-2.3h-1.1v-1.1h2.3Z"/>
    <path d="M35.6,165v7.9h2.3v-6.8h1.1v6.8h2.3v-7.9h1.1v7.9h-1.1v1.1h-2.3v-1.1h-1.1v1.1h-2.3v-1.1h-1.1v-7.9h1.1Z"/>
    <path d="M50.1,165v1.1h1.1v3.4h-5.7v3.4h4.5v-1.1h1.1v1.1h-1.1v1.1h-4.5v-1.1h-1.1v-6.8h1.1v2.3h4.5v-2.3h-4.5v-1.1h4.5Z"/>
    <path d="M57.9,161.6v11.3h2.3v1.1h-5.7v-1.1h2.3v-10.2h-1.1v-1.1h2.3Z"/>
    <path d="M68.5,165v1.1h1.1v1.1h-1.1v-1.1h-4.5v6.8h4.5v-1.1h1.1v1.1h-1.1v1.1h-4.5v-1.1h-1.1v-6.8h1.1v-1.1h4.5Z"/>
    <path d="M77.9,165v1.1h1.1v6.8h-1.1v-6.8h-4.5v6.8h4.5v1.1h-4.5v-1.1h-1.1v-6.8h1.1v-1.1h4.5Z"/>
    <path d="M85.2,165v1.1h1.1v-1.1h2.3v1.1h1.1v7.9h-1.1v-7.9h-2.3v7.9h-1.1v-7.9h-2.3v7.9h-1.1v-9.1h3.4,0Z"/>
    <path d="M97.5,165v1.1h1.1v3.4h-5.7v3.4h4.5v-1.1h1.1v1.1h-1.1v1.1h-4.5v-1.1h-1.1v-6.8h1.1v2.3h4.5v-2.3h-4.5v-1.1h4.5Z"/>
    <path d="M114.2,162.7v3.4h2.3v1.1h-2.3v5.7h2.3v1.1h-2.3v-1.1h-1.1v-5.7h-2.3v-1.1h2.3v-3.4h1.1Z"/>
    <path d="M125.4,165v1.1h1.1v6.8h-1.1v-6.8h-4.5v6.8h4.5v1.1h-4.5v-1.1h-1.1v-6.8h1.1v-1.1h4.5Z"/>
    <path d="M148.9,158.2v1.1h2.3v1.1h1.1v1.1h1.1v2.3h1.1v5.7h-1.1v2.3h-1.1v1.1h-1.1v1.1h-2.3v-1.1h2.3v-1.1h1.1v-2.3h1.1v-5.7h-1.1v-2.3h-1.1v-1.1h-2.3v-1.1h-5.7v1.1h-2.3v1.1h-1.1v2.3h-1.1v5.7h1.1v2.3h1.1v1.1h2.3v1.1h5.7v1.1h-5.7v-1.1h-2.3v-1.1h-1.1v-1.1h-1.1v-2.3h-1.1v-5.7h1.1v-2.3h1.1v-1.1h1.1v-1.1h2.3v-1.1h5.7ZM147.8,161.6v1.1h-3.4v3.4h3.4v-3.4h1.1v3.4h-1.1v1.1h-3.4v3.4h3.4v-3.4h1.1v3.4h-1.1v1.1h-4.5v-10.2h4.5Z"/>
    <path d="M167,158.2v1.1h2.3v1.1h1.1v1.1h1.1v2.3h1.1v5.7h-1.1v2.3h-1.1v1.1h-1.1v1.1h-2.3v-1.1h2.3v-1.1h1.1v-2.3h1.1v-5.7h-1.1v-2.3h-1.1v-1.1h-2.3v-1.1h-5.7v1.1h-2.3v1.1h-1.1v2.3h-1.1v5.7h1.1v2.3h1.1v1.1h2.3v1.1h5.7v1.1h-5.7v-1.1h-2.3v-1.1h-1.1v-1.1h-1.1v-2.3h-1.1v-5.7h1.1v-2.3h1.1v-1.1h1.1v-1.1h2.3v-1.1h5.7ZM165.9,162.7v1.1h1.1v3.4h-4.5v2.3h3.4v-1.1h1.1v1.1h-1.1v1.1h-3.4v-1.1h-1.1v-5.7h1.1v2.3h3.4v-2.3h-3.4v-1.1h3.4Z"/>
    <path d="M185.1,158.2v1.1h2.3v1.1h1.1v1.1h1.1v2.3h1.1v5.7h-1.1v2.3h-1.1v1.1h-1.1v1.1h-2.3v-1.1h2.3v-1.1h1.1v-2.3h1.1v-5.7h-1.1v-2.3h-1.1v-1.1h-2.3v-1.1h-5.7v1.1h-2.3v1.1h-1.1v2.3h-1.1v5.7h1.1v2.3h1.1v1.1h2.3v1.1h5.7v1.1h-5.7v-1.1h-2.3v-1.1h-1.1v-1.1h-1.1v-2.3h-1.1v-5.7h1.1v-2.3h1.1v-1.1h1.1v-1.1h2.3v-1.1h5.7ZM184,162.7v1.1h1.1v3.4h-4.5v2.3h3.4v-1.1h1.1v1.1h-1.1v1.1h-3.4v-1.1h-1.1v-5.7h1.1v2.3h3.4v-2.3h-3.4v-1.1h3.4Z"/>
    <path d="M203.2,158.2v1.1h2.3v1.1h1.1v1.1h1.1v2.3h1.1v5.7h-1.1v2.3h-1.1v1.1h-1.1v1.1h-2.3v-1.1h2.3v-1.1h1.1v-2.3h1.1v-5.7h-1.1v-2.3h-1.1v-1.1h-2.3v-1.1h-5.7v1.1h-2.3v1.1h-1.1v2.3h-1.1v5.7h1.1v2.3h1.1v1.1h2.3v-10.2h1.1v1.1h1.1v-1.1h2.3v1.1h-2.3v1.1h-1.1v3.4h1.1v1.1h2.3v-5.7h1.1v5.7h-1.1v1.1h-2.3v-1.1h-1.1v3.4h-1.1v1.1h5.7v1.1h-5.7v-1.1h-2.3v-1.1h-1.1v-1.1h-1.1v-2.3h-1.1v-5.7h1.1v-2.3h1.1v-1.1h1.1v-1.1h2.3v-1.1h5.7Z"/>
    <path d="M230.4,158.2v1.1h2.3v1.1h1.1v1.1h1.1v2.3h1.1v5.7h-1.1v2.3h-1.1v1.1h-1.1v1.1h-2.3v-1.1h2.3v-1.1h1.1v-2.3h1.1v-5.7h-1.1v-2.3h-1.1v-1.1h-2.3v-1.1h-5.7v1.1h-2.3v1.1h-1.1v2.3h-1.1v5.7h1.1v2.3h1.1v1.1h2.3v1.1h5.7v1.1h-5.7v-1.1h-2.3v-1.1h-1.1v-1.1h-1.1v-2.3h-1.1v-5.7h1.1v-2.3h1.1v-1.1h1.1v-1.1h2.3v-1.1h5.7ZM229.3,161.6v1.1h-3.4v3.4h3.4v-3.4h1.1v3.4h-1.1v1.1h-3.4v3.4h3.4v-3.4h1.1v3.4h-1.1v1.1h-4.5v-10.2h4.5Z"/>
    <path d="M248.5,158.2v1.1h2.3v1.1h1.1v1.1h1.1v2.3h1.1v5.7h-1.1v2.3h-1.1v1.1h-1.1v1.1h-2.3v-1.1h2.3v-1.1h1.1v-2.3h1.1v-5.7h-1.1v-2.3h-1.1v-1.1h-2.3v-1.1h-5.7v1.1h-2.3v1.1h-1.1v2.3h-1.1v5.7h1.1v2.3h1.1v1.1h2.3v1.1h5.7v1.1h-5.7v-1.1h-2.3v-1.1h-1.1v-1.1h-1.1v-2.3h-1.1v-5.7h1.1v-2.3h1.1v-1.1h1.1v-1.1h2.3v-1.1h5.7ZM247.4,162.7v1.1h1.1v5.7h-1.1v-5.7h-3.4v5.7h3.4v1.1h-3.4v-1.1h-1.1v-5.7h1.1v-1.1h3.4Z"/>
    <path d="M266.6,158.2v1.1h2.3v1.1h1.1v1.1h1.1v2.3h1.1v5.7h-1.1v2.3h-1.1v1.1h-1.1v1.1h-2.3v-1.1h2.3v-1.1h1.1v-2.3h1.1v-5.7h-1.1v-2.3h-1.1v-1.1h-2.3v-1.1h-5.7v1.1h-2.3v1.1h-1.1v2.3h-1.1v5.7h1.1v2.3h1.1v1.1h2.3v1.1h5.7v1.1h-5.7v-1.1h-2.3v-1.1h-1.1v-1.1h-1.1v-2.3h-1.1v-5.7h1.1v-2.3h1.1v-1.1h1.1v-1.1h2.3v-1.1h5.7ZM265.5,162.7v1.1h1.1v5.7h-1.1v-5.7h-3.4v5.7h3.4v1.1h-3.4v-1.1h-1.1v-5.7h1.1v-1.1h3.4Z"/>
    <path d="M284.7,158.2v1.1h2.3v1.1h1.1v1.1h1.1v2.3h1.1v5.7h-1.1v2.3h-1.1v1.1h-1.1v1.1h-2.3v-1.1h2.3v-1.1h1.1v-2.3h1.1v-5.7h-1.1v-2.3h-1.1v-1.1h-2.3v-1.1h-5.7v1.1h-2.3v1.1h-1.1v2.3h-1.1v5.7h1.1v2.3h1.1v1.1h2.3v-10.2h1.1v1.1h1.1v-1.1h2.3v1.1h-2.3v1.1h-1.1v3.4h1.1v1.1h2.3v-5.7h1.1v5.7h-1.1v1.1h-2.3v-1.1h-1.1v3.4h-1.1v1.1h5.7v1.1h-5.7v-1.1h-2.3v-1.1h-1.1v-1.1h-1.1v-2.3h-1.1v-5.7h1.1v-2.3h1.1v-1.1h1.1v-1.1h2.3v-1.1h5.7Z"/>
    <path d="M297.2,171.8v3.4h-1.1v1.1h-1.1v-1.1h1.1v-2.3h-1.1v-1.1h2.3Z"/>
    <path d="M35.6,183.3v4.5h1.1v-1.1h3.4v1.1h1.1v7.9h-1.1v-7.9h-3.4v1.1h-1.1v6.8h-1.1v-12.5h1.1Z"/>
    <path d="M49.2,186.7v1.1h1.1v6.8h-1.1v-6.8h-4.5v6.8h4.5v1.1h-4.5v-1.1h-1.1v-6.8h1.1v-1.1h4.5Z"/>
    <path d="M55.9,186.7v1.1h1.1v-1.1h2.3v1.1h1.1v7.9h-1.1v-7.9h-2.3v7.9h-1.1v-7.9h-2.3v7.9h-1.1v-9.1h3.4,0Z"/>
    <path d="M67.3,186.7v1.1h1.1v3.4h-5.7v3.4h4.5v-1.1h1.1v1.1h-1.1v1.1h-4.5v-1.1h-1.1v-6.8h1.1v2.3h4.5v-2.3h-4.5v-1.1h4.5Z"/>
    <path d="M83.1,184.5v3.4h2.3v1.1h-2.3v5.7h2.3v1.1h-2.3v-1.1h-1.1v-5.7h-2.3v-1.1h2.3v-3.4h1.1Z"/>
    <path d="M94.4,186.7v1.1h1.1v6.8h-1.1v-6.8h-4.5v6.8h4.5v1.1h-4.5v-1.1h-1.1v-6.8h1.1v-1.1h4.5Z"/>
    <path d="M112.5,186.7v1.1h1.1v6.8h-1.1v-6.8h-4.5v6.8h4.5v1.1h-4.5v-1.1h-1.1v-6.8h1.1v-1.1h4.5Z"/>
    <path d="M117.1,186.7v1.1h1.1v-1.1h3.4v1.1h-3.4v1.1h-1.1v4.5h1.1v1.1h3.4v-6.8h1.1v6.8h-1.1v1.1h-3.4v-1.1h-1.1v3.4h-1.1v-11.3h1.1Z"/>
    <path d="M130.6,186.7v1.1h1.1v3.4h-5.7v3.4h4.5v-1.1h1.1v1.1h-1.1v1.1h-4.5v-1.1h-1.1v-6.8h1.1v2.3h4.5v-2.3h-4.5v-1.1h4.5Z"/>
    <path d="M135.1,186.7v1.1h1.1v-1.1h3.4v1.1h1.1v7.9h-1.1v-7.9h-3.4v1.1h-1.1v6.8h-1.1v-9.1h1.1Z"/>
    <path d="M157.8,186.7v1.1h1.1v1.1h-1.1v-1.1h-4.5v2.3h2.3v1.1h2.3v1.1h1.1v2.3h-1.1v1.1h-4.5v-1.1h-1.1v-1.1h1.1v1.1h4.5v-2.3h-2.3v-1.1h-2.3v-1.1h-1.1v-2.3h1.1v-1.1h4.5Z"/>
    <path d="M166.8,186.7v1.1h1.1v6.8h-1.1v-6.8h-4.5v6.8h4.5v1.1h-4.5v-1.1h-1.1v-6.8h1.1v-1.1h4.5Z"/>
    <path d="M171.4,186.7v7.9h3.4v-1.1h1.1v-6.8h1.1v9.1h-1.1v-1.1h-1.1v1.1h-3.4v-1.1h-1.1v-7.9h1.1Z"/>
    <path d="M180.4,186.7v1.1h1.1v-1.1h3.4v1.1h1.1v2.3h-1.1v-2.3h-3.4v1.1h-1.1v6.8h-1.1v-9.1h1.1Z"/>
    <path d="M194,186.7v1.1h1.1v1.1h-1.1v-1.1h-4.5v6.8h4.5v-1.1h1.1v1.1h-1.1v1.1h-4.5v-1.1h-1.1v-6.8h1.1v-1.1h4.5Z"/>
    <path d="M203.1,186.7v1.1h1.1v3.4h-5.7v3.4h4.5v-1.1h1.1v1.1h-1.1v1.1h-4.5v-1.1h-1.1v-6.8h1.1v2.3h4.5v-2.3h-4.5v-1.1h4.5Z"/>
    <path d="M221.2,183.3v1.1h-2.3v3.4h2.3v1.1h-2.3v6.8h-1.1v-6.8h-2.3v-1.1h2.3v-3.4h1.1v-1.1h2.3Z"/>
    <path d="M230.2,186.7v1.1h1.1v6.8h-1.1v-6.8h-4.5v6.8h4.5v1.1h-4.5v-1.1h-1.1v-6.8h1.1v-1.1h4.5Z"/>
    <path d="M234.7,186.7v1.1h1.1v-1.1h3.4v1.1h1.1v7.9h-1.1v-7.9h-3.4v1.1h-1.1v6.8h-1.1v-9.1h1.1Z"/>
    <path d="M246.1,184.5v3.4h2.3v1.1h-2.3v5.7h2.3v1.1h-2.3v-1.1h-1.1v-5.7h-2.3v-1.1h2.3v-3.4h1.1Z"/>
    <path d="M257.4,186.7v1.1h1.1v1.1h-1.1v-1.1h-4.5v2.3h2.3v1.1h2.3v1.1h1.1v2.3h-1.1v1.1h-4.5v-1.1h-1.1v-1.1h1.1v1.1h4.5v-2.3h-2.3v-1.1h-2.3v-1.1h-1.1v-2.3h1.1v-1.1h4.5Z"/>
    <path d="M37.8,208.5v1.1h1.1v-1.1h2.3v1.1h1.1v7.9h-1.1v-7.9h-2.3v7.9h-1.1v-7.9h-2.3v7.9h-1.1v-9.1h3.4,0Z"/>
    <path d="M49.2,208.5v1.1h1.1v7.9h-1.1v-1.1h-1.1v-1.1h1.1v-2.3h-4.5v3.4h3.4v1.1h-3.4v-1.1h-1.1v-3.4h1.1v-1.1h4.5v-2.3h-4.5v1.1h-1.1v-1.1h1.1v-1.1h4.5Z"/>
    <path d="M59.3,205.1v12.5h-1.1v-1.1h-1.1v1.1h-3.4v-1.1h3.4v-1.1h1.1v-4.5h-1.1v-1.1h-3.4v6.8h-1.1v-6.8h1.1v-1.1h3.4v1.1h1.1v-4.5h1.1Z"/>
    <path d="M67.3,208.5v1.1h1.1v3.4h-5.7v3.4h4.5v-1.1h1.1v1.1h-1.1v1.1h-4.5v-1.1h-1.1v-6.8h1.1v2.3h4.5v-2.3h-4.5v-1.1h4.5Z"/>
    <path d="M80.8,208.5v7.9h2.3v-6.8h1.1v6.8h2.3v-7.9h1.1v7.9h-1.1v1.1h-2.3v-1.1h-1.1v1.1h-2.3v-1.1h-1.1v-7.9h1.1Z"/>
    <path d="M93.3,208.5v7.9h2.3v1.1h-5.7v-1.1h2.3v-6.8h-1.1v-1.1h2.3ZM93.3,205.1v2.3h-1.1v-2.3h1.1Z"/>
    <path d="M101.2,206.2v3.4h2.3v1.1h-2.3v5.7h2.3v1.1h-2.3v-1.1h-1.1v-5.7h-2.3v-1.1h2.3v-3.4h1.1Z"/>
    <path d="M108,205.1v4.5h1.1v-1.1h3.4v1.1h1.1v7.9h-1.1v-7.9h-3.4v1.1h-1.1v6.8h-1.1v-12.5h1.1Z"/>
    <path d="M129.5,205.1v11.3h2.3v1.1h-5.7v-1.1h2.3v-10.2h-1.1v-1.1h2.3Z"/>
    <path d="M139.7,208.5v1.1h1.1v6.8h-1.1v-6.8h-4.5v6.8h4.5v1.1h-4.5v-1.1h-1.1v-6.8h1.1v-1.1h4.5Z"/>
    <path d="M144.2,208.5v3.4h1.1v3.4h2.3v-3.4h1.1v-3.4h1.1v3.4h-1.1v3.4h-1.1v2.3h-2.3v-2.3h-1.1v-3.4h-1.1v-3.4h1.1Z"/>
    <path d="M157.8,208.5v1.1h1.1v3.4h-5.7v3.4h4.5v-1.1h1.1v1.1h-1.1v1.1h-4.5v-1.1h-1.1v-6.8h1.1v2.3h4.5v-2.3h-4.5v-1.1h4.5Z"/>
    <path d="M175.9,208.5v1.1h1.1v7.9h-1.1v-1.1h-1.1v-1.1h1.1v-2.3h-4.5v3.4h3.4v1.1h-3.4v-1.1h-1.1v-3.4h1.1v-1.1h4.5v-2.3h-4.5v1.1h-1.1v-1.1h1.1v-1.1h4.5Z"/>
    <path d="M180.4,208.5v1.1h1.1v-1.1h3.4v1.1h1.1v7.9h-1.1v-7.9h-3.4v1.1h-1.1v6.8h-1.1v-9.1h1.1Z"/>
    <path d="M195.1,205.1v12.5h-1.1v-1.1h-1.1v1.1h-3.4v-1.1h3.4v-1.1h1.1v-4.5h-1.1v-1.1h-3.4v6.8h-1.1v-6.8h1.1v-1.1h3.4v1.1h1.1v-4.5h1.1Z"/>
    <path d="M207.6,208.5v1.1h1.1v-1.1h3.4v1.1h-3.4v1.1h-1.1v4.5h1.1v1.1h3.4v-6.8h1.1v6.8h-1.1v1.1h-3.4v-1.1h-1.1v3.4h-1.1v-11.3h1.1Z"/>
    <path d="M220,208.5v7.9h2.3v1.1h-5.7v-1.1h2.3v-6.8h-1.1v-1.1h2.3ZM220,205.1v2.3h-1.1v-2.3h1.1Z"/>
    <path d="M225.7,208.5v2.3h1.1v1.1h2.3v-1.1h1.1v-2.3h1.1v2.3h-1.1v1.1h-1.1v2.3h1.1v1.1h1.1v2.3h-1.1v-2.3h-1.1v-1.1h-2.3v1.1h-1.1v2.3h-1.1v-2.3h1.1v-1.1h1.1v-2.3h-1.1v-1.1h-1.1v-2.3h1.1Z"/>
    <path d="M239.3,208.5v1.1h1.1v3.4h-5.7v3.4h4.5v-1.1h1.1v1.1h-1.1v1.1h-4.5v-1.1h-1.1v-6.8h1.1v2.3h4.5v-2.3h-4.5v-1.1h4.5Z"/>
    <path d="M247.2,205.1v11.3h2.3v1.1h-5.7v-1.1h2.3v-10.2h-1.1v-1.1h2.3Z"/>
    <path d="M257.4,208.5v1.1h1.1v1.1h-1.1v-1.1h-4.5v2.3h2.3v1.1h2.3v1.1h1.1v2.3h-1.1v1.1h-4.5v-1.1h-1.1v-1.1h1.1v1.1h4.5v-2.3h-2.3v-1.1h-2.3v-1.1h-1.1v-2.3h1.1v-1.1h4.5Z"/>
    <path d="M265.3,215.3v2.3h-2.3v-2.3h2.3Z"/>
    <path d="M40.1,238v1.1h1.1v2.3h-1.1v-2.3h-4.5v3.4h2.3v1.1h2.3v1.1h1.1v3.4h-1.1v1.1h-4.5v-1.1h-1.1v-2.3h1.1v2.3h4.5v-3.4h-2.3v-1.1h-2.3v-1.1h-1.1v-3.4h1.1v-1.1h4.5Z"/>
    <path d="M46.9,238v3.4h2.3v1.1h-2.3v5.7h2.3v1.1h-2.3v-1.1h-1.1v-5.7h-2.3v-1.1h2.3v-3.4h1.1Z"/>
    <path d="M58.2,240.2v1.1h1.1v7.9h-1.1v-1.1h-1.1v-1.1h1.1v-2.3h-4.5v3.4h3.4v1.1h-3.4v-1.1h-1.1v-3.4h1.1v-1.1h4.5v-2.3h-4.5v1.1h-1.1v-1.1h1.1v-1.1h4.5Z"/>
    <path d="M62.7,240.2v5.7h1.1v1.1h2.3v-1.1h1.1v-5.7h1.1v10.2h-1.1v1.1h-4.5v-1.1h4.5v-3.4h-1.1v1.1h-2.3v-1.1h-1.1v-1.1h-1.1v-5.7h1.1,0Z"/>
    <path d="M85.4,236.8v1.1h-2.3v3.4h2.3v1.1h-2.3v6.8h-1.1v-6.8h-2.3v-1.1h2.3v-3.4h1.1v-1.1h2.3Z"/>
    <path d="M94.4,240.2v1.1h1.1v6.8h-1.1v-6.8h-4.5v6.8h4.5v1.1h-4.5v-1.1h-1.1v-6.8h1.1v-1.1h4.5Z"/>
    <path d="M98.9,240.2v1.1h1.1v-1.1h3.4v1.1h1.1v2.3h-1.1v-2.3h-3.4v1.1h-1.1v6.8h-1.1v-9.1h1.1Z"/>
    <path d="M121.6,240.2v1.1h1.1v7.9h-1.1v-1.1h-1.1v-1.1h1.1v-2.3h-4.5v3.4h3.4v1.1h-3.4v-1.1h-1.1v-3.4h1.1v-1.1h4.5v-2.3h-4.5v1.1h-1.1v-1.1h1.1v-1.1h4.5Z"/>
    <path d="M135.1,240.2v7.9h2.3v-6.8h1.1v6.8h2.3v-7.9h1.1v7.9h-1.1v1.1h-2.3v-1.1h-1.1v1.1h-2.3v-1.1h-1.1v-7.9h1.1Z"/>
    <path d="M144.2,236.8v4.5h1.1v-1.1h3.4v1.1h1.1v7.9h-1.1v-7.9h-3.4v1.1h-1.1v6.8h-1.1v-12.5h1.1Z"/>
    <path d="M156.7,240.2v7.9h2.3v1.1h-5.7v-1.1h2.3v-6.8h-1.1v-1.1h2.3ZM156.7,236.8v2.3h-1.1v-2.3h1.1Z"/>
    <path d="M165.7,236.8v11.3h2.3v1.1h-5.7v-1.1h2.3v-10.2h-1.1v-1.1h2.3Z"/>
    <path d="M175.9,240.2v1.1h1.1v3.4h-5.7v3.4h4.5v-1.1h1.1v1.1h-1.1v1.1h-4.5v-1.1h-1.1v-6.8h1.1v2.3h4.5v-2.3h-4.5v-1.1h4.5Z"/>
    <path d="M194,240.2v1.1h1.1v7.9h-1.1v-1.1h-1.1v-1.1h1.1v-2.3h-4.5v3.4h3.4v1.1h-3.4v-1.1h-1.1v-3.4h1.1v-1.1h4.5v-2.3h-4.5v1.1h-1.1v-1.1h1.1v-1.1h4.5Z"/>
    <path d="M198.5,240.2v1.1h1.1v-1.1h3.4v1.1h1.1v7.9h-1.1v-7.9h-3.4v1.1h-1.1v6.8h-1.1v-9.1h1.1Z"/>
    <path d="M213.2,236.8v12.5h-1.1v-1.1h-1.1v1.1h-3.4v-1.1h3.4v-1.1h1.1v-4.5h-1.1v-1.1h-3.4v6.8h-1.1v-6.8h1.1v-1.1h3.4v1.1h1.1v-4.5h1.1Z"/>
    <path d="M230.2,240.2v1.1h1.1v1.1h-1.1v-1.1h-4.5v2.3h2.3v1.1h2.3v1.1h1.1v2.3h-1.1v1.1h-4.5v-1.1h-1.1v-1.1h1.1v1.1h4.5v-2.3h-2.3v-1.1h-2.3v-1.1h-1.1v-2.3h1.1v-1.1h4.5Z"/>
    <path d="M239.3,240.2v1.1h1.1v3.4h-5.7v3.4h4.5v-1.1h1.1v1.1h-1.1v1.1h-4.5v-1.1h-1.1v-6.8h1.1v2.3h4.5v-2.3h-4.5v-1.1h4.5Z"/>
    <path d="M248.3,240.2v1.1h1.1v3.4h-5.7v3.4h4.5v-1.1h1.1v1.1h-1.1v1.1h-4.5v-1.1h-1.1v-6.8h1.1v2.3h4.5v-2.3h-4.5v-1.1h4.5Z"/>
    <path d="M256.2,247v3.4h-1.1v1.1h-1.1v-1.1h1.1v-2.3h-1.1v-1.1h2.3Z"/>
    <path d="M40.1,262v1.1h1.1v7.9h-1.1v-1.1h-1.1v-1.1h1.1v-2.3h-4.5v3.4h3.4v1.1h-3.4v-1.1h-1.1v-3.4h1.1v-1.1h4.5v-2.3h-4.5v1.1h-1.1v-1.1h1.1v-1.1h4.5Z"/>
    <path d="M44.6,262v1.1h1.1v-1.1h3.4v1.1h1.1v7.9h-1.1v-7.9h-3.4v1.1h-1.1v6.8h-1.1v-9.1h1.1Z"/>
    <path d="M59.3,258.6v12.5h-1.1v-1.1h-1.1v1.1h-3.4v-1.1h3.4v-1.1h1.1v-4.5h-1.1v-1.1h-3.4v6.8h-1.1v-6.8h1.1v-1.1h3.4v1.1h1.1v-4.5h1.1Z"/>
    <path d="M76.3,262v1.1h1.1v7.9h-1.1v-1.1h-1.1v-1.1h1.1v-2.3h-4.5v3.4h3.4v1.1h-3.4v-1.1h-1.1v-3.4h1.1v-1.1h4.5v-2.3h-4.5v1.1h-1.1v-1.1h1.1v-1.1h4.5Z"/>
    <path d="M80.8,262v1.1h1.1v-1.1h3.4v1.1h1.1v7.9h-1.1v-7.9h-3.4v1.1h-1.1v6.8h-1.1v-9.1h1.1Z"/>
    <path d="M95.6,258.6v12.5h-1.1v-1.1h-1.1v1.1h-3.4v-1.1h3.4v-1.1h1.1v-4.5h-1.1v-1.1h-3.4v6.8h-1.1v-6.8h1.1v-1.1h3.4v1.1h1.1v-4.5h1.1Z"/>
    <path d="M111.4,262v7.9h2.3v1.1h-5.7v-1.1h2.3v-6.8h-1.1v-1.1h2.3ZM111.4,258.6v2.3h-1.1v-2.3h1.1Z"/>
    <path d="M121.6,258.6v1.1h-2.3v3.4h2.3v1.1h-2.3v6.8h-1.1v-6.8h-2.3v-1.1h2.3v-3.4h1.1v-1.1h2.3Z"/>
    <path d="M135.1,262v5.7h1.1v1.1h2.3v-1.1h1.1v-5.7h1.1v10.2h-1.1v1.1h-4.5v-1.1h4.5v-3.4h-1.1v1.1h-2.3v-1.1h-1.1v-1.1h-1.1v-5.7h1.1Z"/>
    <path d="M148.7,262v1.1h1.1v6.8h-1.1v-6.8h-4.5v6.8h4.5v1.1h-4.5v-1.1h-1.1v-6.8h1.1v-1.1h4.5Z"/>
    <path d="M153.3,262v7.9h3.4v-1.1h1.1v-6.8h1.1v9.1h-1.1v-1.1h-1.1v1.1h-3.4v-1.1h-1.1v-7.9h1.1Z"/>
    <path d="M175.9,262v1.1h1.1v1.1h-1.1v-1.1h-4.5v2.3h2.3v1.1h2.3v1.1h1.1v2.3h-1.1v1.1h-4.5v-1.1h-1.1v-1.1h1.1v1.1h4.5v-2.3h-2.3v-1.1h-2.3v-1.1h-1.1v-2.3h1.1v-1.1h4.5Z"/>
    <path d="M184.9,262v1.1h1.1v3.4h-5.7v3.4h4.5v-1.1h1.1v1.1h-1.1v1.1h-4.5v-1.1h-1.1v-6.8h1.1v2.3h4.5v-2.3h-4.5v-1.1h4.5Z"/>
    <path d="M194,262v1.1h1.1v3.4h-5.7v3.4h4.5v-1.1h1.1v1.1h-1.1v1.1h-4.5v-1.1h-1.1v-6.8h1.1v2.3h4.5v-2.3h-4.5v-1.1h4.5Z"/>
    <path d="M40.1,283.7v1.1h1.1v1.1h-1.1v-1.1h-4.5v2.3h2.3v1.1h2.3v1.1h1.1v2.3h-1.1v1.1h-4.5v-1.1h-1.1v-1.1h1.1v1.1h4.5v-2.3h-2.3v-1.1h-2.3v-1.1h-1.1v-2.3h1.1v-1.1h4.5Z"/>
    <path d="M49.2,283.7v1.1h1.1v6.8h-1.1v-6.8h-4.5v6.8h4.5v1.1h-4.5v-1.1h-1.1v-6.8h1.1v-1.1h4.5Z"/>
    <path d="M55.9,283.7v1.1h1.1v-1.1h2.3v1.1h1.1v7.9h-1.1v-7.9h-2.3v7.9h-1.1v-7.9h-2.3v7.9h-1.1v-9.1h3.4,0Z"/>
    <path d="M67.3,283.7v1.1h1.1v3.4h-5.7v3.4h4.5v-1.1h1.1v1.1h-1.1v1.1h-4.5v-1.1h-1.1v-6.8h1.1v2.3h4.5v-2.3h-4.5v-1.1h4.5Z"/>
    <path d="M74.1,281.5v3.4h2.3v1.1h-2.3v5.7h2.3v1.1h-2.3v-1.1h-1.1v-5.7h-2.3v-1.1h2.3v-3.4h1.1Z"/>
    <path d="M80.8,280.3v4.5h1.1v-1.1h3.4v1.1h1.1v7.9h-1.1v-7.9h-3.4v1.1h-1.1v6.8h-1.1v-12.5h1.1Z"/>
    <path d="M93.3,283.7v7.9h2.3v1.1h-5.7v-1.1h2.3v-6.8h-1.1v-1.1h2.3ZM93.3,280.3v2.3h-1.1v-2.3h1.1Z"/>
    <path d="M98.9,283.7v1.1h1.1v-1.1h3.4v1.1h1.1v7.9h-1.1v-7.9h-3.4v1.1h-1.1v6.8h-1.1v-9.1h1.1Z"/>
    <path d="M113.7,282.6v2.3h-1.1v3.4h-1.1v1.1h-2.3v1.1h3.4v1.1h1.1v2.3h-1.1v-2.3h-4.5v2.3h4.5v1.1h-4.5v-1.1h-1.1v-2.3h1.1v-3.4h3.4v-3.4h-3.4v3.4h-1.1v-3.4h1.1v-1.1h3.4v1.1h1.1v-2.3h1.1,0Z"/>
    <path d="M126.1,283.7v5.7h1.1v1.1h2.3v-1.1h1.1v-5.7h1.1v10.2h-1.1v1.1h-4.5v-1.1h4.5v-3.4h-1.1v1.1h-2.3v-1.1h-1.1v-1.1h-1.1v-5.7h1.1Z"/>
    <path d="M139.7,283.7v1.1h1.1v6.8h-1.1v-6.8h-4.5v6.8h4.5v1.1h-4.5v-1.1h-1.1v-6.8h1.1v-1.1h4.5Z"/>
    <path d="M144.2,283.7v7.9h3.4v-1.1h1.1v-6.8h1.1v9.1h-1.1v-1.1h-1.1v1.1h-3.4v-1.1h-1.1v-7.9h1.1Z"/>
    <path d="M165.7,280.3v11.3h2.3v1.1h-5.7v-1.1h2.3v-10.2h-1.1v-1.1h2.3Z"/>
    <path d="M174.8,283.7v7.9h2.3v1.1h-5.7v-1.1h2.3v-6.8h-1.1v-1.1h2.3ZM174.8,280.3v2.3h-1.1v-2.3h1.1Z"/>
    <path d="M180.4,280.3v6.8h1.1v-1.1h1.1v-1.1h1.1v-1.1h1.1v1.1h-1.1v1.1h-1.1v1.1h-1.1v1.1h1.1v1.1h1.1v1.1h1.1v1.1h1.1v1.1h-1.1v-1.1h-1.1v-1.1h-1.1v-1.1h-1.1v-1.1h-1.1v4.5h-1.1v-12.5h1.1Z"/>
    <path d="M194,283.7v1.1h1.1v3.4h-5.7v3.4h4.5v-1.1h1.1v1.1h-1.1v1.1h-4.5v-1.1h-1.1v-6.8h1.1v2.3h4.5v-2.3h-4.5v-1.1h4.5Z"/>
    <path d="M201.9,290.5v3.4h-1.1v1.1h-1.1v-1.1h1.1v-2.3h-1.1v-1.1h2.3Z"/>
    <path d="M37.8,303.2v3.4h2.3v1.1h-2.3v5.7h2.3v1.1h-2.3v-1.1h-1.1v-5.7h-2.3v-1.1h2.3v-3.4h1.1Z"/>
    <path d="M49.2,305.5v1.1h1.1v7.9h-1.1v-1.1h-1.1v-1.1h1.1v-2.3h-4.5v3.4h3.4v1.1h-3.4v-1.1h-1.1v-3.4h1.1v-1.1h4.5v-2.3h-4.5v1.1h-1.1v-1.1h1.1v-1.1h4.5Z"/>
    <path d="M53.7,302.1v6.8h1.1v-1.1h1.1v-1.1h1.1v-1.1h1.1v1.1h-1.1v1.1h-1.1v1.1h-1.1v1.1h1.1v1.1h1.1v1.1h1.1v1.1h1.1v1.1h-1.1v-1.1h-1.1v-1.1h-1.1v-1.1h-1.1v-1.1h-1.1v4.5h-1.1v-12.5h1.1Z"/>
    <path d="M67.3,305.5v1.1h1.1v3.4h-5.7v3.4h4.5v-1.1h1.1v1.1h-1.1v1.1h-4.5v-1.1h-1.1v-6.8h1.1v2.3h4.5v-2.3h-4.5v-1.1h4.5Z"/>
    <path d="M84.2,305.5v7.9h2.3v1.1h-5.7v-1.1h2.3v-6.8h-1.1v-1.1h2.3ZM84.2,302.1v2.3h-1.1v-2.3h1.1Z"/>
    <path d="M92.2,303.2v3.4h2.3v1.1h-2.3v5.7h2.3v1.1h-2.3v-1.1h-1.1v-5.7h-2.3v-1.1h2.3v-3.4h1.1Z"/>
    <path d="M102.3,312.3v2.3h-2.3v-2.3h2.3Z"/>
    <path d="M111.4,312.3v2.3h-2.3v-2.3h2.3Z"/>
    <path d="M120.4,312.3v2.3h-2.3v-2.3h2.3Z"/>
    <path d="M138.6,305.5v7.9h2.3v1.1h-5.7v-1.1h2.3v-6.8h-1.1v-1.1h2.3ZM138.6,302.1v2.3h-1.1v-2.3h1.1Z"/>
    <path d="M146.5,303.2v3.4h2.3v1.1h-2.3v5.7h2.3v1.1h-2.3v-1.1h-1.1v-5.7h-2.3v-1.1h2.3v-3.4h1.1Z"/>
    <path d="M156.7,301v4.5h-1.1v-4.5h1.1Z"/>
    <path d="M166.8,305.5v1.1h1.1v1.1h-1.1v-1.1h-4.5v2.3h2.3v1.1h2.3v1.1h1.1v2.3h-1.1v1.1h-4.5v-1.1h-1.1v-1.1h1.1v1.1h4.5v-2.3h-2.3v-1.1h-2.3v-1.1h-1.1v-2.3h1.1v-1.1h4.5Z"/>
    <path d="M184.9,302.1v1.1h-2.3v3.4h2.3v1.1h-2.3v6.8h-1.1v-6.8h-2.3v-1.1h2.3v-3.4h1.1v-1.1h2.3Z"/>
    <path d="M189.5,305.5v1.1h1.1v-1.1h3.4v1.1h1.1v2.3h-1.1v-2.3h-3.4v1.1h-1.1v6.8h-1.1v-9.1h1.1Z"/>
    <path d="M203.1,305.5v1.1h1.1v3.4h-5.7v3.4h4.5v-1.1h1.1v1.1h-1.1v1.1h-4.5v-1.1h-1.1v-6.8h1.1v2.3h4.5v-2.3h-4.5v-1.1h4.5Z"/>
    <path d="M212.1,305.5v1.1h1.1v3.4h-5.7v3.4h4.5v-1.1h1.1v1.1h-1.1v1.1h-4.5v-1.1h-1.1v-6.8h1.1v2.3h4.5v-2.3h-4.5v-1.1h4.5Z"/>
    <path d="M220,312.3v2.3h-2.3v-2.3h2.3Z"/>
  </g>
  <g>
    <path d="M52.3,69.8v10.4h10.4v-10.4h-10.4ZM176.8,69.8v-10.4h-10.4v31.1h10.4v-10.4h10.4v-10.4h-10.4ZM156,90.5v10.4h10.4v-10.4h-10.4ZM156,49v10.4h10.4v-10.4h-10.4ZM52.3,69.8v10.4h10.4v-10.4h-10.4ZM52.3,69.8v10.4h10.4v-10.4h-10.4ZM52.3,69.8v10.4h10.4v-10.4h-10.4ZM156,49v-10.4H52.3v10.4h10.4v10.4h10.4v-10.4h62.2v10.4h-62.2v31.1h62.2v10.4h-62.2v-10.4h-10.4v10.4h-10.4v10.4h103.7v-10.4h-10.4v-10.4h10.4v-31.1h-10.4v-10.4h10.4ZM145.7,80.1h-62.2v-10.4h62.2v10.4ZM62.7,69.8h-10.4v10.4h10.4v-10.4ZM52.3,69.8v10.4h10.4v-10.4h-10.4ZM52.3,69.8v10.4h10.4v-10.4h-10.4ZM52.3,69.8v10.4h10.4v-10.4h-10.4ZM42,90.5v10.4h10.4v-10.4h-10.4ZM42,49v10.4h10.4v-10.4h-10.4ZM31.6,59.4v31.1h10.4v-31.1h-10.4Z"/>
    <rect class="st1" x="145.7" y="49" width="10.4" height="10.4"/>
    <rect class="st1" x="156" y="59.4" width="10.4" height="31.1"/>
    <rect class="st1" x="145.7" y="90.5" width="10.4" height="10.4"/>
    <path class="st2" d="M62.7,59.4v-10.4h-10.4v10.4h-10.4v31.1h10.4v10.4h10.4v-10.4h10.4v-31.1h-10.4ZM62.7,80.1h-10.4v-10.4h10.4v10.4Z"/>
    <rect class="st1" x="73.1" y="90.5" width="62.2" height="10.4"/>
    <rect class="st1" x="83.4" y="69.8" width="62.2" height="10.4"/>
    <rect class="st1" x="73.1" y="49" width="62.2" height="10.4"/>
  </g>
</svg>