<?xml version="1.0" encoding="UTF-8"?>
<svg id="Layer_1" xmlns="http://www.w3.org/2000/svg" version="1.1" viewBox="0 0 195.1 64.8">
  <!-- Generator: Adobe Illustrator 30.1.0, SVG Export Plug-In . SVG Version: 2.1.1 Build 136)  -->
  <defs>
    <style>
      .st0 {
        fill: #edbc65;
      }
    </style>
  </defs>
  <g>
    <rect x="8.3" y="22.5" width="4" height="19.9"/>
    <rect x="12.2" y="14.5" width="4" height="7.9"/>
    <rect x="20.2" y="6.6" width="7.9" height="4"/>
    <rect x="28.1" y="2.6" width="138.9" height="4"/>
    <rect x="16.2" y="10.5" width="4" height="4"/>
    <rect x="12.2" y="42.3" width="4" height="8"/>
    <rect x="20.2" y="54.2" width="7.9" height="4"/>
    <rect x="28.1" y="58.2" width="138.9" height="4"/>
    <rect x="16.2" y="50.3" width="4" height="4"/>
    <rect x="182.9" y="22.5" width="4" height="19.9"/>
    <rect x="178.9" y="42.3" width="4" height="8"/>
    <rect x="167" y="54.2" width="7.9" height="4"/>
    <rect x="175" y="50.3" width="4" height="4"/>
    <rect x="178.9" y="14.5" width="4" height="7.9"/>
    <rect x="167" y="6.6" width="7.9" height="4"/>
    <polygon class="st0" points="182.9 22.5 182.9 42.3 178.9 42.3 178.9 50.3 175 50.3 175 54.2 167 54.2 167 58.2 28.1 58.2 28.1 54.2 20.2 54.2 20.2 50.3 16.2 50.3 16.2 42.3 12.2 42.3 12.2 22.5 16.2 22.5 16.2 14.5 20.2 14.5 20.2 10.5 28.1 10.5 28.1 6.6 167 6.6 167 10.5 175 10.5 175 14.5 178.9 14.5 178.9 22.5 182.9 22.5"/>
    <rect x="175" y="10.5" width="4" height="4"/>
  </g>
  <g>
    <path d="M60.8,24.4v2.7h2.7v18.9h-2.7v-2.7h-2.7v-2.7h2.7v-5.4h-10.8v8.1h8.1v2.7h-8.1v-2.7h-2.7v-8.1h2.7v-2.7h10.8v-5.4h-10.8v2.7h-2.7v-2.7h2.7v-2.7h10.8Z"/>
    <path d="M71.9,16.3v10.8h2.7v-2.7h8.1v2.7h-8.1v2.7h-2.7v10.8h2.7v2.7h8.1v-16.2h2.7v16.2h-2.7v2.7h-8.1v-2.7h-2.7v2.7h-2.7v-29.6h2.7Z"/>
    <path d="M104.3,24.4v2.7h2.7v16.2h-2.7v-16.2h-10.8v16.2h10.8v2.7h-10.8v-2.7h-2.7v-16.2h2.7v-2.7s10.8,0,10.8,0Z"/>
    <path d="M115.3,24.4v18.9h8.1v-2.7h2.7v-16.2h2.7v21.6h-2.7v-2.7h-2.7v2.7h-8.1v-2.7h-2.7v-18.9s2.7,0,2.7,0Z"/>
    <path d="M142.4,19v8.1h5.4v2.7h-5.4v13.5h5.4v2.7h-5.4v-2.7h-2.7v-13.5h-5.4v-2.7h5.4v-8.1h2.7Z"/>
  </g>
</svg>