<?xml version="1.0" encoding="UTF-8"?>
<svg id="Layer_1" data-name="Layer 1" xmlns="http://www.w3.org/2000/svg" viewBox="0 0 800 800">
  <g opacity=".5">
    <rect x="0" width="100" height="100" fill="none" stroke="#307faf" stroke-linecap="round" stroke-miterlimit="10"/>
    <rect x="100" width="100" height="100" fill="none" stroke="#307faf" stroke-linecap="round" stroke-miterlimit="10"/>
    <rect x="200" width="100" height="100" fill="none" stroke="#307faf" stroke-linecap="round" stroke-miterlimit="10"/>
    <rect x="300" width="100" height="100" fill="none" stroke="#307faf" stroke-linecap="round" stroke-miterlimit="10"/>
    <rect x="400" width="100" height="100" fill="none" stroke="#307faf" stroke-linecap="round" stroke-miterlimit="10"/>
    <rect x="500" width="100" height="100" fill="none" stroke="#307faf" stroke-linecap="round" stroke-miterlimit="10"/>
    <rect x="600" width="100" height="100" fill="none" stroke="#307faf" stroke-linecap="round" stroke-miterlimit="10"/>
    <rect x="700" width="100" height="100" fill="none" stroke="#307faf" stroke-linecap="round" stroke-miterlimit="10"/>
    <rect x="0" y="100" width="100" height="100" fill="none" stroke="#307faf" stroke-linecap="round" stroke-miterlimit="10"/>
    <rect x="100" y="100" width="100" height="100" fill="none" stroke="#307faf" stroke-linecap="round" stroke-miterlimit="10"/>
    <rect x="200" y="100" width="100" height="100" fill="none" stroke="#307faf" stroke-linecap="round" stroke-miterlimit="10"/>
    <rect x="300" y="100" width="100" height="100" fill="none" stroke="#307faf" stroke-linecap="round" stroke-miterlimit="10"/>
    <rect x="400" y="100" width="100" height="100" fill="none" stroke="#307faf" stroke-linecap="round" stroke-miterlimit="10"/>
    <rect x="500" y="100" width="100" height="100" fill="none" stroke="#307faf" stroke-linecap="round" stroke-miterlimit="10"/>
    <rect x="600" y="100" width="100" height="100" fill="none" stroke="#307faf" stroke-linecap="round" stroke-miterlimit="10"/>
    <rect x="700" y="100" width="100" height="100" fill="none" stroke="#307faf" stroke-linecap="round" stroke-miterlimit="10"/>
    <rect x="0" y="200" width="100" height="100" fill="none" stroke="#307faf" stroke-linecap="round" stroke-miterlimit="10"/>
    <rect x="100" y="200" width="100" height="100" fill="none" stroke="#307faf" stroke-linecap="round" stroke-miterlimit="10"/>
    <rect x="200" y="200" width="100" height="100" fill="none" stroke="#307faf" stroke-linecap="round" stroke-miterlimit="10"/>
    <rect x="300" y="200" width="100" height="100" fill="none" stroke="#307faf" stroke-linecap="round" stroke-miterlimit="10"/>
    <rect x="400" y="200" width="100" height="100" fill="none" stroke="#307faf" stroke-linecap="round" stroke-miterlimit="10"/>
    <rect x="500" y="200" width="100" height="100" fill="none" stroke="#307faf" stroke-linecap="round" stroke-miterlimit="10"/>
    <rect x="600" y="200" width="100" height="100" fill="none" stroke="#307faf" stroke-linecap="round" stroke-miterlimit="10"/>
    <rect x="700" y="200" width="100" height="100" fill="none" stroke="#307faf" stroke-linecap="round" stroke-miterlimit="10"/>
    <rect x="0" y="300" width="100" height="100" fill="none" stroke="#307faf" stroke-linecap="round" stroke-miterlimit="10"/>
    <rect x="100" y="300" width="100" height="100" fill="none" stroke="#307faf" stroke-linecap="round" stroke-miterlimit="10"/>
    <rect x="200" y="300" width="100" height="100" fill="none" stroke="#307faf" stroke-linecap="round" stroke-miterlimit="10"/>
    <rect x="300" y="300" width="100" height="100" fill="none" stroke="#307faf" stroke-linecap="round" stroke-miterlimit="10"/>
    <rect x="400" y="300" width="100" height="100" fill="none" stroke="#307faf" stroke-linecap="round" stroke-miterlimit="10"/>
    <rect x="500" y="300" width="100" height="100" fill="none" stroke="#307faf" stroke-linecap="round" stroke-miterlimit="10"/>
    <rect x="600" y="300" width="100" height="100" fill="none" stroke="#307faf" stroke-linecap="round" stroke-miterlimit="10"/>
    <rect x="700" y="300" width="100" height="100" fill="none" stroke="#307faf" stroke-linecap="round" stroke-miterlimit="10"/>
    <rect x="0" y="400" width="100" height="100" fill="none" stroke="#307faf" stroke-linecap="round" stroke-miterlimit="10"/>
    <rect x="100" y="400" width="100" height="100" fill="none" stroke="#307faf" stroke-linecap="round" stroke-miterlimit="10"/>
    <rect x="200" y="400" width="100" height="100" fill="none" stroke="#307faf" stroke-linecap="round" stroke-miterlimit="10"/>
    <rect x="300" y="400" width="100" height="100" fill="none" stroke="#307faf" stroke-linecap="round" stroke-miterlimit="10"/>
    <rect x="400" y="400" width="100" height="100" fill="none" stroke="#307faf" stroke-linecap="round" stroke-miterlimit="10"/>
    <rect x="500" y="400" width="100" height="100" fill="none" stroke="#307faf" stroke-linecap="round" stroke-miterlimit="10"/>
    <rect x="600" y="400" width="100" height="100" fill="none" stroke="#307faf" stroke-linecap="round" stroke-miterlimit="10"/>
    <rect x="700" y="400" width="100" height="100" fill="none" stroke="#307faf" stroke-linecap="round" stroke-miterlimit="10"/>
    <rect x="0" y="500" width="100" height="100" fill="none" stroke="#307faf" stroke-linecap="round" stroke-miterlimit="10"/>
    <rect x="100" y="500" width="100" height="100" fill="none" stroke="#307faf" stroke-linecap="round" stroke-miterlimit="10"/>
    <rect x="200" y="500" width="100" height="100" fill="none" stroke="#307faf" stroke-linecap="round" stroke-miterlimit="10"/>
    <rect x="300" y="500" width="100" height="100" fill="none" stroke="#307faf" stroke-linecap="round" stroke-miterlimit="10"/>
    <rect x="400" y="500" width="100" height="100" fill="none" stroke="#307faf" stroke-linecap="round" stroke-miterlimit="10"/>
    <rect x="500" y="500" width="100" height="100" fill="none" stroke="#307faf" stroke-linecap="round" stroke-miterlimit="10"/>
    <rect x="600" y="500" width="100" height="100" fill="none" stroke="#307faf" stroke-linecap="round" stroke-miterlimit="10"/>
    <rect x="700" y="500" width="100" height="100" fill="none" stroke="#307faf" stroke-linecap="round" stroke-miterlimit="10"/>
    <rect x="0" y="600" width="100" height="100" fill="none" stroke="#307faf" stroke-linecap="round" stroke-miterlimit="10"/>
    <rect x="100" y="600" width="100" height="100" fill="none" stroke="#307faf" stroke-linecap="round" stroke-miterlimit="10"/>
    <rect x="200" y="600" width="100" height="100" fill="none" stroke="#307faf" stroke-linecap="round" stroke-miterlimit="10"/>
    <rect x="300" y="600" width="100" height="100" fill="none" stroke="#307faf" stroke-linecap="round" stroke-miterlimit="10"/>
    <rect x="400" y="600" width="100" height="100" fill="none" stroke="#307faf" stroke-linecap="round" stroke-miterlimit="10"/>
    <rect x="500" y="600" width="100" height="100" fill="none" stroke="#307faf" stroke-linecap="round" stroke-miterlimit="10"/>
    <rect x="600" y="600" width="100" height="100" fill="none" stroke="#307faf" stroke-linecap="round" stroke-miterlimit="10"/>
    <rect x="700" y="600" width="100" height="100" fill="none" stroke="#307faf" stroke-linecap="round" stroke-miterlimit="10"/>
    <rect x="0" y="700" width="100" height="100" fill="none" stroke="#307faf" stroke-linecap="round" stroke-miterlimit="10"/>
    <rect x="100" y="700" width="100" height="100" fill="none" stroke="#307faf" stroke-linecap="round" stroke-miterlimit="10"/>
    <rect x="200" y="700" width="100" height="100" fill="none" stroke="#307faf" stroke-linecap="round" stroke-miterlimit="10"/>
    <rect x="300" y="700" width="100" height="100" fill="none" stroke="#307faf" stroke-linecap="round" stroke-miterlimit="10"/>
    <rect x="400" y="700" width="100" height="100" fill="none" stroke="#307faf" stroke-linecap="round" stroke-miterlimit="10"/>
    <rect x="500" y="700" width="100" height="100" fill="none" stroke="#307faf" stroke-linecap="round" stroke-miterlimit="10"/>
    <rect x="600" y="700" width="100" height="100" fill="none" stroke="#307faf" stroke-linecap="round" stroke-miterlimit="10"/>
    <rect x="700" y="700" width="100" height="100" fill="none" stroke="#307faf" stroke-linecap="round" stroke-miterlimit="10"/>
    <line x1="0" y1="787.5" x2="800" y2="787.5" fill="none" stroke="#307faf" stroke-linecap="round" stroke-miterlimit="10"/>
    <line x1="800" y1="12.5" x2="0" y2="12.5" fill="none" stroke="#307faf" stroke-linecap="round" stroke-miterlimit="10"/>
    <line x1="0" y1="687.5" x2="800" y2="687.5" fill="none" stroke="#307faf" stroke-linecap="round" stroke-miterlimit="10"/>
    <line x1="0" y1="112.5" x2="800" y2="112.5" fill="none" stroke="#307faf" stroke-linecap="round" stroke-miterlimit="10"/>
    <line x1="800" y1="256.25" x2="0" y2="256.25" fill="none" stroke="#307faf" stroke-linecap="round" stroke-miterlimit="10"/>
    <line x1="800" y1="543.75" x2="0" y2="543.75" fill="none" stroke="#307faf" stroke-linecap="round" stroke-miterlimit="10"/>
    <line x1="450" y1="800" x2="450" fill="none" stroke="#307faf" stroke-linecap="round" stroke-miterlimit="10"/>
    <line x1="350" y1="800" x2="350" fill="none" stroke="#307faf" stroke-linecap="round" stroke-miterlimit="10"/>
  </g>
  <path d="M570.5,370.5c-19.67,19.67-43.17,29.5-70.5,29.5s-50.84-9.83-70.5-29.5c-19.67-19.66-29.5-43.16-29.5-70.5s-9.5-52.5-28.5-71.5c-19-19-42.84-28.5-71.5-28.5s-52.5,9.5-71.5,28.5-28.5,42.84-28.5,71.5-9.84,50.84-29.5,70.5-43.17,29.5-70.5,29.5-50.84-9.83-70.5-29.5C9.83,350.84,0,327.34,0,300c0-54.66,13.33-105,40-151,26.66-46,63-82.33,109-109C195,13.34,245.33,0,300,0s105,13.34,151,40c46,26.67,82.33,63,109,109,26.66,46,40,96.34,40,151,0,27.34-9.84,50.84-29.5,70.5ZM29.5,229.5c19.66-19.66,43.16-29.5,70.5-29.5s50.83,9.84,70.5,29.5c19.66,19.67,29.5,43.17,29.5,70.5v387c0,28-9.84,51.67-29.5,71-19.67,19.34-43.17,29-70.5,29-27.34.67-50.84-8.83-70.5-28.5-19.67-19.66-29.5-43.5-29.5-71.5v-387c0-27.33,9.83-50.83,29.5-70.5ZM570.5,429.5c19.66,19.67,29.5,43.17,29.5,70.5s-9.84,50.84-29.5,70.5-43.17,29.5-70.5,29.5H100c-27.34,0-50.84-9.83-70.5-29.5-19.67-19.66-29.5-43.16-29.5-70.5s9.83-50.83,29.5-70.5c19.66-19.66,43.16-29.5,70.5-29.5h400c27.33,0,50.83,9.84,70.5,29.5ZM142.5,342.5c11.66-11.66,17.5-25.83,17.5-42.5s-5.84-30.83-17.5-42.5c-11.67-11.66-25.84-17.5-42.5-17.5s-30.84,5.84-42.5,17.5-17.5,25.84-17.5,42.5,5.83,30.84,17.5,42.5c11.66,11.67,25.83,17.5,42.5,17.5s30.83-5.83,42.5-17.5ZM142.5,342.5c11.66-11.66,17.5-25.83,17.5-42.5s-5.84-30.83-17.5-42.5c-11.67-11.66-25.84-17.5-42.5-17.5s-30.84,5.84-42.5,17.5-17.5,25.84-17.5,42.5,5.83,30.84,17.5,42.5c11.66,11.67,25.83,17.5,42.5,17.5s30.83-5.83,42.5-17.5ZM142.5,542.5c11.66-11.66,17.5-25.83,17.5-42.5s-5.84-30.83-17.5-42.5c-11.67-11.66-25.84-17.5-42.5-17.5s-30.84,5.84-42.5,17.5-17.5,25.84-17.5,42.5,5.83,30.84,17.5,42.5c11.66,11.67,25.83,17.5,42.5,17.5s30.83-5.83,42.5-17.5ZM142.5,542.5c11.66-11.66,17.5-25.83,17.5-42.5s-5.84-30.83-17.5-42.5c-11.67-11.66-25.84-17.5-42.5-17.5s-30.84,5.84-42.5,17.5-17.5,25.84-17.5,42.5,5.83,30.84,17.5,42.5c11.66,11.67,25.83,17.5,42.5,17.5s30.83-5.83,42.5-17.5ZM142.5,729.5c11.66-11.66,17.5-25.83,17.5-42.5s-5.84-29.83-17.5-41.5c-11.67-11.66-25.84-17.83-42.5-18.5-16.67.67-30.84,6.84-42.5,18.5-11.67,11.67-17.5,25.5-17.5,41.5s5.83,30.84,17.5,42.5c11.66,11.67,25.83,17.5,42.5,17.5s30.83-5.83,42.5-17.5ZM342.5,142.5c11.66-11.66,17.5-25.83,17.5-42.5s-5.84-30.83-17.5-42.5c-11.67-11.66-25.84-17.5-42.5-17.5s-30.84,5.84-42.5,17.5-17.5,25.84-17.5,42.5,5.83,30.84,17.5,42.5c11.66,11.67,25.83,17.5,42.5,17.5s30.83-5.83,42.5-17.5ZM429.5,229.5c19.66-19.66,43.16-29.5,70.5-29.5s50.83,9.84,70.5,29.5c19.66,19.67,29.5,43.17,29.5,70.5v387c0,28-9.84,51.67-29.5,71-19.67,19.34-43.17,29-70.5,29s-50.84-9.66-70.5-29c-19.67-19.33-29.5-43-29.5-71v-387c0-27.33,9.83-50.83,29.5-70.5ZM542.5,342.5c11.66-11.66,17.5-25.83,17.5-42.5s-5.84-30.83-17.5-42.5c-11.67-11.66-25.84-17.5-42.5-17.5s-30.84,5.84-42.5,17.5-17.5,25.84-17.5,42.5,5.83,30.84,17.5,42.5c11.66,11.67,25.83,17.5,42.5,17.5s30.83-5.83,42.5-17.5ZM542.5,342.5c11.66-11.66,17.5-25.83,17.5-42.5s-5.84-30.83-17.5-42.5c-11.67-11.66-25.84-17.5-42.5-17.5s-30.84,5.84-42.5,17.5-17.5,25.84-17.5,42.5,5.83,30.84,17.5,42.5c11.66,11.67,25.83,17.5,42.5,17.5s30.83-5.83,42.5-17.5ZM542.5,542.5c11.66-11.66,17.5-25.83,17.5-42.5s-5.84-30.83-17.5-42.5c-11.67-11.66-25.84-17.5-42.5-17.5s-30.84,5.84-42.5,17.5-17.5,25.84-17.5,42.5,5.83,30.84,17.5,42.5c11.66,11.67,25.83,17.5,42.5,17.5s30.83-5.83,42.5-17.5ZM542.5,542.5c11.66-11.66,17.5-25.83,17.5-42.5s-5.84-30.83-17.5-42.5c-11.67-11.66-25.84-17.5-42.5-17.5s-30.84,5.84-42.5,17.5-17.5,25.84-17.5,42.5,5.83,30.84,17.5,42.5c11.66,11.67,25.83,17.5,42.5,17.5s30.83-5.83,42.5-17.5ZM542.5,729.5c11.66-11.66,17.5-25.83,17.5-42.5s-5.84-29.83-17.5-41.5c-11.67-11.66-25.84-17.83-42.5-18.5-16.67.67-30.84,6.84-42.5,18.5-11.67,11.67-17.5,25.5-17.5,41.5s5.83,30.84,17.5,42.5c11.66,11.67,25.83,17.5,42.5,17.5s30.83-5.83,42.5-17.5Z" fill="none" stroke="#000" stroke-width="4"/>
</svg>