<?xml version="1.0" encoding="UTF-8"?>
<svg id="Layer_1" data-name="Layer 1" xmlns="http://www.w3.org/2000/svg" viewBox="0 0 800 800">
  <g opacity=".5">
    <rect width="100" height="100" fill="none" stroke="#307faf" stroke-linecap="round" stroke-miterlimit="10"/>
    <rect x="100" width="100" height="100" fill="none" stroke="#307faf" stroke-linecap="round" stroke-miterlimit="10"/>
    <rect x="200" width="100" height="100" fill="none" stroke="#307faf" stroke-linecap="round" stroke-miterlimit="10"/>
    <rect x="300" width="100" height="100" fill="none" stroke="#307faf" stroke-linecap="round" stroke-miterlimit="10"/>
    <rect x="400" width="100" height="100" fill="none" stroke="#307faf" stroke-linecap="round" stroke-miterlimit="10"/>
    <rect x="500" width="100" height="100" fill="none" stroke="#307faf" stroke-linecap="round" stroke-miterlimit="10"/>
    <rect x="600" width="100" height="100" fill="none" stroke="#307faf" stroke-linecap="round" stroke-miterlimit="10"/>
    <rect x="700" width="100" height="100" fill="none" stroke="#307faf" stroke-linecap="round" stroke-miterlimit="10"/>
    <rect y="100" width="100" height="100" fill="none" stroke="#307faf" stroke-linecap="round" stroke-miterlimit="10"/>
    <rect x="100" y="100" width="100" height="100" fill="none" stroke="#307faf" stroke-linecap="round" stroke-miterlimit="10"/>
    <rect x="200" y="100" width="100" height="100" fill="none" stroke="#307faf" stroke-linecap="round" stroke-miterlimit="10"/>
    <rect x="300" y="100" width="100" height="100" fill="none" stroke="#307faf" stroke-linecap="round" stroke-miterlimit="10"/>
    <rect x="400" y="100" width="100" height="100" fill="none" stroke="#307faf" stroke-linecap="round" stroke-miterlimit="10"/>
    <rect x="500" y="100" width="100" height="100" fill="none" stroke="#307faf" stroke-linecap="round" stroke-miterlimit="10"/>
    <rect x="600" y="100" width="100" height="100" fill="none" stroke="#307faf" stroke-linecap="round" stroke-miterlimit="10"/>
    <rect x="700" y="100" width="100" height="100" fill="none" stroke="#307faf" stroke-linecap="round" stroke-miterlimit="10"/>
    <rect y="200" width="100" height="100" fill="none" stroke="#307faf" stroke-linecap="round" stroke-miterlimit="10"/>
    <rect x="100" y="200" width="100" height="100" fill="none" stroke="#307faf" stroke-linecap="round" stroke-miterlimit="10"/>
    <rect x="200" y="200" width="100" height="100" fill="none" stroke="#307faf" stroke-linecap="round" stroke-miterlimit="10"/>
    <rect x="300" y="200" width="100" height="100" fill="none" stroke="#307faf" stroke-linecap="round" stroke-miterlimit="10"/>
    <rect x="400" y="200" width="100" height="100" fill="none" stroke="#307faf" stroke-linecap="round" stroke-miterlimit="10"/>
    <rect x="500" y="200" width="100" height="100" fill="none" stroke="#307faf" stroke-linecap="round" stroke-miterlimit="10"/>
    <rect x="600" y="200" width="100" height="100" fill="none" stroke="#307faf" stroke-linecap="round" stroke-miterlimit="10"/>
    <rect x="700" y="200" width="100" height="100" fill="none" stroke="#307faf" stroke-linecap="round" stroke-miterlimit="10"/>
    <rect y="300" width="100" height="100" fill="none" stroke="#307faf" stroke-linecap="round" stroke-miterlimit="10"/>
    <rect x="100" y="300" width="100" height="100" fill="none" stroke="#307faf" stroke-linecap="round" stroke-miterlimit="10"/>
    <rect x="200" y="300" width="100" height="100" fill="none" stroke="#307faf" stroke-linecap="round" stroke-miterlimit="10"/>
    <rect x="300" y="300" width="100" height="100" fill="none" stroke="#307faf" stroke-linecap="round" stroke-miterlimit="10"/>
    <rect x="400" y="300" width="100" height="100" fill="none" stroke="#307faf" stroke-linecap="round" stroke-miterlimit="10"/>
    <rect x="500" y="300" width="100" height="100" fill="none" stroke="#307faf" stroke-linecap="round" stroke-miterlimit="10"/>
    <rect x="600" y="300" width="100" height="100" fill="none" stroke="#307faf" stroke-linecap="round" stroke-miterlimit="10"/>
    <rect x="700" y="300" width="100" height="100" fill="none" stroke="#307faf" stroke-linecap="round" stroke-miterlimit="10"/>
    <rect y="400" width="100" height="100" fill="none" stroke="#307faf" stroke-linecap="round" stroke-miterlimit="10"/>
    <rect x="100" y="400" width="100" height="100" fill="none" stroke="#307faf" stroke-linecap="round" stroke-miterlimit="10"/>
    <rect x="200" y="400" width="100" height="100" fill="none" stroke="#307faf" stroke-linecap="round" stroke-miterlimit="10"/>
    <rect x="300" y="400" width="100" height="100" fill="none" stroke="#307faf" stroke-linecap="round" stroke-miterlimit="10"/>
    <rect x="400" y="400" width="100" height="100" fill="none" stroke="#307faf" stroke-linecap="round" stroke-miterlimit="10"/>
    <rect x="500" y="400" width="100" height="100" fill="none" stroke="#307faf" stroke-linecap="round" stroke-miterlimit="10"/>
    <rect x="600" y="400" width="100" height="100" fill="none" stroke="#307faf" stroke-linecap="round" stroke-miterlimit="10"/>
    <rect x="700" y="400" width="100" height="100" fill="none" stroke="#307faf" stroke-linecap="round" stroke-miterlimit="10"/>
    <rect y="500" width="100" height="100" fill="none" stroke="#307faf" stroke-linecap="round" stroke-miterlimit="10"/>
    <rect x="100" y="500" width="100" height="100" fill="none" stroke="#307faf" stroke-linecap="round" stroke-miterlimit="10"/>
    <rect x="200" y="500" width="100" height="100" fill="none" stroke="#307faf" stroke-linecap="round" stroke-miterlimit="10"/>
    <rect x="300" y="500" width="100" height="100" fill="none" stroke="#307faf" stroke-linecap="round" stroke-miterlimit="10"/>
    <rect x="400" y="500" width="100" height="100" fill="none" stroke="#307faf" stroke-linecap="round" stroke-miterlimit="10"/>
    <rect x="500" y="500" width="100" height="100" fill="none" stroke="#307faf" stroke-linecap="round" stroke-miterlimit="10"/>
    <rect x="600" y="500" width="100" height="100" fill="none" stroke="#307faf" stroke-linecap="round" stroke-miterlimit="10"/>
    <rect x="700" y="500" width="100" height="100" fill="none" stroke="#307faf" stroke-linecap="round" stroke-miterlimit="10"/>
    <rect y="600" width="100" height="100" fill="none" stroke="#307faf" stroke-linecap="round" stroke-miterlimit="10"/>
    <rect x="100" y="600" width="100" height="100" fill="none" stroke="#307faf" stroke-linecap="round" stroke-miterlimit="10"/>
    <rect x="200" y="600" width="100" height="100" fill="none" stroke="#307faf" stroke-linecap="round" stroke-miterlimit="10"/>
    <rect x="300" y="600" width="100" height="100" fill="none" stroke="#307faf" stroke-linecap="round" stroke-miterlimit="10"/>
    <rect x="400" y="600" width="100" height="100" fill="none" stroke="#307faf" stroke-linecap="round" stroke-miterlimit="10"/>
    <rect x="500" y="600" width="100" height="100" fill="none" stroke="#307faf" stroke-linecap="round" stroke-miterlimit="10"/>
    <rect x="600" y="600" width="100" height="100" fill="none" stroke="#307faf" stroke-linecap="round" stroke-miterlimit="10"/>
    <rect x="700" y="600" width="100" height="100" fill="none" stroke="#307faf" stroke-linecap="round" stroke-miterlimit="10"/>
    <rect y="700" width="100" height="100" fill="none" stroke="#307faf" stroke-linecap="round" stroke-miterlimit="10"/>
    <rect x="100" y="700" width="100" height="100" fill="none" stroke="#307faf" stroke-linecap="round" stroke-miterlimit="10"/>
    <rect x="200" y="700" width="100" height="100" fill="none" stroke="#307faf" stroke-linecap="round" stroke-miterlimit="10"/>
    <rect x="300" y="700" width="100" height="100" fill="none" stroke="#307faf" stroke-linecap="round" stroke-miterlimit="10"/>
    <rect x="400" y="700" width="100" height="100" fill="none" stroke="#307faf" stroke-linecap="round" stroke-miterlimit="10"/>
    <rect x="500" y="700" width="100" height="100" fill="none" stroke="#307faf" stroke-linecap="round" stroke-miterlimit="10"/>
    <rect x="600" y="700" width="100" height="100" fill="none" stroke="#307faf" stroke-linecap="round" stroke-miterlimit="10"/>
    <rect x="700" y="700" width="100" height="100" fill="none" stroke="#307faf" stroke-linecap="round" stroke-miterlimit="10"/>
    <line y1="787.5" x2="800" y2="787.5" fill="none" stroke="#307faf" stroke-linecap="round" stroke-miterlimit="10"/>
    <line x1="800" y1="12.5" y2="12.5" fill="none" stroke="#307faf" stroke-linecap="round" stroke-miterlimit="10"/>
    <line y1="687.5" x2="800" y2="687.5" fill="none" stroke="#307faf" stroke-linecap="round" stroke-miterlimit="10"/>
    <line y1="112.5" x2="800" y2="112.5" fill="none" stroke="#307faf" stroke-linecap="round" stroke-miterlimit="10"/>
    <line x1="800" y1="256.25" y2="256.25" fill="none" stroke="#307faf" stroke-linecap="round" stroke-miterlimit="10"/>
    <line x1="800" y1="543.75" y2="543.75" fill="none" stroke="#307faf" stroke-linecap="round" stroke-miterlimit="10"/>
    <line x1="450" y1="800" x2="450" fill="none" stroke="#307faf" stroke-linecap="round" stroke-miterlimit="10"/>
    <line x1="350" y1="800" x2="350" fill="none" stroke="#307faf" stroke-linecap="round" stroke-miterlimit="10"/>
  </g>
  <path d="M29.5,41.96c19.66-19.66,43.16-29.5,70.5-29.5,27.33.67,50.83,10.67,70.5,30,19.66,19.34,29.5,42.67,29.5,70v575c0,28-9.84,51.67-29.5,71-19.67,19.34-43.17,29-70.5,29-27.34.67-50.84-8.83-70.5-28.5-19.67-19.66-29.5-43.5-29.5-71.5V112.46c0-27.33,9.83-50.83,29.5-70.5ZM400,400.46c0,27.34-9.84,50.84-29.5,70.5s-43.17,29.5-70.5,29.5c-16.67,0-32.17-3.83-46.5-11.5-14.34-7.66-26.17-18.16-35.5-31.5L18,170.46C6,153.13,0,133.8,0,112.46c0-27.33,9.83-50.83,29.5-70.5S72.66,12.46,100,12.46c16.66.67,32.16,4.84,46.5,12.5,14.33,7.67,26.16,17.84,35.5,30.5l200,288c12,17.34,18,36.34,18,57ZM142.5,154.96c11.66-11.66,17.5-25.83,17.5-42.5s-5.84-29.83-17.5-41.5c-11.67-11.66-25.84-17.83-42.5-18.5-16.67,0-30.84,6-42.5,18-11.67,12-17.5,26-17.5,42s5.83,30.84,17.5,42.5c11.66,11.67,25.83,17.5,42.5,17.5s30.83-5.83,42.5-17.5ZM142.5,155.96c11.66-11.66,17.5-25.83,17.5-42.5s-5.84-30.83-17.5-42.5c-11.67-11.66-25.84-17.5-42.5-17.5s-30.84,5.84-42.5,17.5-17.5,25.84-17.5,42.5,5.83,30.84,17.5,42.5c11.66,11.67,25.83,17.5,42.5,17.5s30.83-5.83,42.5-17.5ZM142.5,729.96c11.66-11.66,17.5-25.83,17.5-42.5s-5.84-29.83-17.5-41.5c-11.67-11.66-25.84-17.83-42.5-18.5-16.67.67-30.84,6.84-42.5,18.5-11.67,11.67-17.5,25.5-17.5,41.5s5.83,30.84,17.5,42.5c11.66,11.67,25.83,17.5,42.5,17.5s30.83-5.83,42.5-17.5ZM600,687.46c0,28-9.84,51.67-29.5,71-19.67,19.34-43.17,29-70.5,29-16.67.67-32.17-3-46.5-11-14.34-8-26.17-18.33-35.5-31l-200-288c-12-17.33-18-36.33-18-57,0-27.33,9.83-50.83,29.5-70.5s43.16-29.5,70.5-29.5c16.66,0,32.16,3.84,46.5,11.5,14.33,7.67,26.16,18.17,35.5,31.5l200,287c12,17.34,18,36.34,18,57ZM342.5,442.96c11.66-11.66,17.5-25.83,17.5-42.5s-5.84-30.83-17.5-42.5c-11.67-11.66-25.84-17.5-42.5-17.5s-30.84,5.84-42.5,17.5-17.5,25.84-17.5,42.5,5.83,30.84,17.5,42.5c11.66,11.67,25.83,17.5,42.5,17.5s30.83-5.83,42.5-17.5ZM342.5,442.96c11.66-11.66,17.5-25.83,17.5-42.5s-5.84-30.83-17.5-42.5c-11.67-11.66-25.84-17.5-42.5-17.5s-30.84,5.84-42.5,17.5-17.5,25.84-17.5,42.5,5.83,30.84,17.5,42.5c11.66,11.67,25.83,17.5,42.5,17.5s30.83-5.83,42.5-17.5ZM429.5,42.46c19.66-19.33,43.16-29.33,70.5-30,27.33.67,50.83,10.67,70.5,30,19.66,19.34,29.5,42.67,29.5,70v575c0,28-9.84,51.67-29.5,71-19.67,19.34-43.17,29-70.5,29s-50.84-9.66-70.5-29c-19.67-19.33-29.5-43-29.5-71V112.46c0-27.33,9.83-50.66,29.5-70ZM542.5,155.96c11.66-11.66,17.5-25.83,17.5-42.5s-5.84-30.83-17.5-42.5c-11.67-11.66-25.84-17.5-42.5-17.5s-30.84,5.84-42.5,17.5-17.5,25.84-17.5,42.5,5.83,30.84,17.5,42.5c11.66,11.67,25.83,17.5,42.5,17.5s30.83-5.83,42.5-17.5ZM542.5,729.96c11.66-11.66,17.5-25.83,17.5-42.5s-5.84-29.83-17.5-41.5c-11.67-11.66-25.84-17.83-42.5-18.5-16.67.67-30.84,6.84-42.5,18.5-11.67,11.67-17.5,25.5-17.5,41.5s5.83,30.84,17.5,42.5c11.66,11.67,25.83,17.5,42.5,17.5s30.83-5.83,42.5-17.5ZM542.5,729.96c11.66-11.66,17.5-25.83,17.5-42.5s-5.84-29.83-17.5-41.5c-11.67-11.66-25.84-17.83-42.5-18.5-16.67.67-30.84,6.84-42.5,18.5-11.67,11.67-17.5,25.5-17.5,41.5s5.83,30.84,17.5,42.5c11.66,11.67,25.83,17.5,42.5,17.5s30.83-5.83,42.5-17.5Z" fill="none" stroke="#000" stroke-width="4"/>
</svg>