<?xml version="1.0" encoding="UTF-8"?>
<svg id="Layer_1" data-name="Layer 1" xmlns="http://www.w3.org/2000/svg" viewBox="0 0 800 800">
  <g opacity=".5">
    <rect x="0" width="100" height="100" fill="none" stroke="#307faf" stroke-linecap="round" stroke-miterlimit="10"/>
    <rect x="100" width="100" height="100" fill="none" stroke="#307faf" stroke-linecap="round" stroke-miterlimit="10"/>
    <rect x="200" width="100" height="100" fill="none" stroke="#307faf" stroke-linecap="round" stroke-miterlimit="10"/>
    <rect x="300" width="100" height="100" fill="none" stroke="#307faf" stroke-linecap="round" stroke-miterlimit="10"/>
    <rect x="400" width="100" height="100" fill="none" stroke="#307faf" stroke-linecap="round" stroke-miterlimit="10"/>
    <rect x="500" width="100" height="100" fill="none" stroke="#307faf" stroke-linecap="round" stroke-miterlimit="10"/>
    <rect x="600" width="100" height="100" fill="none" stroke="#307faf" stroke-linecap="round" stroke-miterlimit="10"/>
    <rect x="700" width="100" height="100" fill="none" stroke="#307faf" stroke-linecap="round" stroke-miterlimit="10"/>
    <rect x="0" y="100" width="100" height="100" fill="none" stroke="#307faf" stroke-linecap="round" stroke-miterlimit="10"/>
    <rect x="100" y="100" width="100" height="100" fill="none" stroke="#307faf" stroke-linecap="round" stroke-miterlimit="10"/>
    <rect x="200" y="100" width="100" height="100" fill="none" stroke="#307faf" stroke-linecap="round" stroke-miterlimit="10"/>
    <rect x="300" y="100" width="100" height="100" fill="none" stroke="#307faf" stroke-linecap="round" stroke-miterlimit="10"/>
    <rect x="400" y="100" width="100" height="100" fill="none" stroke="#307faf" stroke-linecap="round" stroke-miterlimit="10"/>
    <rect x="500" y="100" width="100" height="100" fill="none" stroke="#307faf" stroke-linecap="round" stroke-miterlimit="10"/>
    <rect x="600" y="100" width="100" height="100" fill="none" stroke="#307faf" stroke-linecap="round" stroke-miterlimit="10"/>
    <rect x="700" y="100" width="100" height="100" fill="none" stroke="#307faf" stroke-linecap="round" stroke-miterlimit="10"/>
    <rect x="0" y="200" width="100" height="100" fill="none" stroke="#307faf" stroke-linecap="round" stroke-miterlimit="10"/>
    <rect x="100" y="200" width="100" height="100" fill="none" stroke="#307faf" stroke-linecap="round" stroke-miterlimit="10"/>
    <rect x="200" y="200" width="100" height="100" fill="none" stroke="#307faf" stroke-linecap="round" stroke-miterlimit="10"/>
    <rect x="300" y="200" width="100" height="100" fill="none" stroke="#307faf" stroke-linecap="round" stroke-miterlimit="10"/>
    <rect x="400" y="200" width="100" height="100" fill="none" stroke="#307faf" stroke-linecap="round" stroke-miterlimit="10"/>
    <rect x="500" y="200" width="100" height="100" fill="none" stroke="#307faf" stroke-linecap="round" stroke-miterlimit="10"/>
    <rect x="600" y="200" width="100" height="100" fill="none" stroke="#307faf" stroke-linecap="round" stroke-miterlimit="10"/>
    <rect x="700" y="200" width="100" height="100" fill="none" stroke="#307faf" stroke-linecap="round" stroke-miterlimit="10"/>
    <rect x="0" y="300" width="100" height="100" fill="none" stroke="#307faf" stroke-linecap="round" stroke-miterlimit="10"/>
    <rect x="100" y="300" width="100" height="100" fill="none" stroke="#307faf" stroke-linecap="round" stroke-miterlimit="10"/>
    <rect x="200" y="300" width="100" height="100" fill="none" stroke="#307faf" stroke-linecap="round" stroke-miterlimit="10"/>
    <rect x="300" y="300" width="100" height="100" fill="none" stroke="#307faf" stroke-linecap="round" stroke-miterlimit="10"/>
    <rect x="400" y="300" width="100" height="100" fill="none" stroke="#307faf" stroke-linecap="round" stroke-miterlimit="10"/>
    <rect x="500" y="300" width="100" height="100" fill="none" stroke="#307faf" stroke-linecap="round" stroke-miterlimit="10"/>
    <rect x="600" y="300" width="100" height="100" fill="none" stroke="#307faf" stroke-linecap="round" stroke-miterlimit="10"/>
    <rect x="700" y="300" width="100" height="100" fill="none" stroke="#307faf" stroke-linecap="round" stroke-miterlimit="10"/>
    <rect x="0" y="400" width="100" height="100" fill="none" stroke="#307faf" stroke-linecap="round" stroke-miterlimit="10"/>
    <rect x="100" y="400" width="100" height="100" fill="none" stroke="#307faf" stroke-linecap="round" stroke-miterlimit="10"/>
    <rect x="200" y="400" width="100" height="100" fill="none" stroke="#307faf" stroke-linecap="round" stroke-miterlimit="10"/>
    <rect x="300" y="400" width="100" height="100" fill="none" stroke="#307faf" stroke-linecap="round" stroke-miterlimit="10"/>
    <rect x="400" y="400" width="100" height="100" fill="none" stroke="#307faf" stroke-linecap="round" stroke-miterlimit="10"/>
    <rect x="500" y="400" width="100" height="100" fill="none" stroke="#307faf" stroke-linecap="round" stroke-miterlimit="10"/>
    <rect x="600" y="400" width="100" height="100" fill="none" stroke="#307faf" stroke-linecap="round" stroke-miterlimit="10"/>
    <rect x="700" y="400" width="100" height="100" fill="none" stroke="#307faf" stroke-linecap="round" stroke-miterlimit="10"/>
    <rect x="0" y="500" width="100" height="100" fill="none" stroke="#307faf" stroke-linecap="round" stroke-miterlimit="10"/>
    <rect x="100" y="500" width="100" height="100" fill="none" stroke="#307faf" stroke-linecap="round" stroke-miterlimit="10"/>
    <rect x="200" y="500" width="100" height="100" fill="none" stroke="#307faf" stroke-linecap="round" stroke-miterlimit="10"/>
    <rect x="300" y="500" width="100" height="100" fill="none" stroke="#307faf" stroke-linecap="round" stroke-miterlimit="10"/>
    <rect x="400" y="500" width="100" height="100" fill="none" stroke="#307faf" stroke-linecap="round" stroke-miterlimit="10"/>
    <rect x="500" y="500" width="100" height="100" fill="none" stroke="#307faf" stroke-linecap="round" stroke-miterlimit="10"/>
    <rect x="600" y="500" width="100" height="100" fill="none" stroke="#307faf" stroke-linecap="round" stroke-miterlimit="10"/>
    <rect x="700" y="500" width="100" height="100" fill="none" stroke="#307faf" stroke-linecap="round" stroke-miterlimit="10"/>
    <rect x="0" y="600" width="100" height="100" fill="none" stroke="#307faf" stroke-linecap="round" stroke-miterlimit="10"/>
    <rect x="100" y="600" width="100" height="100" fill="none" stroke="#307faf" stroke-linecap="round" stroke-miterlimit="10"/>
    <rect x="200" y="600" width="100" height="100" fill="none" stroke="#307faf" stroke-linecap="round" stroke-miterlimit="10"/>
    <rect x="300" y="600" width="100" height="100" fill="none" stroke="#307faf" stroke-linecap="round" stroke-miterlimit="10"/>
    <rect x="400" y="600" width="100" height="100" fill="none" stroke="#307faf" stroke-linecap="round" stroke-miterlimit="10"/>
    <rect x="500" y="600" width="100" height="100" fill="none" stroke="#307faf" stroke-linecap="round" stroke-miterlimit="10"/>
    <rect x="600" y="600" width="100" height="100" fill="none" stroke="#307faf" stroke-linecap="round" stroke-miterlimit="10"/>
    <rect x="700" y="600" width="100" height="100" fill="none" stroke="#307faf" stroke-linecap="round" stroke-miterlimit="10"/>
    <rect x="0" y="700" width="100" height="100" fill="none" stroke="#307faf" stroke-linecap="round" stroke-miterlimit="10"/>
    <rect x="100" y="700" width="100" height="100" fill="none" stroke="#307faf" stroke-linecap="round" stroke-miterlimit="10"/>
    <rect x="200" y="700" width="100" height="100" fill="none" stroke="#307faf" stroke-linecap="round" stroke-miterlimit="10"/>
    <rect x="300" y="700" width="100" height="100" fill="none" stroke="#307faf" stroke-linecap="round" stroke-miterlimit="10"/>
    <rect x="400" y="700" width="100" height="100" fill="none" stroke="#307faf" stroke-linecap="round" stroke-miterlimit="10"/>
    <rect x="500" y="700" width="100" height="100" fill="none" stroke="#307faf" stroke-linecap="round" stroke-miterlimit="10"/>
    <rect x="600" y="700" width="100" height="100" fill="none" stroke="#307faf" stroke-linecap="round" stroke-miterlimit="10"/>
    <rect x="700" y="700" width="100" height="100" fill="none" stroke="#307faf" stroke-linecap="round" stroke-miterlimit="10"/>
    <line x1="0" y1="787.5" x2="800" y2="787.5" fill="none" stroke="#307faf" stroke-linecap="round" stroke-miterlimit="10"/>
    <line x1="800" y1="12.5" x2="0" y2="12.5" fill="none" stroke="#307faf" stroke-linecap="round" stroke-miterlimit="10"/>
    <line x1="0" y1="687.5" x2="800" y2="687.5" fill="none" stroke="#307faf" stroke-linecap="round" stroke-miterlimit="10"/>
    <line x1="0" y1="112.5" x2="800" y2="112.5" fill="none" stroke="#307faf" stroke-linecap="round" stroke-miterlimit="10"/>
    <line x1="800" y1="256.25" x2="0" y2="256.25" fill="none" stroke="#307faf" stroke-linecap="round" stroke-miterlimit="10"/>
    <line x1="800" y1="543.75" x2="0" y2="543.75" fill="none" stroke="#307faf" stroke-linecap="round" stroke-miterlimit="10"/>
    <line x1="450" y1="800" x2="450" fill="none" stroke="#307faf" stroke-linecap="round" stroke-miterlimit="10"/>
    <line x1="350" y1="800" x2="350" fill="none" stroke="#307faf" stroke-linecap="round" stroke-miterlimit="10"/>
  </g>
  <path d="M470.5,29.5c19.66,19.67,29.5,43.17,29.5,70.5s-9.84,50.84-29.5,70.5c-19.67,19.67-43.17,29.5-70.5,29.5-37.34,0-71.17,8.84-101.5,26.5-30.34,17.67-54.34,41.67-72,72-17.67,30.34-26.5,64.17-26.5,101.5s8.83,71.17,26.5,101.5c17.66,30.34,41.66,54.34,72,72,30.33,17.67,64.16,26.5,101.5,26.5,27.33,0,50.83,9.84,70.5,29.5,19.66,19.67,29.5,43.17,29.5,70.5s-9.84,50.84-29.5,70.5-43.17,29.5-70.5,29.5c-73.34,0-140.5-17.83-201.5-53.5-61-35.66-109.34-84-145-145C17.83,540.5,0,473.35,0,400s17.83-140.5,53.5-201.5c35.66-61,84-109.33,145-145C259.5,17.84,326.66,0,400,0c27.33,0,50.83,9.84,70.5,29.5ZM142.5,357.5c-11.67-11.66-25.84-17.5-42.5-17.5s-30.84,5.84-42.5,17.5-17.5,25.84-17.5,42.5,5.83,30.84,17.5,42.5c11.66,11.67,25.83,17.5,42.5,17.5s30.83-5.83,42.5-17.5,17.5-25.83,17.5-42.5-5.84-30.83-17.5-42.5ZM691,135.5c6,13,9,26.5,9,40.5,0,28-9.84,51.67-29.5,71-19.67,19.34-43.17,29-70.5,29-25.34,0-47.67-8.33-67-25-38-34-82.34-51-133-51-27.34,0-50.84-9.83-70.5-29.5-19.67-19.66-29.5-43.16-29.5-70.5s9.83-50.83,29.5-70.5S372.66,0,400,0c50,0,98,9,144,27s87,43,123,75c10,9.34,18,20.5,24,33.5ZM544,773c-46,18-94,27-144,27-27.34,0-50.84-9.83-70.5-29.5-19.67-19.66-29.5-43.16-29.5-70.5s9.83-50.83,29.5-70.5c19.66-19.66,43.16-29.5,70.5-29.5,50.66,0,95-17,133-51,19.33-16.66,41.66-25,67-25,27.33,0,50.83,9.67,70.5,29,19.66,19.34,29.5,42.67,29.5,70,0,14.67-3,28.5-9,41.5s-14,24.17-24,33.5c-36,32-77,57-123,75ZM442.5,57.5c-11.67-11.66-25.84-17.5-42.5-17.5s-30.84,5.84-42.5,17.5-17.5,25.84-17.5,42.5,5.83,30.84,17.5,42.5c11.66,11.67,25.83,17.5,42.5,17.5s30.83-5.83,42.5-17.5,17.5-25.83,17.5-42.5-5.84-30.83-17.5-42.5ZM442.5,142.5c11.66-11.66,17.5-25.83,17.5-42.5s-5.84-30.83-17.5-42.5c-11.67-11.66-25.84-17.5-42.5-17.5s-30.84,5.84-42.5,17.5-17.5,25.84-17.5,42.5,5.83,30.84,17.5,42.5c11.66,11.67,25.83,17.5,42.5,17.5s30.83-5.83,42.5-17.5ZM357.5,657.5c-11.67,11.67-17.5,25.84-17.5,42.5s5.83,30.84,17.5,42.5c11.66,11.67,25.83,17.5,42.5,17.5s30.83-5.83,42.5-17.5,17.5-25.83,17.5-42.5-5.84-30.83-17.5-42.5c-11.67-11.66-25.84-17.5-42.5-17.5s-30.84,5.84-42.5,17.5ZM442.5,657.5c-11.67-11.66-25.84-17.5-42.5-17.5s-30.84,5.84-42.5,17.5c-11.67,11.67-17.5,25.84-17.5,42.5s5.83,30.84,17.5,42.5c11.66,11.67,25.83,17.5,42.5,17.5s30.83-5.83,42.5-17.5,17.5-25.83,17.5-42.5-5.84-30.83-17.5-42.5ZM642.5,218.5c11.66-11.66,17.5-25.83,17.5-42.5s-5.84-29.83-17.5-41.5c-11.67-11.66-25.84-17.83-42.5-18.5-16.67.67-30.84,6.84-42.5,18.5s-17.5,25.5-17.5,41.5,5.83,30.84,17.5,42.5c11.66,11.67,25.83,17.5,42.5,17.5s30.83-5.83,42.5-17.5ZM557.5,581c-11.67,12-17.5,26-17.5,42s5.83,31,17.5,43c11.66,12,25.83,17.67,42.5,17,16.66.67,30.83-5,42.5-17,11.66-12,17.5-26.33,17.5-43s-5.84-30-17.5-42c-11.67-12-25.84-18-42.5-18s-30.84,6-42.5,18Z" fill="none" stroke="#000" stroke-width="4"/>
</svg>