<?xml version="1.0" encoding="UTF-8"?>
<svg xmlns="http://www.w3.org/2000/svg" version="1.1" viewBox="0 0 1000 1000">
  <defs>
    <style>
      .cls-1 {
        fill: #f3b352;
      }

      .cls-2 {
        fill: #307faf;
      }

      .cls-3 {
        fill: #ececec;
        stroke: #000;
        stroke-miterlimit: 10;
      }

      .cls-4 {
        fill: #d82d19;
      }

      .cls-5 {
        fill: #01924f;
      }
    </style>
  </defs>
  <!-- Generator: Adobe Illustrator 28.7.1, SVG Export Plug-In . SVG Version: 1.2.0 Build 142)  -->
  <g>
    <g id="Layer_1">
      <g>
        <g>
          <rect class="cls-3" y="-.3" width="50" height="50"/>
          <rect class="cls-3" x="50" y="-.3" width="50" height="50"/>
          <rect class="cls-3" x="100" y="-.3" width="50" height="50"/>
          <rect class="cls-3" x="150" y="-.3" width="50" height="50"/>
          <rect class="cls-3" x="200" y="-.3" width="50" height="50"/>
          <rect class="cls-3" x="250" y="-.3" width="50" height="50"/>
          <rect class="cls-3" x="300" y="-.3" width="50" height="50"/>
          <rect class="cls-3" x="350" y="-.3" width="50" height="50"/>
          <rect class="cls-3" x="400" y="-.3" width="50" height="50"/>
          <rect class="cls-3" x="450" y="-.3" width="50" height="50"/>
          <rect class="cls-3" x="500" y="-.3" width="50" height="50"/>
          <rect class="cls-3" x="550" y="-.3" width="50" height="50"/>
          <rect class="cls-3" x="600" y="-.3" width="50" height="50"/>
          <rect class="cls-3" x="650" y="-.3" width="50" height="50"/>
          <rect class="cls-3" x="700" y="-.3" width="50" height="50"/>
          <rect class="cls-3" x="750" y="-.3" width="50" height="50"/>
          <rect class="cls-3" x="800" y="-.3" width="50" height="50"/>
          <rect class="cls-3" x="850" y="-.3" width="50" height="50"/>
          <rect class="cls-3" x="900" y="-.3" width="50" height="50"/>
          <rect class="cls-3" x="950" y="-.3" width="50" height="50"/>
          <rect class="cls-3" y="49.7" width="50" height="50"/>
          <rect class="cls-3" x="50" y="49.7" width="50" height="50"/>
          <rect class="cls-3" x="100" y="49.7" width="50" height="50"/>
          <rect class="cls-3" x="150" y="49.7" width="50" height="50"/>
          <rect class="cls-3" x="200" y="49.7" width="50" height="50"/>
          <rect class="cls-3" x="250" y="49.7" width="50" height="50"/>
          <rect class="cls-3" x="300" y="49.7" width="50" height="50"/>
          <rect class="cls-3" x="350" y="49.7" width="50" height="50"/>
          <rect class="cls-3" x="400" y="49.7" width="50" height="50"/>
          <rect class="cls-3" x="450" y="49.7" width="50" height="50"/>
          <rect class="cls-3" x="500" y="49.7" width="50" height="50"/>
          <rect class="cls-3" x="550" y="49.7" width="50" height="50"/>
          <rect class="cls-3" x="600" y="49.7" width="50" height="50"/>
          <rect class="cls-3" x="650" y="49.7" width="50" height="50"/>
          <rect class="cls-3" x="700" y="49.7" width="50" height="50"/>
          <rect class="cls-3" x="750" y="49.7" width="50" height="50"/>
          <rect class="cls-3" x="800" y="49.7" width="50" height="50"/>
          <rect class="cls-3" x="850" y="49.7" width="50" height="50"/>
          <rect class="cls-3" x="900" y="49.7" width="50" height="50"/>
          <rect class="cls-3" x="950" y="49.7" width="50" height="50"/>
          <rect class="cls-3" y="99.7" width="50" height="50"/>
          <rect class="cls-3" x="50" y="99.7" width="50" height="50"/>
          <rect class="cls-3" x="100" y="99.7" width="50" height="50"/>
          <rect class="cls-3" x="150" y="99.7" width="50" height="50"/>
          <rect class="cls-3" x="200" y="99.7" width="50" height="50"/>
          <rect class="cls-3" x="250" y="99.7" width="50" height="50"/>
          <rect class="cls-3" x="300" y="99.7" width="50" height="50"/>
          <rect class="cls-3" x="350" y="99.7" width="50" height="50"/>
          <rect class="cls-3" x="400" y="99.7" width="50" height="50"/>
          <rect class="cls-3" x="450" y="99.7" width="50" height="50"/>
          <rect class="cls-3" x="500" y="99.7" width="50" height="50"/>
          <rect class="cls-3" x="550" y="99.7" width="50" height="50"/>
          <rect class="cls-3" x="600" y="99.7" width="50" height="50"/>
          <rect class="cls-3" x="650" y="99.7" width="50" height="50"/>
          <rect class="cls-3" x="700" y="99.7" width="50" height="50"/>
          <rect class="cls-3" x="750" y="99.7" width="50" height="50"/>
          <rect class="cls-3" x="800" y="99.7" width="50" height="50"/>
          <rect class="cls-3" x="850" y="99.7" width="50" height="50"/>
          <rect class="cls-3" x="900" y="99.7" width="50" height="50"/>
          <rect class="cls-3" x="950" y="99.7" width="50" height="50"/>
          <rect class="cls-3" y="149.7" width="50" height="50"/>
          <rect class="cls-3" x="50" y="149.7" width="50" height="50"/>
          <rect class="cls-3" x="100" y="149.7" width="50" height="50"/>
          <rect class="cls-3" x="150" y="149.7" width="50" height="50"/>
          <rect class="cls-3" x="200" y="149.7" width="50" height="50"/>
          <rect class="cls-3" x="250" y="149.7" width="50" height="50"/>
          <rect class="cls-3" x="300" y="149.7" width="50" height="50"/>
          <rect class="cls-3" x="350" y="149.7" width="50" height="50"/>
          <rect class="cls-3" x="400" y="149.7" width="50" height="50"/>
          <rect class="cls-3" x="450" y="149.7" width="50" height="50"/>
          <rect class="cls-3" x="500" y="149.7" width="50" height="50"/>
          <rect class="cls-3" x="550" y="149.7" width="50" height="50"/>
          <rect class="cls-3" x="600" y="149.7" width="50" height="50"/>
          <rect class="cls-3" x="650" y="149.7" width="50" height="50"/>
          <rect class="cls-3" x="700" y="149.7" width="50" height="50"/>
          <rect class="cls-3" x="750" y="149.7" width="50" height="50"/>
          <rect class="cls-3" x="800" y="149.7" width="50" height="50"/>
          <rect class="cls-3" x="850" y="149.7" width="50" height="50"/>
          <rect class="cls-3" x="900" y="149.7" width="50" height="50"/>
          <rect class="cls-3" x="950" y="149.7" width="50" height="50"/>
          <rect class="cls-3" y="199.7" width="50" height="50"/>
          <rect class="cls-3" x="50" y="199.7" width="50" height="50"/>
          <rect class="cls-3" x="100" y="199.7" width="50" height="50"/>
          <rect class="cls-3" x="150" y="199.7" width="50" height="50"/>
          <rect class="cls-3" x="200" y="199.7" width="50" height="50"/>
          <rect class="cls-3" x="250" y="199.7" width="50" height="50"/>
          <rect class="cls-3" x="300" y="199.7" width="50" height="50"/>
          <rect class="cls-3" x="350" y="199.7" width="50" height="50"/>
          <rect class="cls-3" x="400" y="199.7" width="50" height="50"/>
          <rect class="cls-3" x="450" y="199.7" width="50" height="50"/>
          <rect class="cls-3" x="500" y="199.7" width="50" height="50"/>
          <rect class="cls-3" x="550" y="199.7" width="50" height="50"/>
          <rect class="cls-3" x="600" y="199.7" width="50" height="50"/>
          <rect class="cls-3" x="650" y="199.7" width="50" height="50"/>
          <rect class="cls-3" x="700" y="199.7" width="50" height="50"/>
          <rect class="cls-3" x="750" y="199.7" width="50" height="50"/>
          <rect class="cls-3" x="800" y="199.7" width="50" height="50"/>
          <rect class="cls-3" x="850" y="199.7" width="50" height="50"/>
          <rect class="cls-3" x="900" y="199.7" width="50" height="50"/>
          <rect class="cls-3" x="950" y="199.7" width="50" height="50"/>
          <rect class="cls-3" y="249.7" width="50" height="50"/>
          <rect class="cls-3" x="50" y="249.7" width="50" height="50"/>
          <rect class="cls-3" x="100" y="249.7" width="50" height="50"/>
          <rect class="cls-3" x="150" y="249.7" width="50" height="50"/>
          <rect class="cls-3" x="200" y="249.7" width="50" height="50"/>
          <rect class="cls-3" x="250" y="249.7" width="50" height="50"/>
          <rect class="cls-3" x="300" y="249.7" width="50" height="50"/>
          <rect class="cls-3" x="350" y="249.7" width="50" height="50"/>
          <rect class="cls-3" x="400" y="249.7" width="50" height="50"/>
          <rect class="cls-3" x="450" y="249.7" width="50" height="50"/>
          <rect class="cls-3" x="500" y="249.7" width="50" height="50"/>
          <rect class="cls-3" x="550" y="249.7" width="50" height="50"/>
          <rect class="cls-3" x="600" y="249.7" width="50" height="50"/>
          <rect class="cls-3" x="650" y="249.7" width="50" height="50"/>
          <rect class="cls-3" x="700" y="249.7" width="50" height="50"/>
          <rect class="cls-3" x="750" y="249.7" width="50" height="50"/>
          <rect class="cls-3" x="800" y="249.7" width="50" height="50"/>
          <rect class="cls-3" x="850" y="249.7" width="50" height="50"/>
          <rect class="cls-3" x="900" y="249.7" width="50" height="50"/>
          <rect class="cls-3" x="950" y="249.7" width="50" height="50"/>
          <rect class="cls-3" y="299.7" width="50" height="50"/>
          <rect class="cls-3" x="50" y="299.7" width="50" height="50"/>
          <rect class="cls-3" x="100" y="299.7" width="50" height="50"/>
          <rect class="cls-3" x="150" y="299.7" width="50" height="50"/>
          <rect class="cls-3" x="200" y="299.7" width="50" height="50"/>
          <rect class="cls-3" x="250" y="299.7" width="50" height="50"/>
          <rect class="cls-3" x="300" y="299.7" width="50" height="50"/>
          <rect class="cls-3" x="350" y="299.7" width="50" height="50"/>
          <rect class="cls-3" x="400" y="299.7" width="50" height="50"/>
          <rect class="cls-3" x="450" y="299.7" width="50" height="50"/>
          <rect class="cls-3" x="500" y="299.7" width="50" height="50"/>
          <rect class="cls-3" x="550" y="299.7" width="50" height="50"/>
          <rect class="cls-3" x="600" y="299.7" width="50" height="50"/>
          <rect class="cls-3" x="650" y="299.7" width="50" height="50"/>
          <rect class="cls-3" x="700" y="299.7" width="50" height="50"/>
          <rect class="cls-3" x="750" y="299.7" width="50" height="50"/>
          <rect class="cls-3" x="800" y="299.7" width="50" height="50"/>
          <rect class="cls-3" x="850" y="299.7" width="50" height="50"/>
          <rect class="cls-3" x="900" y="299.7" width="50" height="50"/>
          <rect class="cls-3" x="950" y="299.7" width="50" height="50"/>
          <rect class="cls-3" y="349.7" width="50" height="50"/>
          <rect class="cls-3" x="50" y="349.7" width="50" height="50"/>
          <rect class="cls-3" x="100" y="349.7" width="50" height="50"/>
          <rect class="cls-3" x="150" y="349.7" width="50" height="50"/>
          <rect class="cls-3" x="200" y="349.7" width="50" height="50"/>
          <rect class="cls-3" x="250" y="349.7" width="50" height="50"/>
          <rect class="cls-3" x="300" y="349.7" width="50" height="50"/>
          <rect class="cls-3" x="350" y="349.7" width="50" height="50"/>
          <rect class="cls-3" x="400" y="349.7" width="50" height="50"/>
          <rect class="cls-3" x="450" y="349.7" width="50" height="50"/>
          <rect class="cls-3" x="500" y="349.7" width="50" height="50"/>
          <rect class="cls-3" x="550" y="349.7" width="50" height="50"/>
          <rect class="cls-3" x="600" y="349.7" width="50" height="50"/>
          <rect class="cls-3" x="650" y="349.7" width="50" height="50"/>
          <rect class="cls-3" x="700" y="349.7" width="50" height="50"/>
          <rect class="cls-3" x="750" y="349.7" width="50" height="50"/>
          <rect class="cls-3" x="800" y="349.7" width="50" height="50"/>
          <rect class="cls-3" x="850" y="349.7" width="50" height="50"/>
          <rect class="cls-3" x="900" y="349.7" width="50" height="50"/>
          <rect class="cls-3" x="950" y="349.7" width="50" height="50"/>
          <rect class="cls-3" y="399.7" width="50" height="50"/>
          <rect class="cls-3" x="50" y="399.7" width="50" height="50"/>
          <rect class="cls-3" x="100" y="399.7" width="50" height="50"/>
          <rect class="cls-3" x="150" y="399.7" width="50" height="50"/>
          <rect class="cls-3" x="200" y="399.7" width="50" height="50"/>
          <rect class="cls-3" x="250" y="399.7" width="50" height="50"/>
          <rect class="cls-3" x="300" y="399.7" width="50" height="50"/>
          <rect class="cls-3" x="350" y="399.7" width="50" height="50"/>
          <rect class="cls-3" x="400" y="399.7" width="50" height="50"/>
          <rect class="cls-3" x="450" y="399.7" width="50" height="50"/>
          <rect class="cls-3" x="500" y="399.7" width="50" height="50"/>
          <rect class="cls-3" x="550" y="399.7" width="50" height="50"/>
          <rect class="cls-3" x="600" y="399.7" width="50" height="50"/>
          <rect class="cls-3" x="650" y="399.7" width="50" height="50"/>
          <rect class="cls-3" x="700" y="399.7" width="50" height="50"/>
          <rect class="cls-3" x="750" y="399.7" width="50" height="50"/>
          <rect class="cls-3" x="800" y="399.7" width="50" height="50"/>
          <rect class="cls-3" x="850" y="399.7" width="50" height="50"/>
          <rect class="cls-3" x="900" y="399.7" width="50" height="50"/>
          <rect class="cls-3" x="950" y="399.7" width="50" height="50"/>
          <rect class="cls-3" y="449.7" width="50" height="50"/>
          <rect class="cls-3" x="50" y="449.7" width="50" height="50"/>
          <rect class="cls-3" x="100" y="449.7" width="50" height="50"/>
          <rect class="cls-3" x="150" y="449.7" width="50" height="50"/>
          <rect class="cls-3" x="200" y="449.7" width="50" height="50"/>
          <rect class="cls-3" x="250" y="449.7" width="50" height="50"/>
          <rect class="cls-3" x="300" y="449.7" width="50" height="50"/>
          <rect class="cls-3" x="350" y="449.7" width="50" height="50"/>
          <rect class="cls-3" x="400" y="449.7" width="50" height="50"/>
          <rect class="cls-3" x="450" y="449.7" width="50" height="50"/>
          <rect class="cls-3" x="500" y="449.7" width="50" height="50"/>
          <rect class="cls-3" x="550" y="449.7" width="50" height="50"/>
          <rect class="cls-3" x="600" y="449.7" width="50" height="50"/>
          <rect class="cls-3" x="650" y="449.7" width="50" height="50"/>
          <rect class="cls-3" x="700" y="449.7" width="50" height="50"/>
          <rect class="cls-3" x="750" y="449.7" width="50" height="50"/>
          <rect class="cls-3" x="800" y="449.7" width="50" height="50"/>
          <rect class="cls-3" x="850" y="449.7" width="50" height="50"/>
          <rect class="cls-3" x="900" y="449.7" width="50" height="50"/>
          <rect class="cls-3" x="950" y="449.7" width="50" height="50"/>
          <rect class="cls-3" y="499.7" width="50" height="50"/>
          <rect class="cls-3" x="50" y="499.7" width="50" height="50"/>
          <rect class="cls-3" x="100" y="499.7" width="50" height="50"/>
          <rect class="cls-3" x="150" y="499.7" width="50" height="50"/>
          <rect class="cls-3" x="200" y="499.7" width="50" height="50"/>
          <rect class="cls-3" x="250" y="499.7" width="50" height="50"/>
          <rect class="cls-3" x="300" y="499.7" width="50" height="50"/>
          <rect class="cls-3" x="350" y="499.7" width="50" height="50"/>
          <rect class="cls-3" x="400" y="499.7" width="50" height="50"/>
          <rect class="cls-3" x="450" y="499.7" width="50" height="50"/>
          <rect class="cls-3" x="500" y="499.7" width="50" height="50"/>
          <rect class="cls-3" x="550" y="499.7" width="50" height="50"/>
          <rect class="cls-3" x="600" y="499.7" width="50" height="50"/>
          <rect class="cls-3" x="650" y="499.7" width="50" height="50"/>
          <rect class="cls-3" x="700" y="499.7" width="50" height="50"/>
          <rect class="cls-3" x="750" y="499.7" width="50" height="50"/>
          <rect class="cls-3" x="800" y="499.7" width="50" height="50"/>
          <rect class="cls-3" x="850" y="499.7" width="50" height="50"/>
          <rect class="cls-3" x="900" y="499.7" width="50" height="50"/>
          <rect class="cls-3" x="950" y="499.7" width="50" height="50"/>
          <rect class="cls-3" y="549.7" width="50" height="50"/>
          <rect class="cls-3" x="50" y="549.7" width="50" height="50"/>
          <rect class="cls-3" x="100" y="549.7" width="50" height="50"/>
          <rect class="cls-3" x="150" y="549.7" width="50" height="50"/>
          <rect class="cls-3" x="200" y="549.7" width="50" height="50"/>
          <rect class="cls-3" x="250" y="549.7" width="50" height="50"/>
          <rect class="cls-3" x="300" y="549.7" width="50" height="50"/>
          <rect class="cls-3" x="350" y="549.7" width="50" height="50"/>
          <rect class="cls-3" x="400" y="549.7" width="50" height="50"/>
          <rect class="cls-3" x="450" y="549.7" width="50" height="50"/>
          <rect class="cls-3" x="500" y="549.7" width="50" height="50"/>
          <rect class="cls-3" x="550" y="549.7" width="50" height="50"/>
          <rect class="cls-3" x="600" y="549.7" width="50" height="50"/>
          <rect class="cls-3" x="650" y="549.7" width="50" height="50"/>
          <rect class="cls-3" x="700" y="549.7" width="50" height="50"/>
          <rect class="cls-3" x="750" y="549.7" width="50" height="50"/>
          <rect class="cls-3" x="800" y="549.7" width="50" height="50"/>
          <rect class="cls-3" x="850" y="549.7" width="50" height="50"/>
          <rect class="cls-3" x="900" y="549.7" width="50" height="50"/>
          <rect class="cls-3" x="950" y="549.7" width="50" height="50"/>
          <rect class="cls-3" y="599.7" width="50" height="50"/>
          <rect class="cls-3" x="50" y="599.7" width="50" height="50"/>
          <rect class="cls-3" x="100" y="599.7" width="50" height="50"/>
          <rect class="cls-3" x="150" y="599.7" width="50" height="50"/>
          <rect class="cls-3" x="200" y="599.7" width="50" height="50"/>
          <rect class="cls-3" x="250" y="599.7" width="50" height="50"/>
          <rect class="cls-3" x="300" y="599.7" width="50" height="50"/>
          <rect class="cls-3" x="350" y="599.7" width="50" height="50"/>
          <rect class="cls-3" x="400" y="599.7" width="50" height="50"/>
          <rect class="cls-3" x="450" y="599.7" width="50" height="50"/>
          <rect class="cls-3" x="500" y="599.7" width="50" height="50"/>
          <rect class="cls-3" x="550" y="599.7" width="50" height="50"/>
          <rect class="cls-3" x="600" y="599.7" width="50" height="50"/>
          <rect class="cls-3" x="650" y="599.7" width="50" height="50"/>
          <rect class="cls-3" x="700" y="599.7" width="50" height="50"/>
          <rect class="cls-3" x="750" y="599.7" width="50" height="50"/>
          <rect class="cls-3" x="800" y="599.7" width="50" height="50"/>
          <rect class="cls-3" x="850" y="599.7" width="50" height="50"/>
          <rect class="cls-3" x="900" y="599.7" width="50" height="50"/>
          <rect class="cls-3" x="950" y="599.7" width="50" height="50"/>
          <rect class="cls-3" y="649.7" width="50" height="50"/>
          <rect class="cls-3" x="50" y="649.7" width="50" height="50"/>
          <rect class="cls-3" x="100" y="649.7" width="50" height="50"/>
          <rect class="cls-3" x="150" y="649.7" width="50" height="50"/>
          <rect class="cls-3" x="200" y="649.7" width="50" height="50"/>
          <rect class="cls-3" x="250" y="649.7" width="50" height="50"/>
          <rect class="cls-3" x="300" y="649.7" width="50" height="50"/>
          <rect class="cls-3" x="350" y="649.7" width="50" height="50"/>
          <rect class="cls-3" x="400" y="649.7" width="50" height="50"/>
          <rect class="cls-3" x="450" y="649.7" width="50" height="50"/>
          <rect class="cls-3" x="500" y="649.7" width="50" height="50"/>
          <rect class="cls-3" x="550" y="649.7" width="50" height="50"/>
          <rect class="cls-3" x="600" y="649.7" width="50" height="50"/>
          <rect class="cls-3" x="650" y="649.7" width="50" height="50"/>
          <rect class="cls-3" x="700" y="649.7" width="50" height="50"/>
          <rect class="cls-3" x="750" y="649.7" width="50" height="50"/>
          <rect class="cls-3" x="800" y="649.7" width="50" height="50"/>
          <rect class="cls-3" x="850" y="649.7" width="50" height="50"/>
          <rect class="cls-3" x="900" y="649.7" width="50" height="50"/>
          <rect class="cls-3" x="950" y="649.7" width="50" height="50"/>
          <rect class="cls-3" y="699.7" width="50" height="50"/>
          <rect class="cls-3" x="50" y="699.7" width="50" height="50"/>
          <rect class="cls-3" x="100" y="699.7" width="50" height="50"/>
          <rect class="cls-3" x="150" y="699.7" width="50" height="50"/>
          <rect class="cls-3" x="200" y="699.7" width="50" height="50"/>
          <rect class="cls-3" x="250" y="699.7" width="50" height="50"/>
          <rect class="cls-3" x="300" y="699.7" width="50" height="50"/>
          <rect class="cls-3" x="350" y="699.7" width="50" height="50"/>
          <rect class="cls-3" x="400" y="699.7" width="50" height="50"/>
          <rect class="cls-3" x="450" y="699.7" width="50" height="50"/>
          <rect class="cls-3" x="500" y="699.7" width="50" height="50"/>
          <rect class="cls-3" x="550" y="699.7" width="50" height="50"/>
          <rect class="cls-3" x="600" y="699.7" width="50" height="50"/>
          <rect class="cls-3" x="650" y="699.7" width="50" height="50"/>
          <rect class="cls-3" x="700" y="699.7" width="50" height="50"/>
          <rect class="cls-3" x="750" y="699.7" width="50" height="50"/>
          <rect class="cls-3" x="800" y="699.7" width="50" height="50"/>
          <rect class="cls-3" x="850" y="699.7" width="50" height="50"/>
          <rect class="cls-3" x="900" y="699.7" width="50" height="50"/>
          <rect class="cls-3" x="950" y="699.7" width="50" height="50"/>
          <rect class="cls-3" y="749.7" width="50" height="50"/>
          <rect class="cls-3" x="50" y="749.7" width="50" height="50"/>
          <rect class="cls-3" x="100" y="749.7" width="50" height="50"/>
          <rect class="cls-3" x="150" y="749.7" width="50" height="50"/>
          <rect class="cls-3" x="200" y="749.7" width="50" height="50"/>
          <rect class="cls-3" x="250" y="749.7" width="50" height="50"/>
          <rect class="cls-3" x="300" y="749.7" width="50" height="50"/>
          <rect class="cls-3" x="350" y="749.7" width="50" height="50"/>
          <rect class="cls-3" x="400" y="749.7" width="50" height="50"/>
          <rect class="cls-3" x="450" y="749.7" width="50" height="50"/>
          <rect class="cls-3" x="500" y="749.7" width="50" height="50"/>
          <rect class="cls-3" x="550" y="749.7" width="50" height="50"/>
          <rect class="cls-3" x="600" y="749.7" width="50" height="50"/>
          <rect class="cls-3" x="400" y="649.7" width="50" height="50"/>
          <rect class="cls-3" x="400" y="699.7" width="50" height="50"/>
          <rect class="cls-3" x="400" y="749.7" width="50" height="50"/>
          <rect class="cls-3" x="650" y="749.7" width="50" height="50"/>
          <rect class="cls-3" x="700" y="749.7" width="50" height="50"/>
          <rect class="cls-3" x="750" y="749.7" width="50" height="50"/>
          <rect class="cls-3" x="800" y="749.7" width="50" height="50"/>
          <rect class="cls-3" x="850" y="749.7" width="50" height="50"/>
          <rect class="cls-3" x="900" y="749.7" width="50" height="50"/>
          <rect class="cls-3" x="950" y="749.7" width="50" height="50"/>
          <rect class="cls-3" y="799.7" width="50" height="50"/>
          <rect class="cls-3" x="50" y="799.7" width="50" height="50"/>
          <rect class="cls-3" x="100" y="799.7" width="50" height="50"/>
          <rect class="cls-3" x="150" y="799.7" width="50" height="50"/>
          <rect class="cls-3" x="200" y="799.7" width="50" height="50"/>
          <rect class="cls-3" x="250" y="799.7" width="50" height="50"/>
          <rect class="cls-3" x="300" y="799.7" width="50" height="50"/>
          <rect class="cls-3" x="350" y="799.7" width="50" height="50"/>
          <rect class="cls-3" x="400" y="799.7" width="50" height="50"/>
          <rect class="cls-3" x="450" y="799.7" width="50" height="50"/>
          <rect class="cls-3" x="500" y="799.7" width="50" height="50"/>
          <rect class="cls-3" x="550" y="799.7" width="50" height="50"/>
          <rect class="cls-3" x="600" y="799.7" width="50" height="50"/>
          <rect class="cls-3" x="650" y="799.7" width="50" height="50"/>
          <rect class="cls-3" x="700" y="799.7" width="50" height="50"/>
          <rect class="cls-3" x="750" y="799.7" width="50" height="50"/>
          <rect class="cls-3" x="800" y="799.7" width="50" height="50"/>
          <rect class="cls-3" x="850" y="799.7" width="50" height="50"/>
          <rect class="cls-3" x="900" y="799.7" width="50" height="50"/>
          <rect class="cls-3" x="950" y="799.7" width="50" height="50"/>
          <rect class="cls-3" y="849.7" width="50" height="50"/>
          <rect class="cls-3" x="50" y="849.7" width="50" height="50"/>
          <rect class="cls-3" x="100" y="849.7" width="50" height="50"/>
          <rect class="cls-3" x="150" y="849.7" width="50" height="50"/>
          <rect class="cls-3" x="200" y="849.7" width="50" height="50"/>
          <rect class="cls-3" x="250" y="849.7" width="50" height="50"/>
          <rect class="cls-3" x="300" y="849.7" width="50" height="50"/>
          <rect class="cls-3" x="350" y="849.7" width="50" height="50"/>
          <rect class="cls-3" x="400" y="849.7" width="50" height="50"/>
          <rect class="cls-3" x="450" y="849.7" width="50" height="50"/>
          <rect class="cls-3" x="500" y="849.7" width="50" height="50"/>
          <rect class="cls-3" x="550" y="849.7" width="50" height="50"/>
          <rect class="cls-3" x="600" y="849.7" width="50" height="50"/>
          <rect class="cls-3" x="650" y="849.7" width="50" height="50"/>
          <rect class="cls-3" x="700" y="849.7" width="50" height="50"/>
          <rect class="cls-3" x="750" y="849.7" width="50" height="50"/>
          <rect class="cls-3" x="800" y="849.7" width="50" height="50"/>
          <rect class="cls-3" x="850" y="849.7" width="50" height="50"/>
          <rect class="cls-3" x="900" y="849.7" width="50" height="50"/>
          <rect class="cls-3" x="950" y="849.7" width="50" height="50"/>
          <rect class="cls-3" y="899.7" width="50" height="50"/>
          <rect class="cls-3" x="50" y="899.7" width="50" height="50"/>
          <rect class="cls-3" x="100" y="899.7" width="50" height="50"/>
          <rect class="cls-3" x="150" y="899.7" width="50" height="50"/>
          <rect class="cls-3" x="200" y="899.7" width="50" height="50"/>
          <rect class="cls-3" x="250" y="899.7" width="50" height="50"/>
          <rect class="cls-3" x="300" y="899.7" width="50" height="50"/>
          <rect class="cls-3" x="350" y="899.7" width="50" height="50"/>
          <rect class="cls-3" x="400" y="899.7" width="50" height="50"/>
          <rect class="cls-3" x="450" y="899.7" width="50" height="50"/>
          <rect class="cls-3" x="500" y="899.7" width="50" height="50"/>
          <rect class="cls-3" x="550" y="899.7" width="50" height="50"/>
          <rect class="cls-3" x="600" y="899.7" width="50" height="50"/>
          <rect class="cls-3" x="650" y="899.7" width="50" height="50"/>
          <rect class="cls-3" x="700" y="899.7" width="50" height="50"/>
          <rect class="cls-3" x="750" y="899.7" width="50" height="50"/>
          <rect class="cls-3" x="800" y="899.7" width="50" height="50"/>
          <rect class="cls-3" x="850" y="899.7" width="50" height="50"/>
          <rect class="cls-3" x="900" y="899.7" width="50" height="50"/>
          <rect class="cls-3" x="950" y="899.7" width="50" height="50"/>
          <rect class="cls-3" y="949.7" width="50" height="50"/>
          <rect class="cls-3" x="50" y="949.7" width="50" height="50"/>
          <rect class="cls-3" x="100" y="949.7" width="50" height="50"/>
          <rect class="cls-3" x="150" y="949.7" width="50" height="50"/>
          <rect class="cls-3" x="200" y="949.7" width="50" height="50"/>
          <rect class="cls-3" x="250" y="949.7" width="50" height="50"/>
          <rect class="cls-3" x="300" y="949.7" width="50" height="50"/>
          <rect class="cls-3" x="350" y="949.7" width="50" height="50"/>
          <rect class="cls-3" x="400" y="949.7" width="50" height="50"/>
          <rect class="cls-3" x="450" y="949.7" width="50" height="50"/>
          <rect class="cls-3" x="500" y="949.7" width="50" height="50"/>
          <rect class="cls-3" x="550" y="949.7" width="50" height="50"/>
          <rect class="cls-3" x="600" y="949.7" width="50" height="50"/>
          <rect class="cls-3" x="650" y="949.7" width="50" height="50"/>
          <rect class="cls-3" x="700" y="949.7" width="50" height="50"/>
          <rect class="cls-3" x="750" y="949.7" width="50" height="50"/>
          <rect class="cls-3" x="800" y="949.7" width="50" height="50"/>
          <rect class="cls-3" x="850" y="949.7" width="50" height="50"/>
          <rect class="cls-3" x="900" y="949.7" width="50" height="50"/>
          <rect class="cls-3" x="950" y="949.7" width="50" height="50"/>
        </g>
        <path class="cls-4" d="M634.7,704.8l-37-381.7-186.2,18,37,381.7c1.5,15.4-9.8,29.1-25.2,30.6l-381.7,37,18,186.2,381.7-37c118.1-11.4,204.8-116.8,193.4-234.9Z"/>
        <path class="cls-2" d="M154,122.7c-69.7,0-126.3,56.5-126.3,126.3s56.5,126.3,126.3,126.3,126.3-56.5,126.3-126.3-56.5-126.3-126.3-126.3Z"/>
        <rect class="cls-5" x="95" y="408.4" width="187.1" height="336.7" transform="translate(-309.2 229.7) rotate(-37)"/>
        <path class="cls-1" d="M879.5,642.7c5.3-40.9,42.9-69.9,83.9-64.5l24.1-185.5c-143.2-18.6-274.8,82.7-293.5,225.9l-43.4,333.9,185.5,24.1,43.4-333.9Z"/>
      </g>
    </g>
  </g>
</svg>