<?xml version="1.0" encoding="UTF-8"?>
<svg id="Layer_1" xmlns="http://www.w3.org/2000/svg" viewBox="0 0 600 119.35">
  <path d="M19.89,9.95c0,5.47-4.48,9.95-9.95,9.95S0,15.42,0,9.95,4.48,0,9.95,0s9.95,4.48,9.95,9.95ZM19.89,59.67c0,5.47-4.48,9.95-9.95,9.95S0,65.14,0,59.67s4.48-9.95,9.95-9.95,9.95,4.48,9.95,9.95ZM19.89,109.4c0,5.47-4.35,9.95-9.95,9.95S0,114.87,0,109.4s4.48-9.95,9.95-9.95,9.95,4.48,9.95,9.95ZM18.4,22.38v24.86H1.49v-24.86h16.91ZM18.4,72.11v24.86H1.49v-24.86h16.91ZM51.22,22.38c0-2.49-1.74-3.98-3.98-3.98h-24.86V1.49h24.86c13.43,0,20.89,7.46,20.89,20.89v24.86h-16.91v-24.86ZM51.22,72.11h16.91v24.86c0,13.43-7.46,20.89-20.89,20.89h-24.86v-16.91h24.86c2.49,0,3.98-1.49,3.98-3.98v-24.86ZM69.62,59.67c0,5.47-4.48,9.95-9.95,9.95s-9.95-4.48-9.95-9.95,4.48-9.95,9.95-9.95,9.95,4.48,9.95,9.95Z"/>
  <path d="M72.92,9.95C72.92,4.48,77.4,0,82.87,0s9.95,4.48,9.95,9.95-4.48,9.95-9.95,9.95-9.95-4.48-9.95-9.95ZM72.92,59.67c0-5.47,4.35-9.95,9.95-9.95s9.95,4.48,9.95,9.95-4.6,9.95-9.95,9.95-9.95-4.48-9.95-9.95ZM72.92,109.4c0-5.47,4.48-9.95,9.95-9.95s9.95,4.48,9.95,9.95-4.48,9.95-9.95,9.95-9.95-4.48-9.95-9.95ZM74.42,47.24v-24.86h16.91v24.86h-16.91ZM74.42,96.97v-24.86h16.91v24.86h-16.91ZM95.3,18.4V1.49h24.86v16.91h-24.86ZM95.3,117.86v-16.91h24.86v16.91h-24.86ZM122.65,9.95C122.65,4.48,127.13,0,132.6,0s9.95,4.48,9.95,9.95-4.48,9.95-9.95,9.95-9.95-4.48-9.95-9.95ZM122.65,59.67c0-5.47,4.48-9.95,9.95-9.95s9.95,4.48,9.95,9.95-4.48,9.95-9.95,9.95-9.95-4.48-9.95-9.95ZM122.65,109.4c0-5.47,4.48-9.95,9.95-9.95s9.95,4.48,9.95,9.95-4.48,9.95-9.95,9.95-9.95-4.48-9.95-9.95ZM124.14,47.24v-24.86h16.91v24.86h-16.91ZM124.14,96.97v-24.86h16.91v24.86h-16.91Z"/>
  <path d="M165.74,9.95c0,5.47-4.48,9.95-9.95,9.95s-9.95-4.48-9.95-9.95S150.32,0,155.79,0s9.95,4.48,9.95,9.95ZM168.23,18.4V1.49h24.86v16.91h-3.98v28.84h-16.91v-28.84h-3.98ZM190.6,59.67c0,5.47-4.48,9.95-9.95,9.95s-9.95-4.48-9.95-9.95,4.48-9.95,9.95-9.95,9.95,4.48,9.95,9.95ZM190.6,109.4c0,5.47-4.48,9.95-9.95,9.95s-9.95-4.48-9.95-9.95,4.48-9.95,9.95-9.95,9.95,4.48,9.95,9.95ZM189.11,72.11v24.86h-16.91v-24.86h16.91ZM215.47,9.95c0,5.47-4.48,9.95-9.95,9.95s-9.95-4.48-9.95-9.95S200.05,0,205.52,0s9.95,4.48,9.95,9.95Z"/>
  <path d="M265.19,9.95C265.19,4.48,269.67,0,275.14,0s9.95,4.48,9.95,9.95-4.48,9.95-9.95,9.95-9.95-4.48-9.95-9.95ZM265.19,59.67c0-5.47,4.35-9.95,9.95-9.95s9.95,4.48,9.95,9.95-4.6,9.95-9.95,9.95-9.95-4.48-9.95-9.95ZM265.19,109.4c0-5.47,4.48-9.95,9.95-9.95s9.95,4.48,9.95,9.95-4.48,9.95-9.95,9.95-9.95-4.48-9.95-9.95ZM266.68,96.97v-24.86h16.91v24.86h-16.91ZM287.57,18.4V1.49h24.86v16.91h-24.86ZM287.57,68.13v-16.91h24.86v16.91h-24.86ZM287.57,117.86v-16.91h24.86v16.91h-24.86ZM314.92,9.95C314.92,4.48,319.39,0,324.86,0s9.95,4.48,9.95,9.95-4.48,9.95-9.95,9.95-9.95-4.48-9.95-9.95ZM314.92,59.67c0-5.47,4.48-9.95,9.95-9.95s9.95,4.48,9.95,9.95-4.48,9.95-9.95,9.95-9.95-4.48-9.95-9.95ZM314.92,109.4c0-5.47,4.48-9.95,9.95-9.95s9.95,4.48,9.95,9.95-4.48,9.95-9.95,9.95-9.95-4.48-9.95-9.95ZM316.41,47.24v-24.86h16.91v24.86h-16.91Z"/>
  <path d="M404.42,9.95c0,5.47-4.48,9.95-9.95,9.95s-9.95-4.48-9.95-9.95S389.01,0,394.48,0s9.95,4.48,9.95,9.95ZM404.42,59.67c0,5.47-4.48,9.95-9.95,9.95s-9.95-4.48-9.95-9.95,4.48-9.95,9.95-9.95,9.95,4.48,9.95,9.95ZM404.42,109.4c0,5.47-4.35,9.95-9.95,9.95s-9.95-4.48-9.95-9.95,4.48-9.95,9.95-9.95,9.95,4.48,9.95,9.95ZM402.93,22.38v24.86h-16.91v-24.86h16.91ZM402.93,72.11v24.86h-16.91v-24.86h16.91ZM435.75,22.38c0-2.49-1.74-3.98-3.98-3.98h-24.86V1.49h24.86c13.43,0,20.89,7.46,20.89,20.89v24.86h-16.91v-24.86ZM435.75,72.11h16.91v24.86c0,13.43-7.46,20.89-20.89,20.89h-24.86v-16.91h24.86c2.49,0,3.98-1.49,3.98-3.98v-24.86ZM454.15,59.67c0,5.47-4.48,9.95-9.95,9.95s-9.95-4.48-9.95-9.95,4.48-9.95,9.95-9.95,9.95,4.48,9.95,9.95Z"/>
  <path d="M457.46,9.95C457.46,4.48,461.93,0,467.4,0s9.95,4.48,9.95,9.95-4.48,9.95-9.95,9.95-9.95-4.48-9.95-9.95ZM457.46,59.67c0-5.47,4.35-9.95,9.95-9.95s9.95,4.48,9.95,9.95-4.6,9.95-9.95,9.95-9.95-4.48-9.95-9.95ZM457.46,109.4c0-5.47,4.48-9.95,9.95-9.95s9.95,4.48,9.95,9.95-4.48,9.95-9.95,9.95-9.95-4.48-9.95-9.95ZM458.95,47.24v-24.86h16.91v24.86h-16.91ZM458.95,96.97v-24.86h16.91v24.86h-16.91ZM479.83,18.4V1.49h24.86v16.91h-24.86ZM479.83,117.86v-16.91h24.86v16.91h-24.86ZM507.19,9.95C507.19,4.48,511.66,0,517.13,0s9.95,4.48,9.95,9.95-4.48,9.95-9.95,9.95-9.95-4.48-9.95-9.95ZM507.19,59.67c0-5.47,4.48-9.95,9.95-9.95s9.95,4.48,9.95,9.95-4.48,9.95-9.95,9.95-9.95-4.48-9.95-9.95ZM507.19,109.4c0-5.47,4.48-9.95,9.95-9.95s9.95,4.48,9.95,9.95-4.48,9.95-9.95,9.95-9.95-4.48-9.95-9.95ZM508.68,47.24v-24.86h16.91v24.86h-16.91ZM508.68,96.97v-24.86h16.91v24.86h-16.91Z"/>
  <path d="M550.27,9.95c0,5.47-4.48,9.95-9.95,9.95s-9.95-4.48-9.95-9.95S534.86,0,540.33,0s9.95,4.48,9.95,9.95ZM552.76,18.4V1.49h24.86v16.91h-3.98v28.84h-16.91v-28.84h-3.98ZM575.14,59.67c0,5.47-4.48,9.95-9.95,9.95s-9.95-4.48-9.95-9.95,4.48-9.95,9.95-9.95,9.95,4.48,9.95,9.95ZM575.14,109.4c0,5.47-4.48,9.95-9.95,9.95s-9.95-4.48-9.95-9.95,4.48-9.95,9.95-9.95,9.95,4.48,9.95,9.95ZM573.64,72.11v24.86h-16.91v-24.86h16.91ZM600,9.95c0,5.47-4.48,9.95-9.95,9.95s-9.95-4.48-9.95-9.95S584.58,0,590.05,0s9.95,4.48,9.95,9.95Z"/>
</svg>