<?xml version="1.0" encoding="UTF-8"?>
<svg id="Layer_1" xmlns="http://www.w3.org/2000/svg" viewBox="0 0 600 233.97">
  <path d="M.26,48.84c.73-2.05,1.54-3.52,2.42-4.4l4.4-4.4-4.4-4.4c-.88-.88-1.69-2.34-2.42-4.4-.73-2.05.07-4.25,2.42-6.59,2.34-2.34,4.54-3.15,6.59-2.42,2.05.73,3.52,1.54,4.4,2.42l4.4,4.4,4.4-4.4c.88-.88,2.34-1.68,4.4-2.42,2.05-.73,4.24.08,6.59,2.42,2.34,2.35,3.15,4.55,2.42,6.59-.73,2.05-1.54,3.52-2.42,4.4l-4.4,4.4,4.4,4.4c.88.88,1.68,2.35,2.42,4.4.73,2.05-.08,4.25-2.42,6.59-2.35,2.35-4.55,3.15-6.59,2.42-2.05-.73-3.52-1.54-4.4-2.42l-4.4-4.4-4.4,4.4c-.88.88-2.35,1.69-4.4,2.42-2.05.73-4.25-.07-6.59-2.42-2.35-2.34-3.15-4.54-2.42-6.59ZM.26,136.77c.73-2.05,1.54-3.52,2.42-4.4l4.4-4.4-4.4-4.4c-.88-.88-1.69-2.34-2.42-4.4-.73-2.05.07-4.25,2.42-6.59,2.34-2.34,4.54-3.15,6.59-2.42,2.05.73,3.52,1.54,4.4,2.42l4.4,4.4,4.4-4.4c.88-.88,2.34-1.68,4.4-2.42,2.05-.73,4.24.08,6.59,2.42,2.34,2.35,3.15,4.55,2.42,6.59-.73,2.05-1.54,3.52-2.42,4.4l-4.4,4.4,4.4,4.4c.88.88,1.68,2.35,2.42,4.4.73,2.05-.08,4.25-2.42,6.59-2.35,2.35-4.55,3.15-6.59,2.42-2.05-.73-3.52-1.54-4.4-2.42l-4.4-4.4-4.4,4.4c-.88.88-2.35,1.69-4.4,2.42-2.05.73-4.25-.07-6.59-2.42-2.35-2.34-3.15-4.54-2.42-6.59ZM.26,224.7c.73-2.05,1.54-3.52,2.42-4.4l4.4-4.4-4.4-4.4c-.88-.88-1.69-2.34-2.42-4.4-.73-2.05.07-4.25,2.42-6.59s4.54-3.15,6.59-2.42c2.05.73,3.52,1.54,4.4,2.42l4.4,4.4,4.4-4.4c.88-.88,2.34-1.68,4.4-2.42,2.05-.73,4.24.08,6.59,2.42,2.34,2.35,3.15,4.55,2.42,6.59-.73,2.05-1.54,3.52-2.42,4.4l-4.4,4.4,4.4,4.4c.88.88,1.68,2.35,2.42,4.4.73,2.05-.08,4.24-2.42,6.59-2.35,2.34-4.55,3.15-6.59,2.42-2.05-.73-3.52-1.54-4.4-2.42l-4.4-4.4-4.4,4.4c-.88.88-2.35,1.68-4.4,2.42-2.05.73-4.25-.08-6.59-2.42-2.35-2.35-3.15-4.54-2.42-6.59ZM22.25,70.82c.73-2.05,1.54-3.52,2.42-4.4l4.4-4.4-4.4-4.4c-.88-.88-1.69-2.34-2.42-4.4-.73-2.05.07-4.25,2.42-6.59,2.34-2.34,4.54-3.15,6.6-2.42,2.05.73,3.52,1.54,4.4,2.42l4.4,4.4,4.4-4.4c.88-.88,2.34-1.68,4.4-2.42,2.05-.73,4.24.08,6.59,2.42,2.34,2.35,3.15,4.55,2.42,6.59-.74,2.05-1.54,3.52-2.42,4.4l-4.4,4.4,4.4,4.4c.88.88,1.68,2.35,2.42,4.4.73,2.05-.08,4.25-2.42,6.59-2.35,2.35-4.55,3.15-6.59,2.42-2.05-.73-3.52-1.54-4.4-2.42l-4.4-4.4-4.4,4.4c-.88.88-2.35,1.69-4.4,2.42-2.05.73-4.25-.07-6.6-2.42-2.35-2.34-3.15-4.54-2.42-6.59ZM22.25,92.81c.73-2.05,1.54-3.52,2.42-4.4l4.4-4.4-4.4-4.4c-.88-.88-1.69-2.34-2.42-4.4-.73-2.05.07-4.25,2.42-6.59,2.34-2.34,4.54-3.15,6.6-2.42,2.05.73,3.52,1.54,4.4,2.42l4.4,4.4,4.4-4.4c.88-.88,2.34-1.68,4.4-2.42,2.05-.73,4.24.08,6.59,2.42,2.34,2.35,3.15,4.55,2.42,6.59-.74,2.05-1.54,3.52-2.42,4.4l-4.4,4.4,4.4,4.4c.88.88,1.68,2.35,2.42,4.4.73,2.05-.08,4.25-2.42,6.59-2.35,2.35-4.55,3.15-6.59,2.42-2.05-.73-3.52-1.54-4.4-2.42l-4.4-4.4-4.4,4.4c-.88.88-2.35,1.69-4.4,2.42-2.05.73-4.25-.07-6.6-2.42-2.35-2.34-3.15-4.54-2.42-6.59ZM22.25,114.79c.73-2.05,1.54-3.52,2.42-4.4l4.4-4.4-4.4-4.4c-.88-.88-1.69-2.34-2.42-4.4-.73-2.05.07-4.25,2.42-6.59,2.34-2.34,4.54-3.15,6.6-2.42,2.05.74,3.52,1.54,4.4,2.42l4.4,4.4,4.4-4.4c.88-.88,2.34-1.68,4.4-2.42,2.05-.73,4.24.08,6.59,2.42,2.34,2.35,3.15,4.55,2.42,6.59-.74,2.05-1.54,3.52-2.42,4.4l-4.4,4.4,4.4,4.4c.88.88,1.68,2.35,2.42,4.4.73,2.05-.08,4.25-2.42,6.59s-4.55,3.15-6.59,2.42c-2.05-.73-3.52-1.54-4.4-2.42l-4.4-4.4-4.4,4.4c-.88.88-2.35,1.69-4.4,2.42-2.05.73-4.25-.07-6.6-2.42-2.35-2.34-3.15-4.54-2.42-6.59ZM22.25,158.75c.73-2.05,1.54-3.52,2.42-4.4l4.4-4.4-4.4-4.4c-.88-.88-1.69-2.34-2.42-4.4-.73-2.05.07-4.25,2.42-6.59,2.34-2.34,4.54-3.15,6.6-2.42,2.05.74,3.52,1.54,4.4,2.42l4.4,4.4,4.4-4.4c.88-.88,2.34-1.68,4.4-2.42,2.05-.73,4.24.08,6.59,2.42,2.34,2.35,3.15,4.55,2.42,6.59-.74,2.05-1.54,3.52-2.42,4.4l-4.4,4.4,4.4,4.4c.88.88,1.68,2.35,2.42,4.4.73,2.05-.08,4.25-2.42,6.59s-4.55,3.15-6.59,2.42c-2.05-.73-3.52-1.54-4.4-2.42l-4.4-4.4-4.4,4.4c-.88.88-2.35,1.69-4.4,2.42-2.05.73-4.25-.07-6.6-2.42-2.35-2.34-3.15-4.54-2.42-6.59ZM22.25,180.74c.73-2.05,1.54-3.52,2.42-4.4l4.4-4.4-4.4-4.4c-.88-.88-1.69-2.34-2.42-4.4-.73-2.05.07-4.25,2.42-6.59,2.34-2.34,4.54-3.15,6.6-2.42,2.05.73,3.52,1.54,4.4,2.42l4.4,4.4,4.4-4.4c.88-.88,2.34-1.68,4.4-2.42,2.05-.73,4.24.08,6.59,2.42,2.34,2.35,3.15,4.55,2.42,6.59-.74,2.05-1.54,3.52-2.42,4.4l-4.4,4.4,4.4,4.4c.88.88,1.68,2.35,2.42,4.4.73,2.05-.08,4.25-2.42,6.6-2.35,2.35-4.55,3.15-6.59,2.42-2.05-.73-3.52-1.54-4.4-2.42l-4.4-4.4-4.4,4.4c-.88.88-2.35,1.69-4.4,2.42-2.05.73-4.25-.07-6.6-2.42-2.35-2.34-3.15-4.54-2.42-6.6ZM22.25,202.72c.73-2.05,1.54-3.52,2.42-4.4l4.4-4.4-4.4-4.4c-.88-.88-1.69-2.34-2.42-4.4-.73-2.05.07-4.24,2.42-6.59,2.34-2.34,4.54-3.15,6.6-2.42,2.05.73,3.52,1.54,4.4,2.42l4.4,4.4,4.4-4.4c.88-.88,2.34-1.68,4.4-2.42,2.05-.73,4.24.08,6.59,2.42,2.34,2.35,3.15,4.55,2.42,6.59-.74,2.06-1.54,3.52-2.42,4.4l-4.4,4.4,4.4,4.4c.88.88,1.68,2.35,2.42,4.4.73,2.05-.08,4.25-2.42,6.59-2.35,2.35-4.55,3.15-6.59,2.42-2.05-.73-3.52-1.54-4.4-2.42l-4.4-4.4-4.4,4.4c-.88.88-2.35,1.69-4.4,2.42-2.05.73-4.25-.07-6.6-2.42-2.35-2.34-3.15-4.54-2.42-6.59ZM44.23,48.84c.73-2.05,1.54-3.52,2.42-4.4l4.4-4.4-4.4-4.4c-.88-.88-1.69-2.34-2.42-4.4-.73-2.05.07-4.25,2.42-6.59,2.34-2.34,4.54-3.15,6.59-2.42,2.05.73,3.52,1.54,4.4,2.42l4.4,4.4,4.4-4.4c.88-.88,2.34-1.68,4.4-2.42,2.05-.73,4.25.08,6.59,2.42,2.34,2.35,3.15,4.55,2.42,6.59-.73,2.05-1.54,3.52-2.42,4.4l-4.4,4.4,4.4,4.4c.88.88,1.68,2.35,2.42,4.4.73,2.05-.08,4.25-2.42,6.59-2.35,2.35-4.55,3.15-6.59,2.42-2.05-.73-3.52-1.54-4.4-2.42l-4.4-4.4-4.4,4.4c-.88.88-2.35,1.69-4.4,2.42-2.05.73-4.25-.07-6.59-2.42-2.35-2.34-3.15-4.54-2.42-6.59ZM44.23,136.77c.73-2.05,1.54-3.52,2.42-4.4l4.4-4.4-4.4-4.4c-.88-.88-1.69-2.34-2.42-4.4-.73-2.05.07-4.25,2.42-6.59,2.34-2.34,4.54-3.15,6.59-2.42,2.05.73,3.52,1.54,4.4,2.42l4.4,4.4,4.4-4.4c.88-.88,2.34-1.68,4.4-2.42,2.05-.73,4.25.08,6.59,2.42,2.34,2.35,3.15,4.55,2.42,6.59-.73,2.05-1.54,3.52-2.42,4.4l-4.4,4.4,4.4,4.4c.88.88,1.68,2.35,2.42,4.4.73,2.05-.08,4.25-2.42,6.59-2.35,2.35-4.55,3.15-6.59,2.42-2.05-.73-3.52-1.54-4.4-2.42l-4.4-4.4-4.4,4.4c-.88.88-2.35,1.69-4.4,2.42-2.05.73-4.25-.07-6.59-2.42-2.35-2.34-3.15-4.54-2.42-6.59ZM44.23,224.7c.73-2.05,1.54-3.52,2.42-4.4l4.4-4.4-4.4-4.4c-.88-.88-1.69-2.34-2.42-4.4-.73-2.05.07-4.25,2.42-6.59,2.34-2.34,4.54-3.15,6.59-2.42,2.05.73,3.52,1.54,4.4,2.42l4.4,4.4,4.4-4.4c.88-.88,2.34-1.68,4.4-2.42,2.05-.73,4.25.08,6.59,2.42,2.34,2.35,3.15,4.55,2.42,6.59-.73,2.05-1.54,3.52-2.42,4.4l-4.4,4.4,4.4,4.4c.88.88,1.68,2.35,2.42,4.4.73,2.05-.08,4.24-2.42,6.59-2.35,2.34-4.55,3.15-6.59,2.42-2.05-.73-3.52-1.54-4.4-2.42l-4.4-4.4-4.4,4.4c-.88.88-2.35,1.68-4.4,2.42-2.05.73-4.25-.08-6.59-2.42s-3.15-4.54-2.42-6.59ZM66.21,136.77c.73-2.05,1.54-3.52,2.42-4.4l4.4-4.4-4.4-4.4c-.88-.88-1.69-2.34-2.42-4.4-.73-2.05.07-4.25,2.42-6.59,2.34-2.34,4.54-3.15,6.59-2.42,2.05.73,3.52,1.54,4.4,2.42l4.4,4.4,4.4-4.4c.88-.88,2.34-1.68,4.4-2.42,2.05-.73,4.25.08,6.59,2.42,2.34,2.35,3.15,4.55,2.42,6.59-.73,2.05-1.54,3.52-2.42,4.4l-4.4,4.4,4.4,4.4c.88.88,1.68,2.35,2.42,4.4.73,2.05-.08,4.25-2.42,6.59-2.35,2.35-4.55,3.15-6.59,2.42-2.05-.73-3.52-1.54-4.4-2.42l-4.4-4.4-4.4,4.4c-.88.88-2.35,1.69-4.4,2.42-2.05.73-4.25-.07-6.59-2.42-2.35-2.34-3.15-4.54-2.42-6.59ZM88.19,114.79c.73-2.05,1.54-3.52,2.42-4.4l4.4-4.4-4.4-4.4c-.88-.88-1.69-2.34-2.42-4.4-.73-2.05.07-4.25,2.42-6.59,2.34-2.34,4.54-3.15,6.59-2.42,2.05.74,3.52,1.54,4.4,2.42l4.4,4.4,4.4-4.4c.88-.88,2.34-1.68,4.4-2.42,2.05-.73,4.24.08,6.59,2.42,2.34,2.35,3.15,4.55,2.42,6.59-.73,2.05-1.54,3.52-2.42,4.4l-4.4,4.4,4.4,4.4c.88.88,1.68,2.35,2.42,4.4.73,2.05-.08,4.25-2.42,6.59s-4.55,3.15-6.59,2.42c-2.05-.73-3.52-1.54-4.4-2.42l-4.4-4.4-4.4,4.4c-.88.88-2.35,1.69-4.4,2.42-2.05.73-4.25-.07-6.59-2.42-2.35-2.34-3.15-4.54-2.42-6.59ZM88.19,136.77c.73-2.05,1.54-3.52,2.42-4.4l4.4-4.4-4.4-4.4c-.88-.88-1.69-2.34-2.42-4.4-.73-2.05.07-4.25,2.42-6.59,2.34-2.34,4.54-3.15,6.59-2.42,2.05.73,3.52,1.54,4.4,2.42l4.4,4.4,4.4-4.4c.88-.88,2.34-1.68,4.4-2.42,2.05-.73,4.24.08,6.59,2.42,2.34,2.35,3.15,4.55,2.42,6.59-.73,2.05-1.54,3.52-2.42,4.4l-4.4,4.4,4.4,4.4c.88.88,1.68,2.35,2.42,4.4.73,2.05-.08,4.25-2.42,6.59-2.35,2.35-4.55,3.15-6.59,2.42-2.05-.73-3.52-1.54-4.4-2.42l-4.4-4.4-4.4,4.4c-.88.88-2.35,1.69-4.4,2.42-2.05.73-4.25-.07-6.59-2.42-2.35-2.34-3.15-4.54-2.42-6.59ZM110.18,48.84c.73-2.05,1.54-3.52,2.42-4.4l4.4-4.4-4.4-4.4c-.88-.88-1.69-2.34-2.42-4.4-.73-2.05.07-4.25,2.42-6.59,2.34-2.34,4.54-3.15,6.59-2.42,2.05.73,3.52,1.54,4.4,2.42l4.4,4.4,4.4-4.4c.88-.88,2.34-1.68,4.4-2.42,2.05-.73,4.24.08,6.59,2.42,2.34,2.35,3.15,4.55,2.42,6.59-.73,2.05-1.54,3.52-2.42,4.4l-4.4,4.4,4.4,4.4c.88.88,1.68,2.35,2.42,4.4.73,2.05-.08,4.25-2.42,6.59-2.35,2.35-4.55,3.15-6.59,2.42-2.05-.73-3.52-1.54-4.4-2.42l-4.4-4.4-4.4,4.4c-.88.88-2.35,1.69-4.4,2.42-2.05.73-4.25-.07-6.59-2.42-2.35-2.34-3.15-4.54-2.42-6.59ZM110.18,92.81c.73-2.05,1.54-3.52,2.42-4.4l4.4-4.4-4.4-4.4c-.88-.88-1.69-2.34-2.42-4.4-.73-2.05.07-4.25,2.42-6.59,2.34-2.34,4.54-3.15,6.59-2.42,2.05.73,3.52,1.54,4.4,2.42l4.4,4.4,4.4-4.4c.88-.88,2.34-1.68,4.4-2.42,2.05-.73,4.24.08,6.59,2.42,2.34,2.35,3.15,4.55,2.42,6.59-.73,2.05-1.54,3.52-2.42,4.4l-4.4,4.4,4.4,4.4c.88.88,1.68,2.35,2.42,4.4.73,2.05-.08,4.25-2.42,6.59-2.35,2.35-4.55,3.15-6.59,2.42-2.05-.73-3.52-1.54-4.4-2.42l-4.4-4.4-4.4,4.4c-.88.88-2.35,1.69-4.4,2.42-2.05.73-4.25-.07-6.59-2.42-2.35-2.34-3.15-4.54-2.42-6.59ZM110.18,158.75c.73-2.05,1.54-3.52,2.42-4.4l4.4-4.4-4.4-4.4c-.88-.88-1.69-2.34-2.42-4.4-.73-2.05.07-4.25,2.42-6.59,2.34-2.34,4.54-3.15,6.59-2.42,2.05.74,3.52,1.54,4.4,2.42l4.4,4.4,4.4-4.4c.88-.88,2.34-1.68,4.4-2.42,2.05-.73,4.24.08,6.59,2.42,2.34,2.35,3.15,4.55,2.42,6.59-.73,2.05-1.54,3.52-2.42,4.4l-4.4,4.4,4.4,4.4c.88.88,1.68,2.35,2.42,4.4.73,2.05-.08,4.25-2.42,6.59s-4.55,3.15-6.59,2.42c-2.05-.73-3.52-1.54-4.4-2.42l-4.4-4.4-4.4,4.4c-.88.88-2.35,1.69-4.4,2.42-2.05.73-4.25-.07-6.59-2.42-2.35-2.34-3.15-4.54-2.42-6.59ZM110.18,224.7c.73-2.05,1.54-3.52,2.42-4.4l4.4-4.4-4.4-4.4c-.88-.88-1.69-2.34-2.42-4.4-.73-2.05.07-4.25,2.42-6.59,2.34-2.34,4.54-3.15,6.59-2.42,2.05.73,3.52,1.54,4.4,2.42l4.4,4.4,4.4-4.4c.88-.88,2.34-1.68,4.4-2.42,2.05-.73,4.24.08,6.59,2.42,2.34,2.35,3.15,4.55,2.42,6.59-.73,2.05-1.54,3.52-2.42,4.4l-4.4,4.4,4.4,4.4c.88.88,1.68,2.35,2.42,4.4.73,2.05-.08,4.24-2.42,6.59-2.35,2.34-4.55,3.15-6.59,2.42-2.05-.73-3.52-1.54-4.4-2.42l-4.4-4.4-4.4,4.4c-.88.88-2.35,1.68-4.4,2.42-2.05.73-4.25-.08-6.59-2.42s-3.15-4.54-2.42-6.59ZM132.16,70.82c.73-2.05,1.54-3.52,2.42-4.4l4.4-4.4-4.4-4.4c-.88-.88-1.69-2.34-2.42-4.4-.73-2.05.07-4.25,2.42-6.59,2.34-2.34,4.54-3.15,6.59-2.42,2.05.73,3.52,1.54,4.4,2.42l4.4,4.4,4.4-4.4c.88-.88,2.34-1.68,4.4-2.42,2.05-.73,4.25.08,6.59,2.42,2.34,2.35,3.15,4.55,2.42,6.59-.73,2.05-1.54,3.52-2.42,4.4l-4.4,4.4,4.4,4.4c.88.88,1.68,2.35,2.42,4.4.73,2.05-.08,4.25-2.42,6.59-2.35,2.35-4.55,3.15-6.59,2.42-2.05-.73-3.52-1.54-4.4-2.42l-4.4-4.4-4.4,4.4c-.88.88-2.35,1.69-4.4,2.42-2.05.73-4.25-.07-6.59-2.42-2.35-2.34-3.15-4.54-2.42-6.59ZM132.16,180.74c.73-2.05,1.54-3.52,2.42-4.4l4.4-4.4-4.4-4.4c-.88-.88-1.69-2.34-2.42-4.4-.73-2.05.07-4.25,2.42-6.59,2.34-2.34,4.54-3.15,6.59-2.42,2.05.73,3.52,1.54,4.4,2.42l4.4,4.4,4.4-4.4c.88-.88,2.34-1.68,4.4-2.42,2.05-.73,4.25.08,6.59,2.42,2.34,2.35,3.15,4.55,2.42,6.59-.73,2.05-1.54,3.52-2.42,4.4l-4.4,4.4,4.4,4.4c.88.88,1.68,2.35,2.42,4.4.73,2.05-.08,4.25-2.42,6.6-2.35,2.35-4.55,3.15-6.59,2.42-2.05-.73-3.52-1.54-4.4-2.42l-4.4-4.4-4.4,4.4c-.88.88-2.35,1.69-4.4,2.42-2.05.73-4.25-.07-6.59-2.42-2.35-2.34-3.15-4.54-2.42-6.6ZM132.16,202.72c.73-2.05,1.54-3.52,2.42-4.4l4.4-4.4-4.4-4.4c-.88-.88-1.69-2.34-2.42-4.4-.73-2.05.07-4.24,2.42-6.59s4.54-3.15,6.59-2.42c2.05.73,3.52,1.54,4.4,2.42l4.4,4.4,4.4-4.4c.88-.88,2.34-1.68,4.4-2.42,2.05-.73,4.25.08,6.59,2.42,2.34,2.35,3.15,4.55,2.42,6.59-.73,2.06-1.54,3.52-2.42,4.4l-4.4,4.4,4.4,4.4c.88.88,1.68,2.35,2.42,4.4.73,2.05-.08,4.25-2.42,6.59s-4.55,3.15-6.59,2.42c-2.05-.73-3.52-1.54-4.4-2.42l-4.4-4.4-4.4,4.4c-.88.88-2.35,1.69-4.4,2.42-2.05.73-4.25-.07-6.59-2.42-2.35-2.34-3.15-4.54-2.42-6.59ZM154.14,48.84c.73-2.05,1.54-3.52,2.42-4.4l4.4-4.4-4.4-4.4c-.88-.88-1.69-2.34-2.42-4.4-.73-2.05.07-4.25,2.42-6.59,2.34-2.34,4.54-3.15,6.59-2.42,2.05.73,3.52,1.54,4.4,2.42l4.4,4.4,4.4-4.4c.88-.88,2.34-1.68,4.4-2.42,2.05-.73,4.25.08,6.59,2.42,2.34,2.35,3.15,4.55,2.42,6.59-.73,2.05-1.54,3.52-2.42,4.4l-4.4,4.4,4.4,4.4c.88.88,1.68,2.35,2.42,4.4.73,2.05-.08,4.25-2.42,6.59-2.35,2.35-4.55,3.15-6.59,2.42-2.05-.73-3.52-1.54-4.4-2.42l-4.4-4.4-4.4,4.4c-.88.88-2.35,1.69-4.4,2.42-2.05.73-4.25-.07-6.59-2.42-2.35-2.34-3.15-4.54-2.42-6.59ZM154.14,224.7c.73-2.05,1.54-3.52,2.42-4.4l4.4-4.4-4.4-4.4c-.88-.88-1.69-2.34-2.42-4.4-.73-2.05.07-4.25,2.42-6.59,2.34-2.34,4.54-3.15,6.59-2.42,2.05.73,3.52,1.54,4.4,2.42l4.4,4.4,4.4-4.4c.88-.88,2.34-1.68,4.4-2.42,2.05-.73,4.25.08,6.59,2.42,2.34,2.35,3.15,4.55,2.42,6.59-.73,2.05-1.54,3.52-2.42,4.4l-4.4,4.4,4.4,4.4c.88.88,1.68,2.35,2.42,4.4.73,2.05-.08,4.24-2.42,6.59-2.35,2.34-4.55,3.15-6.59,2.42-2.05-.73-3.52-1.54-4.4-2.42l-4.4-4.4-4.4,4.4c-.88.88-2.35,1.68-4.4,2.42-2.05.73-4.25-.08-6.59-2.42-2.35-2.35-3.15-4.54-2.42-6.59Z"/>
  <path d="M194.97,92.81c.73-2.05,1.54-3.52,2.42-4.4l4.4-4.4-4.4-4.4c-.88-.88-1.69-2.34-2.42-4.4-.73-2.05.07-4.25,2.42-6.59,2.34-2.34,4.54-3.15,6.59-2.42,2.05.73,3.52,1.54,4.4,2.42l4.4,4.4,4.4-4.4c.88-.88,2.34-1.68,4.4-2.42,2.05-.73,4.25.08,6.59,2.42,2.34,2.35,3.15,4.55,2.42,6.59-.73,2.05-1.54,3.52-2.42,4.4l-4.4,4.4,4.4,4.4c.88.88,1.68,2.35,2.42,4.4.73,2.05-.08,4.25-2.42,6.59-2.35,2.35-4.55,3.15-6.59,2.42-2.05-.73-3.52-1.54-4.4-2.42l-4.4-4.4-4.4,4.4c-.88.88-2.35,1.69-4.4,2.42-2.05.73-4.25-.07-6.59-2.42-2.35-2.34-3.15-4.54-2.42-6.59ZM216.95,26.86c.73-2.05,1.54-3.52,2.42-4.4l4.4-4.4-4.4-4.4c-.88-.88-1.69-2.34-2.42-4.4-.73-2.05.07-4.25,2.42-6.6,2.34-2.34,4.54-3.15,6.59-2.42,2.05.73,3.52,1.54,4.4,2.42l4.4,4.4,4.4-4.4c.88-.88,2.34-1.68,4.4-2.42,2.05-.73,4.24.08,6.59,2.42,2.34,2.35,3.15,4.55,2.42,6.6-.73,2.05-1.54,3.52-2.42,4.4l-4.4,4.4,4.4,4.4c.88.88,1.68,2.35,2.42,4.4.73,2.05-.08,4.25-2.42,6.59-2.35,2.35-4.55,3.15-6.59,2.42-2.05-.73-3.52-1.54-4.4-2.42l-4.4-4.4-4.4,4.4c-.88.88-2.35,1.69-4.4,2.42-2.05.74-4.25-.07-6.59-2.42-2.35-2.34-3.15-4.54-2.42-6.59ZM216.95,114.79c.73-2.05,1.54-3.52,2.42-4.4l4.4-4.4-4.4-4.4c-.88-.88-1.69-2.34-2.42-4.4-.73-2.05.07-4.25,2.42-6.59,2.34-2.34,4.54-3.15,6.59-2.42,2.05.74,3.52,1.54,4.4,2.42l4.4,4.4,4.4-4.4c.88-.88,2.34-1.68,4.4-2.42,2.05-.73,4.24.08,6.59,2.42,2.34,2.35,3.15,4.55,2.42,6.59-.73,2.05-1.54,3.52-2.42,4.4l-4.4,4.4,4.4,4.4c.88.88,1.68,2.35,2.42,4.4.73,2.05-.08,4.25-2.42,6.59s-4.55,3.15-6.59,2.42c-2.05-.73-3.52-1.54-4.4-2.42l-4.4-4.4-4.4,4.4c-.88.88-2.35,1.69-4.4,2.42-2.05.73-4.25-.07-6.59-2.42-2.35-2.34-3.15-4.54-2.42-6.59ZM216.95,136.77c.73-2.05,1.54-3.52,2.42-4.4l4.4-4.4-4.4-4.4c-.88-.88-1.69-2.34-2.42-4.4-.73-2.05.07-4.25,2.42-6.59,2.34-2.34,4.54-3.15,6.59-2.42,2.05.73,3.52,1.54,4.4,2.42l4.4,4.4,4.4-4.4c.88-.88,2.34-1.68,4.4-2.42,2.05-.73,4.24.08,6.59,2.42,2.34,2.35,3.15,4.55,2.42,6.59-.73,2.05-1.54,3.52-2.42,4.4l-4.4,4.4,4.4,4.4c.88.88,1.68,2.35,2.42,4.4.73,2.05-.08,4.25-2.42,6.59-2.35,2.35-4.55,3.15-6.59,2.42-2.05-.73-3.52-1.54-4.4-2.42l-4.4-4.4-4.4,4.4c-.88.88-2.35,1.69-4.4,2.42-2.05.73-4.25-.07-6.59-2.42-2.35-2.34-3.15-4.54-2.42-6.59ZM216.95,158.75c.73-2.05,1.54-3.52,2.42-4.4l4.4-4.4-4.4-4.4c-.88-.88-1.69-2.34-2.42-4.4-.73-2.05.07-4.25,2.42-6.59,2.34-2.34,4.54-3.15,6.59-2.42,2.05.74,3.52,1.54,4.4,2.42l4.4,4.4,4.4-4.4c.88-.88,2.34-1.68,4.4-2.42,2.05-.73,4.24.08,6.59,2.42,2.34,2.35,3.15,4.55,2.42,6.59-.73,2.05-1.54,3.52-2.42,4.4l-4.4,4.4,4.4,4.4c.88.88,1.68,2.35,2.42,4.4.73,2.05-.08,4.25-2.42,6.59s-4.55,3.15-6.59,2.42c-2.05-.73-3.52-1.54-4.4-2.42l-4.4-4.4-4.4,4.4c-.88.88-2.35,1.69-4.4,2.42-2.05.73-4.25-.07-6.59-2.42-2.35-2.34-3.15-4.54-2.42-6.59ZM216.95,180.74c.73-2.05,1.54-3.52,2.42-4.4l4.4-4.4-4.4-4.4c-.88-.88-1.69-2.34-2.42-4.4-.73-2.05.07-4.25,2.42-6.59,2.34-2.34,4.54-3.15,6.59-2.42,2.05.73,3.52,1.54,4.4,2.42l4.4,4.4,4.4-4.4c.88-.88,2.34-1.68,4.4-2.42,2.05-.73,4.24.08,6.59,2.42,2.34,2.35,3.15,4.55,2.42,6.59-.73,2.05-1.54,3.52-2.42,4.4l-4.4,4.4,4.4,4.4c.88.88,1.68,2.35,2.42,4.4.73,2.05-.08,4.25-2.42,6.6-2.35,2.35-4.55,3.15-6.59,2.42-2.05-.73-3.52-1.54-4.4-2.42l-4.4-4.4-4.4,4.4c-.88.88-2.35,1.69-4.4,2.42-2.05.73-4.25-.07-6.59-2.42-2.35-2.34-3.15-4.54-2.42-6.6ZM216.95,202.72c.73-2.05,1.54-3.52,2.42-4.4l4.4-4.4-4.4-4.4c-.88-.88-1.69-2.34-2.42-4.4-.73-2.05.07-4.24,2.42-6.59,2.34-2.34,4.54-3.15,6.59-2.42,2.05.73,3.52,1.54,4.4,2.42l4.4,4.4,4.4-4.4c.88-.88,2.34-1.68,4.4-2.42,2.05-.73,4.24.08,6.59,2.42,2.34,2.35,3.15,4.55,2.42,6.59-.73,2.06-1.54,3.52-2.42,4.4l-4.4,4.4,4.4,4.4c.88.88,1.68,2.35,2.42,4.4.73,2.05-.08,4.25-2.42,6.59-2.35,2.35-4.55,3.15-6.59,2.42-2.05-.73-3.52-1.54-4.4-2.42l-4.4-4.4-4.4,4.4c-.88.88-2.35,1.69-4.4,2.42-2.05.73-4.25-.07-6.59-2.42-2.35-2.34-3.15-4.54-2.42-6.59ZM238.93,92.81c.73-2.05,1.54-3.52,2.42-4.4l4.4-4.4-4.4-4.4c-.88-.88-1.69-2.34-2.42-4.4-.73-2.05.07-4.25,2.42-6.59,2.34-2.34,4.54-3.15,6.59-2.42,2.05.73,3.52,1.54,4.4,2.42l4.4,4.4,4.4-4.4c.88-.88,2.34-1.68,4.4-2.42,2.05-.73,4.24.08,6.59,2.42,2.34,2.35,3.15,4.55,2.42,6.59-.73,2.05-1.54,3.52-2.42,4.4l-4.4,4.4,4.4,4.4c.88.88,1.68,2.35,2.42,4.4.73,2.05-.08,4.25-2.42,6.59-2.35,2.35-4.55,3.15-6.59,2.42-2.05-.73-3.52-1.54-4.4-2.42l-4.4-4.4-4.4,4.4c-.88.88-2.35,1.69-4.4,2.42-2.05.73-4.25-.07-6.59-2.42-2.35-2.34-3.15-4.54-2.42-6.59ZM238.93,224.7c.73-2.05,1.54-3.52,2.42-4.4l4.4-4.4-4.4-4.4c-.88-.88-1.69-2.34-2.42-4.4-.73-2.05.07-4.25,2.42-6.59,2.34-2.34,4.54-3.15,6.59-2.42,2.05.73,3.52,1.54,4.4,2.42l4.4,4.4,4.4-4.4c.88-.88,2.34-1.68,4.4-2.42,2.05-.73,4.24.08,6.59,2.42,2.34,2.35,3.15,4.55,2.42,6.59-.73,2.05-1.54,3.52-2.42,4.4l-4.4,4.4,4.4,4.4c.88.88,1.68,2.35,2.42,4.4.73,2.05-.08,4.24-2.42,6.59-2.35,2.34-4.55,3.15-6.59,2.42-2.05-.73-3.52-1.54-4.4-2.42l-4.4-4.4-4.4,4.4c-.88.88-2.35,1.68-4.4,2.42-2.05.73-4.25-.08-6.59-2.42s-3.15-4.54-2.42-6.59ZM260.92,224.7c.73-2.05,1.54-3.52,2.42-4.4l4.4-4.4-4.4-4.4c-.88-.88-1.69-2.34-2.42-4.4-.73-2.05.07-4.25,2.42-6.59,2.34-2.34,4.54-3.15,6.59-2.42,2.05.73,3.52,1.54,4.4,2.42l4.4,4.4,4.4-4.4c.88-.88,2.34-1.68,4.4-2.42,2.05-.73,4.25.08,6.59,2.42,2.34,2.35,3.15,4.55,2.42,6.59-.73,2.05-1.54,3.52-2.42,4.4l-4.4,4.4,4.4,4.4c.88.88,1.68,2.35,2.42,4.4.73,2.05-.08,4.24-2.42,6.59-2.35,2.34-4.55,3.15-6.59,2.42-2.05-.73-3.52-1.54-4.4-2.42l-4.4-4.4-4.4,4.4c-.88.88-2.35,1.68-4.4,2.42-2.05.73-4.25-.08-6.59-2.42s-3.15-4.54-2.42-6.59ZM282.9,202.72c.73-2.05,1.54-3.52,2.42-4.4l4.4-4.4-4.4-4.4c-.88-.88-1.69-2.34-2.42-4.4-.74-2.05.07-4.24,2.42-6.59,2.34-2.34,4.54-3.15,6.59-2.42,2.05.73,3.52,1.54,4.4,2.42l4.4,4.4,4.4-4.4c.88-.88,2.34-1.68,4.4-2.42,2.05-.73,4.24.08,6.59,2.42,2.34,2.35,3.15,4.55,2.42,6.59-.73,2.06-1.54,3.52-2.42,4.4l-4.4,4.4,4.4,4.4c.88.88,1.68,2.35,2.42,4.4.73,2.05-.08,4.25-2.42,6.59-2.35,2.35-4.55,3.15-6.59,2.42-2.05-.73-3.52-1.54-4.4-2.42l-4.4-4.4-4.4,4.4c-.88.88-2.35,1.69-4.4,2.42-2.05.73-4.25-.07-6.59-2.42-2.35-2.34-3.15-4.54-2.42-6.59Z"/>
  <path d="M313.65,26.86c.73-2.05,1.54-3.52,2.42-4.4l4.4-4.4-4.4-4.4c-.88-.88-1.69-2.34-2.42-4.4-.73-2.05.07-4.25,2.42-6.6,2.34-2.34,4.54-3.15,6.59-2.42,2.05.73,3.52,1.54,4.4,2.42l4.4,4.4,4.4-4.4c.88-.88,2.34-1.68,4.4-2.42,2.05-.73,4.25.08,6.59,2.42,2.34,2.35,3.15,4.55,2.42,6.6-.73,2.05-1.54,3.52-2.42,4.4l-4.4,4.4,4.4,4.4c.88.88,1.68,2.35,2.42,4.4.73,2.05-.08,4.25-2.42,6.59-2.35,2.35-4.55,3.15-6.59,2.42-2.05-.73-3.52-1.54-4.4-2.42l-4.4-4.4-4.4,4.4c-.88.88-2.35,1.69-4.4,2.42-2.05.74-4.25-.07-6.59-2.42-2.35-2.34-3.15-4.54-2.42-6.59ZM335.63,48.84c.73-2.05,1.54-3.52,2.42-4.4l4.4-4.4-4.4-4.4c-.88-.88-1.69-2.34-2.42-4.4-.73-2.05.07-4.25,2.42-6.59,2.34-2.34,4.54-3.15,6.59-2.42,2.05.73,3.52,1.54,4.4,2.42l4.4,4.4,4.4-4.4c.88-.88,2.34-1.68,4.4-2.42,2.05-.73,4.24.08,6.59,2.42,2.34,2.35,3.15,4.55,2.42,6.59-.73,2.05-1.54,3.52-2.42,4.4l-4.4,4.4,4.4,4.4c.88.88,1.68,2.35,2.42,4.4.73,2.05-.08,4.25-2.42,6.59-2.35,2.35-4.55,3.15-6.59,2.42-2.05-.73-3.52-1.54-4.4-2.42l-4.4-4.4-4.4,4.4c-.88.88-2.35,1.69-4.4,2.42-2.05.73-4.25-.07-6.59-2.42-2.35-2.34-3.15-4.54-2.42-6.59ZM335.63,70.82c.73-2.05,1.54-3.52,2.42-4.4l4.4-4.4-4.4-4.4c-.88-.88-1.69-2.34-2.42-4.4-.73-2.05.07-4.25,2.42-6.59,2.34-2.34,4.54-3.15,6.59-2.42,2.05.73,3.52,1.54,4.4,2.42l4.4,4.4,4.4-4.4c.88-.88,2.34-1.68,4.4-2.42,2.05-.73,4.24.08,6.59,2.42,2.34,2.35,3.15,4.55,2.42,6.59-.73,2.05-1.54,3.52-2.42,4.4l-4.4,4.4,4.4,4.4c.88.88,1.68,2.35,2.42,4.4.73,2.05-.08,4.25-2.42,6.59-2.35,2.35-4.55,3.15-6.59,2.42-2.05-.73-3.52-1.54-4.4-2.42l-4.4-4.4-4.4,4.4c-.88.88-2.35,1.69-4.4,2.42-2.05.73-4.25-.07-6.59-2.42-2.35-2.34-3.15-4.54-2.42-6.59ZM335.63,92.81c.73-2.05,1.54-3.52,2.42-4.4l4.4-4.4-4.4-4.4c-.88-.88-1.69-2.34-2.42-4.4-.73-2.05.07-4.25,2.42-6.59,2.34-2.34,4.54-3.15,6.59-2.42,2.05.73,3.52,1.54,4.4,2.42l4.4,4.4,4.4-4.4c.88-.88,2.34-1.68,4.4-2.42,2.05-.73,4.24.08,6.59,2.42,2.34,2.35,3.15,4.55,2.42,6.59-.73,2.05-1.54,3.52-2.42,4.4l-4.4,4.4,4.4,4.4c.88.88,1.68,2.35,2.42,4.4.73,2.05-.08,4.25-2.42,6.59-2.35,2.35-4.55,3.15-6.59,2.42-2.05-.73-3.52-1.54-4.4-2.42l-4.4-4.4-4.4,4.4c-.88.88-2.35,1.69-4.4,2.42-2.05.73-4.25-.07-6.59-2.42-2.35-2.34-3.15-4.54-2.42-6.59ZM335.63,114.79c.73-2.05,1.54-3.52,2.42-4.4l4.4-4.4-4.4-4.4c-.88-.88-1.69-2.34-2.42-4.4-.73-2.05.07-4.25,2.42-6.59,2.34-2.34,4.54-3.15,6.59-2.42,2.05.74,3.52,1.54,4.4,2.42l4.4,4.4,4.4-4.4c.88-.88,2.34-1.68,4.4-2.42,2.05-.73,4.24.08,6.59,2.42,2.34,2.35,3.15,4.55,2.42,6.59-.73,2.05-1.54,3.52-2.42,4.4l-4.4,4.4,4.4,4.4c.88.88,1.68,2.35,2.42,4.4.73,2.05-.08,4.25-2.42,6.59s-4.55,3.15-6.59,2.42c-2.05-.73-3.52-1.54-4.4-2.42l-4.4-4.4-4.4,4.4c-.88.88-2.35,1.69-4.4,2.42-2.05.73-4.25-.07-6.59-2.42-2.35-2.34-3.15-4.54-2.42-6.59ZM335.63,136.77c.73-2.05,1.54-3.52,2.42-4.4l4.4-4.4-4.4-4.4c-.88-.88-1.69-2.34-2.42-4.4-.73-2.05.07-4.25,2.42-6.59,2.34-2.34,4.54-3.15,6.59-2.42,2.05.73,3.52,1.54,4.4,2.42l4.4,4.4,4.4-4.4c.88-.88,2.34-1.68,4.4-2.42,2.05-.73,4.24.08,6.59,2.42,2.34,2.35,3.15,4.55,2.42,6.59-.73,2.05-1.54,3.52-2.42,4.4l-4.4,4.4,4.4,4.4c.88.88,1.68,2.35,2.42,4.4.73,2.05-.08,4.25-2.42,6.59-2.35,2.35-4.55,3.15-6.59,2.42-2.05-.73-3.52-1.54-4.4-2.42l-4.4-4.4-4.4,4.4c-.88.88-2.35,1.69-4.4,2.42-2.05.73-4.25-.07-6.59-2.42-2.35-2.34-3.15-4.54-2.42-6.59ZM335.63,158.75c.73-2.05,1.54-3.52,2.42-4.4l4.4-4.4-4.4-4.4c-.88-.88-1.69-2.34-2.42-4.4-.73-2.05.07-4.25,2.42-6.59,2.34-2.34,4.54-3.15,6.59-2.42,2.05.74,3.52,1.54,4.4,2.42l4.4,4.4,4.4-4.4c.88-.88,2.34-1.68,4.4-2.42,2.05-.73,4.24.08,6.59,2.42,2.34,2.35,3.15,4.55,2.42,6.59-.73,2.05-1.54,3.52-2.42,4.4l-4.4,4.4,4.4,4.4c.88.88,1.68,2.35,2.42,4.4.73,2.05-.08,4.25-2.42,6.59s-4.55,3.15-6.59,2.42c-2.05-.73-3.52-1.54-4.4-2.42l-4.4-4.4-4.4,4.4c-.88.88-2.35,1.69-4.4,2.42-2.05.73-4.25-.07-6.59-2.42-2.35-2.34-3.15-4.54-2.42-6.59ZM335.63,180.74c.73-2.05,1.54-3.52,2.42-4.4l4.4-4.4-4.4-4.4c-.88-.88-1.69-2.34-2.42-4.4-.73-2.05.07-4.25,2.42-6.59,2.34-2.34,4.54-3.15,6.59-2.42,2.05.73,3.52,1.54,4.4,2.42l4.4,4.4,4.4-4.4c.88-.88,2.34-1.68,4.4-2.42,2.05-.73,4.24.08,6.59,2.42,2.34,2.35,3.15,4.55,2.42,6.59-.73,2.05-1.54,3.52-2.42,4.4l-4.4,4.4,4.4,4.4c.88.88,1.68,2.35,2.42,4.4.73,2.05-.08,4.25-2.42,6.6-2.35,2.35-4.55,3.15-6.59,2.42-2.05-.73-3.52-1.54-4.4-2.42l-4.4-4.4-4.4,4.4c-.88.88-2.35,1.69-4.4,2.42-2.05.73-4.25-.07-6.59-2.42-2.35-2.34-3.15-4.54-2.42-6.6ZM335.63,202.72c.73-2.05,1.54-3.52,2.42-4.4l4.4-4.4-4.4-4.4c-.88-.88-1.69-2.34-2.42-4.4-.73-2.05.07-4.24,2.42-6.59,2.34-2.34,4.54-3.15,6.59-2.42,2.05.73,3.52,1.54,4.4,2.42l4.4,4.4,4.4-4.4c.88-.88,2.34-1.68,4.4-2.42,2.05-.73,4.24.08,6.59,2.42,2.34,2.35,3.15,4.55,2.42,6.59-.73,2.06-1.54,3.52-2.42,4.4l-4.4,4.4,4.4,4.4c.88.88,1.68,2.35,2.42,4.4.73,2.05-.08,4.25-2.42,6.59-2.35,2.35-4.55,3.15-6.59,2.42-2.05-.73-3.52-1.54-4.4-2.42l-4.4-4.4-4.4,4.4c-.88.88-2.35,1.69-4.4,2.42-2.05.73-4.25-.07-6.59-2.42-2.35-2.34-3.15-4.54-2.42-6.59ZM357.62,26.86c.73-2.05,1.54-3.52,2.42-4.4l4.4-4.4-4.4-4.4c-.88-.88-1.69-2.34-2.42-4.4-.73-2.05.07-4.25,2.42-6.6,2.34-2.34,4.54-3.15,6.59-2.42,2.05.73,3.52,1.54,4.4,2.42l4.4,4.4,4.4-4.4c.88-.88,2.34-1.68,4.4-2.42,2.05-.73,4.24.08,6.59,2.42,2.34,2.35,3.15,4.55,2.42,6.6-.73,2.05-1.54,3.52-2.42,4.4l-4.4,4.4,4.4,4.4c.88.88,1.68,2.35,2.42,4.4.73,2.05-.08,4.25-2.42,6.59-2.35,2.35-4.55,3.15-6.59,2.42-2.05-.73-3.52-1.54-4.4-2.42l-4.4-4.4-4.4,4.4c-.88.88-2.35,1.69-4.4,2.42-2.05.74-4.25-.07-6.59-2.42-2.35-2.34-3.15-4.54-2.42-6.59ZM357.62,224.7c.73-2.05,1.54-3.52,2.42-4.4l4.4-4.4-4.4-4.4c-.88-.88-1.69-2.34-2.42-4.4-.73-2.05.07-4.25,2.42-6.59,2.34-2.34,4.54-3.15,6.59-2.42,2.05.73,3.52,1.54,4.4,2.42l4.4,4.4,4.4-4.4c.88-.88,2.34-1.68,4.4-2.42,2.05-.73,4.24.08,6.59,2.42,2.34,2.35,3.15,4.55,2.42,6.59-.73,2.05-1.54,3.52-2.42,4.4l-4.4,4.4,4.4,4.4c.88.88,1.68,2.35,2.42,4.4.73,2.05-.08,4.24-2.42,6.59-2.35,2.34-4.55,3.15-6.59,2.42-2.05-.73-3.52-1.54-4.4-2.42l-4.4-4.4-4.4,4.4c-.88.88-2.35,1.68-4.4,2.42-2.05.73-4.25-.08-6.59-2.42s-3.15-4.54-2.42-6.59ZM379.6,224.7c.73-2.05,1.54-3.52,2.42-4.4l4.4-4.4-4.4-4.4c-.88-.88-1.69-2.34-2.42-4.4-.73-2.05.07-4.25,2.42-6.59,2.34-2.34,4.54-3.15,6.59-2.42,2.05.73,3.52,1.54,4.4,2.42l4.4,4.4,4.4-4.4c.88-.88,2.34-1.68,4.4-2.42,2.05-.73,4.25.08,6.59,2.42,2.34,2.35,3.15,4.55,2.42,6.59-.73,2.05-1.54,3.52-2.42,4.4l-4.4,4.4,4.4,4.4c.88.88,1.68,2.35,2.42,4.4.73,2.05-.08,4.24-2.42,6.59-2.35,2.34-4.55,3.15-6.59,2.42-2.05-.73-3.52-1.54-4.4-2.42l-4.4-4.4-4.4,4.4c-.88.88-2.35,1.68-4.4,2.42-2.05.73-4.25-.08-6.59-2.42s-3.15-4.54-2.42-6.59ZM401.58,224.7c.73-2.05,1.54-3.52,2.42-4.4l4.4-4.4-4.4-4.4c-.88-.88-1.69-2.34-2.42-4.4-.74-2.05.07-4.25,2.42-6.59s4.54-3.15,6.59-2.42c2.05.73,3.52,1.54,4.4,2.42l4.4,4.4,4.4-4.4c.88-.88,2.34-1.68,4.4-2.42,2.05-.73,4.24.08,6.59,2.42,2.34,2.35,3.15,4.55,2.42,6.59-.73,2.05-1.54,3.52-2.42,4.4l-4.4,4.4,4.4,4.4c.88.88,1.68,2.35,2.42,4.4.73,2.05-.08,4.24-2.42,6.59-2.35,2.34-4.55,3.15-6.59,2.42-2.05-.73-3.52-1.54-4.4-2.42l-4.4-4.4-4.4,4.4c-.88.88-2.35,1.68-4.4,2.42-2.05.73-4.25-.08-6.59-2.42-2.35-2.35-3.15-4.54-2.42-6.59ZM423.56,202.72c.73-2.05,1.54-3.52,2.42-4.4l4.4-4.4-4.4-4.4c-.88-.88-1.69-2.34-2.42-4.4-.73-2.05.07-4.24,2.42-6.59,2.34-2.34,4.54-3.15,6.6-2.42,2.05.73,3.52,1.54,4.4,2.42l4.4,4.4,4.4-4.4c.88-.88,2.34-1.68,4.4-2.42,2.05-.73,4.24.08,6.59,2.42,2.34,2.35,3.15,4.55,2.42,6.59-.73,2.06-1.54,3.52-2.42,4.4l-4.4,4.4,4.4,4.4c.88.88,1.68,2.35,2.42,4.4.73,2.05-.08,4.25-2.42,6.59-2.35,2.35-4.55,3.15-6.59,2.42-2.05-.73-3.52-1.54-4.4-2.42l-4.4-4.4-4.4,4.4c-.88.88-2.35,1.69-4.4,2.42-2.05.73-4.25-.07-6.6-2.42-2.35-2.34-3.15-4.54-2.42-6.59Z"/>
  <path d="M454.22,26.86c.73-2.05,1.54-3.52,2.42-4.4l4.4-4.4-4.4-4.4c-.88-.88-1.69-2.34-2.42-4.4-.73-2.05.07-4.25,2.42-6.6,2.34-2.34,4.54-3.15,6.59-2.42,2.05.73,3.52,1.54,4.4,2.42l4.4,4.4,4.4-4.4c.88-.88,2.34-1.68,4.4-2.42,2.05-.73,4.25.08,6.59,2.42,2.34,2.35,3.15,4.55,2.42,6.6-.73,2.05-1.54,3.52-2.42,4.4l-4.4,4.4,4.4,4.4c.88.88,1.68,2.35,2.42,4.4.73,2.05-.08,4.25-2.42,6.59-2.35,2.35-4.55,3.15-6.59,2.42-2.05-.73-3.52-1.54-4.4-2.42l-4.4-4.4-4.4,4.4c-.88.88-2.35,1.69-4.4,2.42-2.05.74-4.25-.07-6.59-2.42-2.35-2.34-3.15-4.54-2.42-6.59ZM454.22,92.81c.73-2.05,1.54-3.52,2.42-4.4l4.4-4.4-4.4-4.4c-.88-.88-1.69-2.34-2.42-4.4-.73-2.05.07-4.25,2.42-6.59,2.34-2.34,4.54-3.15,6.59-2.42,2.05.73,3.52,1.54,4.4,2.42l4.4,4.4,4.4-4.4c.88-.88,2.34-1.68,4.4-2.42,2.05-.73,4.25.08,6.59,2.42,2.34,2.35,3.15,4.55,2.42,6.59-.73,2.05-1.54,3.52-2.42,4.4l-4.4,4.4,4.4,4.4c.88.88,1.68,2.35,2.42,4.4.73,2.05-.08,4.25-2.42,6.59-2.35,2.35-4.55,3.15-6.59,2.42-2.05-.73-3.52-1.54-4.4-2.42l-4.4-4.4-4.4,4.4c-.88.88-2.35,1.69-4.4,2.42-2.05.73-4.25-.07-6.59-2.42-2.35-2.34-3.15-4.54-2.42-6.59ZM476.2,48.84c.73-2.05,1.54-3.52,2.42-4.4l4.4-4.4-4.4-4.4c-.88-.88-1.69-2.34-2.42-4.4-.73-2.05.07-4.25,2.42-6.59,2.34-2.34,4.54-3.15,6.59-2.42,2.05.73,3.52,1.54,4.4,2.42l4.4,4.4,4.4-4.4c.88-.88,2.34-1.68,4.4-2.42,2.05-.73,4.24.08,6.59,2.42,2.34,2.35,3.15,4.55,2.42,6.59-.73,2.05-1.54,3.52-2.42,4.4l-4.4,4.4,4.4,4.4c.88.88,1.68,2.35,2.42,4.4.73,2.05-.08,4.25-2.42,6.59-2.35,2.35-4.55,3.15-6.59,2.42-2.05-.73-3.52-1.54-4.4-2.42l-4.4-4.4-4.4,4.4c-.88.88-2.35,1.69-4.4,2.42-2.05.73-4.25-.07-6.59-2.42-2.35-2.34-3.15-4.54-2.42-6.59ZM476.2,70.82c.73-2.05,1.54-3.52,2.42-4.4l4.4-4.4-4.4-4.4c-.88-.88-1.69-2.34-2.42-4.4-.73-2.05.07-4.25,2.42-6.59,2.34-2.34,4.54-3.15,6.59-2.42,2.05.73,3.52,1.54,4.4,2.42l4.4,4.4,4.4-4.4c.88-.88,2.34-1.68,4.4-2.42,2.05-.73,4.24.08,6.59,2.42,2.34,2.35,3.15,4.55,2.42,6.59-.73,2.05-1.54,3.52-2.42,4.4l-4.4,4.4,4.4,4.4c.88.88,1.68,2.35,2.42,4.4.73,2.05-.08,4.25-2.42,6.59-2.35,2.35-4.55,3.15-6.59,2.42-2.05-.73-3.52-1.54-4.4-2.42l-4.4-4.4-4.4,4.4c-.88.88-2.35,1.69-4.4,2.42-2.05.73-4.25-.07-6.59-2.42-2.35-2.34-3.15-4.54-2.42-6.59ZM476.2,114.79c.73-2.05,1.54-3.52,2.42-4.4l4.4-4.4-4.4-4.4c-.88-.88-1.69-2.34-2.42-4.4-.73-2.05.07-4.25,2.42-6.59,2.34-2.34,4.54-3.15,6.59-2.42,2.05.74,3.52,1.54,4.4,2.42l4.4,4.4,4.4-4.4c.88-.88,2.34-1.68,4.4-2.42,2.05-.73,4.24.08,6.59,2.42,2.34,2.35,3.15,4.55,2.42,6.59-.73,2.05-1.54,3.52-2.42,4.4l-4.4,4.4,4.4,4.4c.88.88,1.68,2.35,2.42,4.4.73,2.05-.08,4.25-2.42,6.59s-4.55,3.15-6.59,2.42c-2.05-.73-3.52-1.54-4.4-2.42l-4.4-4.4-4.4,4.4c-.88.88-2.35,1.69-4.4,2.42-2.05.73-4.25-.07-6.59-2.42-2.35-2.34-3.15-4.54-2.42-6.59ZM476.2,136.77c.73-2.05,1.54-3.52,2.42-4.4l4.4-4.4-4.4-4.4c-.88-.88-1.69-2.34-2.42-4.4-.73-2.05.07-4.25,2.42-6.59,2.34-2.34,4.54-3.15,6.59-2.42,2.05.73,3.52,1.54,4.4,2.42l4.4,4.4,4.4-4.4c.88-.88,2.34-1.68,4.4-2.42,2.05-.73,4.24.08,6.59,2.42,2.34,2.35,3.15,4.55,2.42,6.59-.73,2.05-1.54,3.52-2.42,4.4l-4.4,4.4,4.4,4.4c.88.88,1.68,2.35,2.42,4.4.73,2.05-.08,4.25-2.42,6.59-2.35,2.35-4.55,3.15-6.59,2.42-2.05-.73-3.52-1.54-4.4-2.42l-4.4-4.4-4.4,4.4c-.88.88-2.35,1.69-4.4,2.42-2.05.73-4.25-.07-6.59-2.42-2.35-2.34-3.15-4.54-2.42-6.59ZM476.2,158.75c.73-2.05,1.54-3.52,2.42-4.4l4.4-4.4-4.4-4.4c-.88-.88-1.69-2.34-2.42-4.4-.73-2.05.07-4.25,2.42-6.59,2.34-2.34,4.54-3.15,6.59-2.42,2.05.74,3.52,1.54,4.4,2.42l4.4,4.4,4.4-4.4c.88-.88,2.34-1.68,4.4-2.42,2.05-.73,4.24.08,6.59,2.42,2.34,2.35,3.15,4.55,2.42,6.59-.73,2.05-1.54,3.52-2.42,4.4l-4.4,4.4,4.4,4.4c.88.88,1.68,2.35,2.42,4.4.73,2.05-.08,4.25-2.42,6.59s-4.55,3.15-6.59,2.42c-2.05-.73-3.52-1.54-4.4-2.42l-4.4-4.4-4.4,4.4c-.88.88-2.35,1.69-4.4,2.42-2.05.73-4.25-.07-6.59-2.42-2.35-2.34-3.15-4.54-2.42-6.59ZM476.2,180.74c.73-2.05,1.54-3.52,2.42-4.4l4.4-4.4-4.4-4.4c-.88-.88-1.69-2.34-2.42-4.4-.73-2.05.07-4.25,2.42-6.59,2.34-2.34,4.54-3.15,6.59-2.42,2.05.73,3.52,1.54,4.4,2.42l4.4,4.4,4.4-4.4c.88-.88,2.34-1.68,4.4-2.42,2.05-.73,4.24.08,6.59,2.42,2.34,2.35,3.15,4.55,2.42,6.59-.73,2.05-1.54,3.52-2.42,4.4l-4.4,4.4,4.4,4.4c.88.88,1.68,2.35,2.42,4.4.73,2.05-.08,4.25-2.42,6.6-2.35,2.35-4.55,3.15-6.59,2.42-2.05-.73-3.52-1.54-4.4-2.42l-4.4-4.4-4.4,4.4c-.88.88-2.35,1.69-4.4,2.42-2.05.73-4.25-.07-6.59-2.42-2.35-2.34-3.15-4.54-2.42-6.6ZM476.2,202.72c.73-2.05,1.54-3.52,2.42-4.4l4.4-4.4-4.4-4.4c-.88-.88-1.69-2.34-2.42-4.4-.73-2.05.07-4.24,2.42-6.59,2.34-2.34,4.54-3.15,6.59-2.42,2.05.73,3.52,1.54,4.4,2.42l4.4,4.4,4.4-4.4c.88-.88,2.34-1.68,4.4-2.42,2.05-.73,4.24.08,6.59,2.42,2.34,2.35,3.15,4.55,2.42,6.59-.73,2.06-1.54,3.52-2.42,4.4l-4.4,4.4,4.4,4.4c.88.88,1.68,2.35,2.42,4.4.73,2.05-.08,4.25-2.42,6.59-2.35,2.35-4.55,3.15-6.59,2.42-2.05-.73-3.52-1.54-4.4-2.42l-4.4-4.4-4.4,4.4c-.88.88-2.35,1.69-4.4,2.42-2.05.73-4.25-.07-6.59-2.42-2.35-2.34-3.15-4.54-2.42-6.59ZM498.18,26.86c.73-2.05,1.54-3.52,2.42-4.4l4.4-4.4-4.4-4.4c-.88-.88-1.69-2.34-2.42-4.4-.73-2.05.07-4.25,2.42-6.6s4.54-3.15,6.59-2.42c2.05.73,3.52,1.54,4.4,2.42l4.4,4.4,4.4-4.4c.88-.88,2.34-1.68,4.4-2.42,2.05-.73,4.24.08,6.59,2.42,2.34,2.35,3.15,4.55,2.42,6.6-.73,2.05-1.54,3.52-2.42,4.4l-4.4,4.4,4.4,4.4c.88.88,1.68,2.35,2.42,4.4.73,2.05-.08,4.25-2.42,6.59-2.35,2.35-4.55,3.15-6.59,2.42-2.05-.73-3.52-1.54-4.4-2.42l-4.4-4.4-4.4,4.4c-.88.88-2.35,1.69-4.4,2.42-2.05.74-4.25-.07-6.59-2.42-2.35-2.34-3.15-4.54-2.42-6.59ZM498.18,92.81c.73-2.05,1.54-3.52,2.42-4.4l4.4-4.4-4.4-4.4c-.88-.88-1.69-2.34-2.42-4.4-.73-2.05.07-4.25,2.42-6.59,2.34-2.34,4.54-3.15,6.59-2.42,2.05.73,3.52,1.54,4.4,2.42l4.4,4.4,4.4-4.4c.88-.88,2.34-1.68,4.4-2.42,2.05-.73,4.24.08,6.59,2.42,2.34,2.35,3.15,4.55,2.42,6.59-.73,2.05-1.54,3.52-2.42,4.4l-4.4,4.4,4.4,4.4c.88.88,1.68,2.35,2.42,4.4.73,2.05-.08,4.25-2.42,6.59-2.35,2.35-4.55,3.15-6.59,2.42-2.05-.73-3.52-1.54-4.4-2.42l-4.4-4.4-4.4,4.4c-.88.88-2.35,1.69-4.4,2.42-2.05.73-4.25-.07-6.59-2.42-2.35-2.34-3.15-4.54-2.42-6.59ZM498.18,224.7c.73-2.05,1.54-3.52,2.42-4.4l4.4-4.4-4.4-4.4c-.88-.88-1.69-2.34-2.42-4.4-.73-2.05.07-4.25,2.42-6.59,2.34-2.34,4.54-3.15,6.59-2.42,2.05.73,3.52,1.54,4.4,2.42l4.4,4.4,4.4-4.4c.88-.88,2.34-1.68,4.4-2.42,2.05-.73,4.24.08,6.59,2.42,2.34,2.35,3.15,4.55,2.42,6.59-.73,2.05-1.54,3.52-2.42,4.4l-4.4,4.4,4.4,4.4c.88.88,1.68,2.35,2.42,4.4.73,2.05-.08,4.24-2.42,6.59-2.35,2.34-4.55,3.15-6.59,2.42-2.05-.73-3.52-1.54-4.4-2.42l-4.4-4.4-4.4,4.4c-.88.88-2.35,1.68-4.4,2.42-2.05.73-4.25-.08-6.59-2.42s-3.15-4.54-2.42-6.59ZM520.16,92.81c.73-2.05,1.54-3.52,2.42-4.4l4.4-4.4-4.4-4.4c-.88-.88-1.69-2.34-2.42-4.4-.73-2.05.07-4.25,2.42-6.59,2.34-2.34,4.54-3.15,6.59-2.42,2.05.73,3.52,1.54,4.4,2.42l4.4,4.4,4.4-4.4c.88-.88,2.34-1.68,4.4-2.42,2.05-.73,4.25.08,6.59,2.42,2.34,2.35,3.15,4.55,2.42,6.59-.73,2.05-1.54,3.52-2.42,4.4l-4.4,4.4,4.4,4.4c.88.88,1.68,2.35,2.42,4.4.73,2.05-.08,4.25-2.42,6.59-2.35,2.35-4.55,3.15-6.59,2.42-2.05-.73-3.52-1.54-4.4-2.42l-4.4-4.4-4.4,4.4c-.88.88-2.35,1.69-4.4,2.42-2.05.73-4.25-.07-6.59-2.42-2.35-2.34-3.15-4.54-2.42-6.59ZM520.16,224.7c.73-2.05,1.54-3.52,2.42-4.4l4.4-4.4-4.4-4.4c-.88-.88-1.69-2.34-2.42-4.4-.73-2.05.07-4.25,2.42-6.59,2.34-2.34,4.54-3.15,6.59-2.42,2.05.73,3.52,1.54,4.4,2.42l4.4,4.4,4.4-4.4c.88-.88,2.34-1.68,4.4-2.42,2.05-.73,4.25.08,6.59,2.42,2.34,2.35,3.15,4.55,2.42,6.59-.73,2.05-1.54,3.52-2.42,4.4l-4.4,4.4,4.4,4.4c.88.88,1.68,2.35,2.42,4.4.73,2.05-.08,4.24-2.42,6.59-2.35,2.34-4.55,3.15-6.59,2.42-2.05-.73-3.52-1.54-4.4-2.42l-4.4-4.4-4.4,4.4c-.88.88-2.35,1.68-4.4,2.42-2.05.73-4.25-.08-6.59-2.42s-3.15-4.54-2.42-6.59ZM542.15,92.81c.73-2.05,1.54-3.52,2.42-4.4l4.4-4.4-4.4-4.4c-.88-.88-1.69-2.34-2.42-4.4-.74-2.05.07-4.25,2.42-6.59,2.34-2.34,4.54-3.15,6.59-2.42,2.05.73,3.52,1.54,4.4,2.42l4.4,4.4,4.4-4.4c.88-.88,2.34-1.68,4.4-2.42,2.05-.73,4.24.08,6.59,2.42,2.34,2.35,3.15,4.55,2.42,6.59-.73,2.05-1.54,3.52-2.42,4.4l-4.4,4.4,4.4,4.4c.88.88,1.68,2.35,2.42,4.4.73,2.05-.08,4.25-2.42,6.59-2.35,2.35-4.55,3.15-6.59,2.42-2.05-.73-3.52-1.54-4.4-2.42l-4.4-4.4-4.4,4.4c-.88.88-2.35,1.69-4.4,2.42-2.05.73-4.25-.07-6.59-2.42-2.35-2.34-3.15-4.54-2.42-6.59ZM542.15,224.7c.73-2.05,1.54-3.52,2.42-4.4l4.4-4.4-4.4-4.4c-.88-.88-1.69-2.34-2.42-4.4-.74-2.05.07-4.25,2.42-6.59,2.34-2.34,4.54-3.15,6.59-2.42,2.05.73,3.52,1.54,4.4,2.42l4.4,4.4,4.4-4.4c.88-.88,2.34-1.68,4.4-2.42,2.05-.73,4.24.08,6.59,2.42,2.34,2.35,3.15,4.55,2.42,6.59-.73,2.05-1.54,3.52-2.42,4.4l-4.4,4.4,4.4,4.4c.88.88,1.68,2.35,2.42,4.4.73,2.05-.08,4.24-2.42,6.59-2.35,2.34-4.55,3.15-6.59,2.42-2.05-.73-3.52-1.54-4.4-2.42l-4.4-4.4-4.4,4.4c-.88.88-2.35,1.68-4.4,2.42-2.05.73-4.25-.08-6.59-2.42-2.35-2.35-3.15-4.54-2.42-6.59ZM564.13,202.72c.73-2.05,1.54-3.52,2.42-4.4l4.4-4.4-4.4-4.4c-.88-.88-1.69-2.34-2.42-4.4-.73-2.05.07-4.24,2.42-6.59,2.34-2.34,4.54-3.15,6.6-2.42,2.05.73,3.52,1.54,4.4,2.42l4.4,4.4,4.4-4.4c.88-.88,2.34-1.68,4.4-2.42,2.05-.73,4.24.08,6.59,2.42,2.34,2.35,3.15,4.55,2.42,6.59-.73,2.06-1.54,3.52-2.42,4.4l-4.4,4.4,4.4,4.4c.88.88,1.68,2.35,2.42,4.4.73,2.05-.08,4.25-2.42,6.59-2.35,2.35-4.55,3.15-6.59,2.42-2.05-.73-3.52-1.54-4.4-2.42l-4.4-4.4-4.4,4.4c-.88.88-2.35,1.69-4.4,2.42-2.05.73-4.25-.07-6.6-2.42-2.35-2.34-3.15-4.54-2.42-6.59Z"/>
</svg>