<?xml version="1.0" encoding="UTF-8"?>
<svg id="Layer_1" xmlns="http://www.w3.org/2000/svg" viewBox="0 0 600 155.45">
  <path d="M107.82,8.78c-.58-.24-1.08-.58-1.51-1.01-.37-.37-.67-.84-.91-1.42-.24-.58-.37-1.17-.37-1.78s.12-1.2.37-1.78c.24-.58.58-1.08,1.01-1.51.43-.37.91-.67,1.46-.91.55-.24,1.13-.37,1.74-.37s1.19.11,1.74.32c.55.21,1.04.53,1.46.96.43.43.76.93,1.01,1.51.24.58.37,1.17.37,1.78,0,.67-.12,1.3-.37,1.87-.24.58-.61,1.08-1.1,1.51-.43.37-.9.66-1.42.87-.52.21-1.08.32-1.69.32s-1.2-.12-1.78-.37ZM107.82,36.21c-.58-.24-1.08-.58-1.51-1.01-.37-.37-.67-.84-.91-1.42-.24-.58-.37-1.17-.37-1.78s.12-1.2.37-1.78c.24-.58.58-1.08,1.01-1.51.43-.37.91-.67,1.46-.91.55-.24,1.13-.37,1.74-.37s1.19.11,1.74.32c.55.21,1.04.53,1.46.96.43.43.76.93,1.01,1.51.24.58.37,1.17.37,1.78,0,.67-.12,1.3-.37,1.87-.24.58-.61,1.08-1.1,1.51-.43.37-.9.66-1.42.87-.52.21-1.08.32-1.69.32s-1.2-.12-1.78-.37ZM107.82,63.64c-.58-.24-1.08-.58-1.51-1.01-.37-.37-.67-.84-.91-1.42-.24-.58-.37-1.17-.37-1.78s.12-1.2.37-1.78c.24-.58.58-1.08,1.01-1.51.43-.37.91-.67,1.46-.91.55-.24,1.13-.37,1.74-.37s1.19.11,1.74.32c.55.21,1.04.53,1.46.96.43.43.76.93,1.01,1.51.24.58.37,1.17.37,1.78,0,.67-.12,1.3-.37,1.87-.24.58-.61,1.08-1.1,1.51-.43.37-.9.66-1.42.87-.52.21-1.08.32-1.69.32s-1.2-.12-1.78-.37ZM115.41,10.38c.82-.82,1.94-1.23,3.34-1.23s2.44.41,3.29,1.23c.85.82,1.28,1.94,1.28,3.34v9.14c0,1.34-.43,2.44-1.28,3.29-.85.85-1.95,1.28-3.29,1.28s-2.51-.43-3.34-1.28c-.82-.85-1.23-1.95-1.23-3.29v-9.14c0-1.4.41-2.51,1.23-3.34ZM115.41,37.81c.82-.82,1.94-1.23,3.34-1.23s2.44.41,3.29,1.23c.85.82,1.28,1.94,1.28,3.34v9.14c0,1.34-.43,2.44-1.28,3.29-.85.85-1.95,1.28-3.29,1.28s-2.51-.43-3.34-1.28c-.82-.85-1.23-1.95-1.23-3.29v-9.14c0-1.4.41-2.51,1.23-3.34ZM149.52,1.23c.82.82,1.23,1.94,1.23,3.34s-.41,2.44-1.23,3.29c-.82.85-1.94,1.28-3.34,1.28h-18.29c-1.34,0-2.44-.43-3.29-1.28-.85-.85-1.28-1.95-1.28-3.29s.43-2.51,1.28-3.34c.85-.82,1.95-1.23,3.29-1.23h18.29c1.4,0,2.51.41,3.34,1.23ZM149.52,28.67c.82.82,1.23,1.94,1.23,3.34s-.41,2.44-1.23,3.29c-.82.85-1.94,1.28-3.34,1.28h-18.29c-1.34,0-2.44-.43-3.29-1.28-.85-.85-1.28-1.95-1.28-3.29s.43-2.51,1.28-3.34c.85-.82,1.95-1.23,3.29-1.23h18.29c1.4,0,2.51.41,3.34,1.23ZM126.11,63.64c-.58-.24-1.08-.58-1.51-1.01-.37-.37-.67-.84-.91-1.42-.24-.58-.37-1.17-.37-1.78s.12-1.2.37-1.78c.24-.58.58-1.08,1.01-1.51.43-.37.91-.67,1.46-.91.55-.24,1.13-.37,1.74-.37s1.19.11,1.74.32c.55.21,1.04.53,1.46.96.43.43.76.93,1.01,1.51.24.58.37,1.17.37,1.78,0,.67-.12,1.3-.37,1.87-.24.58-.61,1.08-1.1,1.51-.43.37-.9.66-1.42.87-.52.21-1.08.32-1.69.32s-1.2-.12-1.78-.37ZM151.99,10.38c.82-.82,1.94-1.23,3.34-1.23s2.44.41,3.29,1.23c.85.82,1.28,1.94,1.28,3.34v9.14c0,1.34-.43,2.44-1.28,3.29-.85.85-1.95,1.28-3.29,1.28s-2.51-.43-3.34-1.28c-.82-.85-1.23-1.95-1.23-3.29v-9.14c0-1.4.41-2.51,1.23-3.34Z"/>
  <path d="M175.14,44.49c-.82.82-1.94,1.23-3.34,1.23s-2.44-.41-3.29-1.23c-.85-.82-1.28-1.93-1.28-3.34v-18.29c0-1.34.43-2.44,1.28-3.29s1.95-1.28,3.29-1.28,2.51.43,3.34,1.28c.82.85,1.23,1.95,1.23,3.29v18.29c0,1.4-.41,2.51-1.23,3.34ZM179.16,17.92c-.58-.24-1.08-.58-1.51-1.01-.37-.37-.67-.84-.91-1.42-.24-.58-.37-1.17-.37-1.78s.12-1.2.37-1.78c.24-.58.58-1.08,1.01-1.51.43-.37.91-.67,1.46-.91.55-.24,1.13-.37,1.74-.37s1.19.11,1.74.32c.55.21,1.04.53,1.46.96.43.43.76.93,1.01,1.51.24.58.37,1.17.37,1.78,0,.67-.12,1.3-.37,1.87-.24.58-.61,1.08-1.1,1.51-.43.37-.9.66-1.42.87-.52.21-1.08.32-1.69.32s-1.2-.12-1.78-.37ZM179.16,54.5c-.58-.24-1.08-.58-1.51-1.01-.37-.37-.67-.84-.91-1.42-.24-.58-.37-1.17-.37-1.78s.12-1.2.37-1.78c.24-.58.58-1.08,1.01-1.51.43-.37.91-.67,1.46-.91.55-.24,1.13-.37,1.74-.37s1.19.11,1.74.32c.55.21,1.04.53,1.46.96.43.43.76.93,1.01,1.51.24.58.37,1.17.37,1.78,0,.67-.12,1.3-.37,1.87-.24.58-.61,1.08-1.1,1.51-.43.37-.9.66-1.42.87-.52.21-1.08.32-1.69.32s-1.2-.12-1.78-.37ZM211.72,1.23c.82.82,1.23,1.94,1.23,3.34s-.41,2.44-1.23,3.29c-.82.85-1.94,1.28-3.34,1.28h-18.29c-1.34,0-2.44-.43-3.29-1.28-.85-.85-1.28-1.95-1.28-3.29s.43-2.51,1.28-3.34c.85-.82,1.95-1.23,3.29-1.23h18.29c1.4,0,2.51.41,3.34,1.23ZM211.72,56.1c.82.82,1.23,1.94,1.23,3.34s-.41,2.44-1.23,3.29c-.82.85-1.94,1.28-3.34,1.28h-18.29c-1.34,0-2.44-.43-3.29-1.28-.85-.85-1.28-1.95-1.28-3.29s.43-2.51,1.28-3.34c.85-.82,1.95-1.23,3.29-1.23h18.29c1.4,0,2.51.41,3.34,1.23ZM215.74,17.92c-.58-.24-1.08-.58-1.51-1.01-.37-.37-.67-.84-.91-1.42-.24-.58-.37-1.17-.37-1.78s.12-1.2.37-1.78c.24-.58.58-1.08,1.01-1.51.43-.37.91-.67,1.46-.91.55-.24,1.13-.37,1.74-.37s1.19.11,1.74.32c.55.21,1.04.53,1.46.96.43.43.76.93,1.01,1.51.24.58.37,1.17.37,1.78,0,.67-.12,1.3-.37,1.87-.24.58-.61,1.08-1.1,1.51-.43.37-.9.66-1.42.87-.52.21-1.08.32-1.69.32s-1.2-.12-1.78-.37ZM215.74,54.5c-.58-.24-1.08-.58-1.51-1.01-.37-.37-.67-.84-.91-1.42-.24-.58-.37-1.17-.37-1.78s.12-1.2.37-1.78c.24-.58.58-1.08,1.01-1.51.43-.37.91-.67,1.46-.91.55-.24,1.13-.37,1.74-.37s1.19.11,1.74.32c.55.21,1.04.53,1.46.96.43.43.76.93,1.01,1.51.24.58.37,1.17.37,1.78,0,.67-.12,1.3-.37,1.87-.24.58-.61,1.08-1.1,1.51-.43.37-.9.66-1.42.87-.52.21-1.08.32-1.69.32s-1.2-.12-1.78-.37ZM230,44.49c-.82.82-1.94,1.23-3.34,1.23s-2.44-.41-3.29-1.23c-.85-.82-1.28-1.93-1.28-3.34v-18.29c0-1.34.43-2.44,1.28-3.29s1.95-1.28,3.29-1.28,2.51.43,3.34,1.28c.82.85,1.23,1.95,1.23,3.29v18.29c0,1.4-.41,2.51-1.23,3.34Z"/>
  <path d="M246.48,44.49c-.82.82-1.94,1.23-3.34,1.23s-2.44-.41-3.29-1.23c-.85-.82-1.28-1.93-1.28-3.34v-18.29c0-1.34.43-2.44,1.28-3.29s1.95-1.28,3.29-1.28,2.51.43,3.34,1.28c.82.85,1.23,1.95,1.23,3.29v18.29c0,1.4-.41,2.51-1.23,3.34ZM250.5,17.92c-.58-.24-1.08-.58-1.51-1.01-.37-.37-.67-.84-.91-1.42-.24-.58-.37-1.17-.37-1.78s.12-1.2.37-1.78c.24-.58.58-1.08,1.01-1.51.43-.37.91-.67,1.46-.91.55-.24,1.13-.37,1.74-.37s1.19.11,1.74.32c.55.21,1.04.53,1.46.96.43.43.76.93,1.01,1.51.24.58.37,1.17.37,1.78,0,.67-.12,1.3-.37,1.87-.24.58-.61,1.08-1.1,1.51-.43.37-.9.66-1.42.87-.52.21-1.08.32-1.69.32s-1.2-.12-1.78-.37ZM250.5,54.5c-.58-.24-1.08-.58-1.51-1.01-.37-.37-.67-.84-.91-1.42-.24-.58-.37-1.17-.37-1.78s.12-1.2.37-1.78c.24-.58.58-1.08,1.01-1.51.43-.37.91-.67,1.46-.91.55-.24,1.13-.37,1.74-.37s1.19.11,1.74.32c.55.21,1.04.53,1.46.96.43.43.76.93,1.01,1.51.24.58.37,1.17.37,1.78,0,.67-.12,1.3-.37,1.87-.24.58-.61,1.08-1.1,1.51-.43.37-.9.66-1.42.87-.52.21-1.08.32-1.69.32s-1.2-.12-1.78-.37ZM283.06,1.23c.82.82,1.23,1.94,1.23,3.34s-.41,2.44-1.23,3.29c-.82.85-1.94,1.28-3.34,1.28h-18.29c-1.34,0-2.44-.43-3.29-1.28-.85-.85-1.28-1.95-1.28-3.29s.43-2.51,1.28-3.34c.85-.82,1.95-1.23,3.29-1.23h18.29c1.4,0,2.51.41,3.34,1.23ZM283.06,56.1c.82.82,1.23,1.94,1.23,3.34s-.41,2.44-1.23,3.29c-.82.85-1.94,1.28-3.34,1.28h-18.29c-1.34,0-2.44-.43-3.29-1.28-.85-.85-1.28-1.95-1.28-3.29s.43-2.51,1.28-3.34c.85-.82,1.95-1.23,3.29-1.23h18.29c1.4,0,2.51.41,3.34,1.23ZM287.08,17.92c-.58-.24-1.08-.58-1.51-1.01-.37-.37-.67-.84-.91-1.42-.24-.58-.37-1.17-.37-1.78s.12-1.2.37-1.78c.24-.58.58-1.08,1.01-1.51.43-.37.91-.67,1.46-.91.55-.24,1.13-.37,1.74-.37s1.19.11,1.74.32c.55.21,1.04.53,1.46.96.43.43.76.93,1.01,1.51.24.58.37,1.17.37,1.78,0,.67-.12,1.3-.37,1.87-.24.58-.61,1.08-1.1,1.51-.43.37-.9.66-1.42.87-.52.21-1.08.32-1.69.32s-1.2-.12-1.78-.37ZM287.08,54.5c-.58-.24-1.08-.58-1.51-1.01-.37-.37-.67-.84-.91-1.42-.24-.58-.37-1.17-.37-1.78s.12-1.2.37-1.78c.24-.58.58-1.08,1.01-1.51.43-.37.91-.67,1.46-.91.55-.24,1.13-.37,1.74-.37s1.19.11,1.74.32c.55.21,1.04.53,1.46.96.43.43.76.93,1.01,1.51.24.58.37,1.17.37,1.78,0,.67-.12,1.3-.37,1.87-.24.58-.61,1.08-1.1,1.51-.43.37-.9.66-1.42.87-.52.21-1.08.32-1.69.32s-1.2-.12-1.78-.37Z"/>
  <path d="M302.07,8.78c-.58-.24-1.08-.58-1.51-1.01-.37-.37-.67-.84-.91-1.42-.24-.58-.37-1.17-.37-1.78s.12-1.2.37-1.78c.24-.58.58-1.08,1.01-1.51.43-.37.91-.67,1.46-.91.55-.24,1.13-.37,1.74-.37s1.19.11,1.74.32c.55.21,1.04.53,1.46.96.43.43.76.93,1.01,1.51.24.58.37,1.17.37,1.78,0,.67-.12,1.3-.37,1.87-.24.58-.61,1.08-1.1,1.51-.43.37-.9.66-1.42.87-.52.21-1.08.32-1.69.32s-1.2-.12-1.78-.37ZM302.07,36.21c-.58-.24-1.08-.58-1.51-1.01-.37-.37-.67-.84-.91-1.42-.24-.58-.37-1.17-.37-1.78s.12-1.2.37-1.78c.24-.58.58-1.08,1.01-1.51.43-.37.91-.67,1.46-.91.55-.24,1.13-.37,1.74-.37s1.19.11,1.74.32c.55.21,1.04.53,1.46.96.43.43.76.93,1.01,1.51.24.58.37,1.17.37,1.78,0,.67-.12,1.3-.37,1.87-.24.58-.61,1.08-1.1,1.51-.43.37-.9.66-1.42.87-.52.21-1.08.32-1.69.32s-1.2-.12-1.78-.37ZM302.07,63.64c-.58-.24-1.08-.58-1.51-1.01-.37-.37-.67-.84-.91-1.42-.24-.58-.37-1.17-.37-1.78s.12-1.2.37-1.78c.24-.58.58-1.08,1.01-1.51.43-.37.91-.67,1.46-.91.55-.24,1.13-.37,1.74-.37s1.19.11,1.74.32c.55.21,1.04.53,1.46.96.43.43.76.93,1.01,1.51.24.58.37,1.17.37,1.78,0,.67-.12,1.3-.37,1.87-.24.58-.61,1.08-1.1,1.51-.43.37-.9.66-1.42.87-.52.21-1.08.32-1.69.32s-1.2-.12-1.78-.37ZM316.33,26.2c-.82.82-1.94,1.23-3.34,1.23s-2.44-.41-3.29-1.23c-.85-.82-1.28-1.93-1.28-3.34v-9.14c0-1.34.43-2.44,1.28-3.29s1.95-1.28,3.29-1.28,2.51.43,3.34,1.28c.82.85,1.23,1.95,1.23,3.29v9.14c0,1.4-.41,2.51-1.23,3.34ZM316.33,53.63c-.82.82-1.94,1.23-3.34,1.23s-2.44-.41-3.29-1.23c-.85-.82-1.28-1.93-1.28-3.34v-9.14c0-1.34.43-2.44,1.28-3.29s1.95-1.28,3.29-1.28,2.51.43,3.34,1.28c.82.85,1.23,1.95,1.23,3.29v9.14c0,1.4-.41,2.51-1.23,3.34ZM320.35,8.78c-.58-.24-1.08-.58-1.51-1.01-.37-.37-.67-.84-.91-1.42-.24-.58-.37-1.17-.37-1.78s.12-1.2.37-1.78c.24-.58.58-1.08,1.01-1.51.43-.37.91-.67,1.46-.91.55-.24,1.13-.37,1.74-.37s1.19.11,1.74.32c.55.21,1.04.53,1.46.96.43.43.76.93,1.01,1.51.24.58.37,1.17.37,1.78,0,.67-.12,1.3-.37,1.87-.24.58-.61,1.08-1.1,1.51-.43.37-.9.66-1.42.87-.52.21-1.08.32-1.69.32s-1.2-.12-1.78-.37ZM334.62,28.67c.82.82,1.23,1.94,1.23,3.34s-.41,2.44-1.23,3.29c-.82.85-1.94,1.28-3.34,1.28h-9.14c-1.34,0-2.44-.43-3.29-1.28-.85-.85-1.28-1.95-1.28-3.29s.43-2.51,1.28-3.34c.85-.82,1.95-1.23,3.29-1.23h9.14c1.4,0,2.51.41,3.34,1.23ZM320.35,63.64c-.58-.24-1.08-.58-1.51-1.01-.37-.37-.67-.84-.91-1.42-.24-.58-.37-1.17-.37-1.78s.12-1.2.37-1.78c.24-.58.58-1.08,1.01-1.51.43-.37.91-.67,1.46-.91.55-.24,1.13-.37,1.74-.37s1.19.11,1.74.32c.55.21,1.04.53,1.46.96.43.43.76.93,1.01,1.51.24.58.37,1.17.37,1.78,0,.67-.12,1.3-.37,1.87-.24.58-.61,1.08-1.1,1.51-.43.37-.9.66-1.42.87-.52.21-1.08.32-1.69.32s-1.2-.12-1.78-.37ZM338.64,8.78c-.58-.24-1.08-.58-1.51-1.01-.37-.37-.67-.84-.91-1.42-.24-.58-.37-1.17-.37-1.78s.12-1.2.37-1.78c.24-.58.58-1.08,1.01-1.51.43-.37.91-.67,1.46-.91.55-.24,1.13-.37,1.74-.37s1.19.11,1.74.32c.55.21,1.04.53,1.46.96.43.43.76.93,1.01,1.51.24.58.37,1.17.37,1.78,0,.67-.12,1.3-.37,1.87-.24.58-.61,1.08-1.1,1.51-.43.37-.9.66-1.42.87-.52.21-1.08.32-1.69.32s-1.2-.12-1.78-.37ZM338.64,27.07c-.58-.24-1.08-.58-1.51-1.01-.37-.37-.67-.84-.91-1.42-.24-.58-.37-1.17-.37-1.78s.12-1.2.37-1.78c.24-.58.58-1.08,1.01-1.51.43-.37.91-.67,1.46-.91.55-.24,1.13-.37,1.74-.37s1.19.11,1.74.32c.55.21,1.04.53,1.46.96.43.43.76.93,1.01,1.51.24.58.37,1.17.37,1.78,0,.67-.12,1.3-.37,1.87-.24.58-.61,1.08-1.1,1.51-.43.37-.9.66-1.42.87-.52.21-1.08.32-1.69.32s-1.2-.12-1.78-.37ZM338.64,45.35c-.58-.24-1.08-.58-1.51-1.01-.37-.37-.67-.84-.91-1.42-.24-.58-.37-1.17-.37-1.78s.12-1.2.37-1.78c.24-.58.58-1.08,1.01-1.51.43-.37.91-.67,1.46-.91.55-.24,1.13-.37,1.74-.37s1.19.11,1.74.32c.55.21,1.04.53,1.46.96.43.43.76.93,1.01,1.51.24.58.37,1.17.37,1.78,0,.67-.12,1.3-.37,1.87-.24.58-.61,1.08-1.1,1.51-.43.37-.9.66-1.42.87-.52.21-1.08.32-1.69.32s-1.2-.12-1.78-.37ZM338.64,63.64c-.58-.24-1.08-.58-1.51-1.01-.37-.37-.67-.84-.91-1.42-.24-.58-.37-1.17-.37-1.78s.12-1.2.37-1.78c.24-.58.58-1.08,1.01-1.51.43-.37.91-.67,1.46-.91.55-.24,1.13-.37,1.74-.37s1.19.11,1.74.32c.55.21,1.04.53,1.46.96.43.43.76.93,1.01,1.51.24.58.37,1.17.37,1.78,0,.67-.12,1.3-.37,1.87-.24.58-.61,1.08-1.1,1.51-.43.37-.9.66-1.42.87-.52.21-1.08.32-1.69.32s-1.2-.12-1.78-.37ZM347.79,17.92c-.58-.24-1.08-.58-1.51-1.01-.37-.37-.67-.84-.91-1.42-.24-.58-.37-1.17-.37-1.78s.12-1.2.37-1.78c.24-.58.58-1.08,1.01-1.51.43-.37.91-.67,1.46-.91.55-.24,1.13-.37,1.74-.37s1.19.11,1.74.32c.55.21,1.04.53,1.46.96.43.43.76.93,1.01,1.51.24.58.37,1.17.37,1.78,0,.67-.12,1.3-.37,1.87-.24.58-.61,1.08-1.1,1.51-.43.37-.9.66-1.42.87-.52.21-1.08.32-1.69.32s-1.2-.12-1.78-.37ZM347.79,54.5c-.58-.24-1.08-.58-1.51-1.01-.37-.37-.67-.84-.91-1.42-.24-.58-.37-1.17-.37-1.78s.12-1.2.37-1.78c.24-.58.58-1.08,1.01-1.51.43-.37.91-.67,1.46-.91.55-.24,1.13-.37,1.74-.37s1.19.11,1.74.32c.55.21,1.04.53,1.46.96.43.43.76.93,1.01,1.51.24.58.37,1.17.37,1.78,0,.67-.12,1.3-.37,1.87-.24.58-.61,1.08-1.1,1.51-.43.37-.9.66-1.42.87-.52.21-1.08.32-1.69.32s-1.2-.12-1.78-.37ZM356.93,8.78c-.58-.24-1.08-.58-1.51-1.01-.37-.37-.67-.84-.91-1.42-.24-.58-.37-1.17-.37-1.78s.12-1.2.37-1.78c.24-.58.58-1.08,1.01-1.51.43-.37.91-.67,1.46-.91.55-.24,1.13-.37,1.74-.37s1.19.11,1.74.32c.55.21,1.04.53,1.46.96.43.43.76.93,1.01,1.51.24.58.37,1.17.37,1.78,0,.67-.12,1.3-.37,1.87-.24.58-.61,1.08-1.1,1.51-.43.37-.9.66-1.42.87-.52.21-1.08.32-1.69.32s-1.2-.12-1.78-.37ZM356.93,63.64c-.58-.24-1.08-.58-1.51-1.01-.37-.37-.67-.84-.91-1.42-.24-.58-.37-1.17-.37-1.78s.12-1.2.37-1.78c.24-.58.58-1.08,1.01-1.51.43-.37.91-.67,1.46-.91.55-.24,1.13-.37,1.74-.37s1.19.11,1.74.32c.55.21,1.04.53,1.46.96.43.43.76.93,1.01,1.51.24.58.37,1.17.37,1.78,0,.67-.12,1.3-.37,1.87-.24.58-.61,1.08-1.1,1.51-.43.37-.9.66-1.42.87-.52.21-1.08.32-1.69.32s-1.2-.12-1.78-.37Z"/>
  <path d="M373.41,8.78c-.58-.24-1.08-.58-1.51-1.01-.37-.37-.67-.84-.91-1.42-.24-.58-.37-1.17-.37-1.78s.12-1.2.37-1.78c.24-.58.58-1.08,1.01-1.51.43-.37.91-.67,1.46-.91.55-.24,1.13-.37,1.74-.37s1.19.11,1.74.32c.55.21,1.04.53,1.46.96.43.43.76.93,1.01,1.51.24.58.37,1.17.37,1.78,0,.67-.12,1.3-.37,1.87-.24.58-.61,1.08-1.1,1.51-.43.37-.9.66-1.42.87-.52.21-1.08.32-1.69.32s-1.2-.12-1.78-.37ZM373.41,36.21c-.58-.24-1.08-.58-1.51-1.01-.37-.37-.67-.84-.91-1.42-.24-.58-.37-1.17-.37-1.78s.12-1.2.37-1.78c.24-.58.58-1.08,1.01-1.51.43-.37.91-.67,1.46-.91.55-.24,1.13-.37,1.74-.37s1.19.11,1.74.32c.55.21,1.04.53,1.46.96.43.43.76.93,1.01,1.51.24.58.37,1.17.37,1.78,0,.67-.12,1.3-.37,1.87-.24.58-.61,1.08-1.1,1.51-.43.37-.9.66-1.42.87-.52.21-1.08.32-1.69.32s-1.2-.12-1.78-.37ZM373.41,63.64c-.58-.24-1.08-.58-1.51-1.01-.37-.37-.67-.84-.91-1.42-.24-.58-.37-1.17-.37-1.78s.12-1.2.37-1.78c.24-.58.58-1.08,1.01-1.51.43-.37.91-.67,1.46-.91.55-.24,1.13-.37,1.74-.37s1.19.11,1.74.32c.55.21,1.04.53,1.46.96.43.43.76.93,1.01,1.51.24.58.37,1.17.37,1.78,0,.67-.12,1.3-.37,1.87-.24.58-.61,1.08-1.1,1.51-.43.37-.9.66-1.42.87-.52.21-1.08.32-1.69.32s-1.2-.12-1.78-.37ZM381,10.38c.82-.82,1.94-1.23,3.34-1.23s2.44.41,3.29,1.23c.85.82,1.28,1.94,1.28,3.34v9.14c0,1.34-.43,2.44-1.28,3.29-.85.85-1.95,1.28-3.29,1.28s-2.51-.43-3.34-1.28c-.82-.85-1.23-1.95-1.23-3.29v-9.14c0-1.4.41-2.51,1.23-3.34ZM381,37.81c.82-.82,1.94-1.23,3.34-1.23s2.44.41,3.29,1.23c.85.82,1.28,1.94,1.28,3.34v9.14c0,1.34-.43,2.44-1.28,3.29-.85.85-1.95,1.28-3.29,1.28s-2.51-.43-3.34-1.28c-.82-.85-1.23-1.95-1.23-3.29v-9.14c0-1.4.41-2.51,1.23-3.34ZM415.1,1.23c.82.82,1.23,1.94,1.23,3.34s-.41,2.44-1.23,3.29c-.82.85-1.94,1.28-3.34,1.28h-18.29c-1.34,0-2.44-.43-3.29-1.28-.85-.85-1.28-1.95-1.28-3.29s.43-2.51,1.28-3.34c.85-.82,1.95-1.23,3.29-1.23h18.29c1.4,0,2.51.41,3.34,1.23ZM405.96,28.67c.82.82,1.23,1.94,1.23,3.34s-.41,2.44-1.23,3.29c-.82.85-1.94,1.28-3.34,1.28h-9.14c-1.34,0-2.44-.43-3.29-1.28-.85-.85-1.28-1.95-1.28-3.29s.43-2.51,1.28-3.34c.85-.82,1.95-1.23,3.29-1.23h9.14c1.4,0,2.51.41,3.34,1.23ZM415.1,56.1c.82.82,1.23,1.94,1.23,3.34s-.41,2.44-1.23,3.29c-.82.85-1.94,1.28-3.34,1.28h-18.29c-1.34,0-2.44-.43-3.29-1.28-.85-.85-1.28-1.95-1.28-3.29s.43-2.51,1.28-3.34c.85-.82,1.95-1.23,3.29-1.23h18.29c1.4,0,2.51.41,3.34,1.23ZM419.13,17.92c-.58-.24-1.08-.58-1.51-1.01-.37-.37-.67-.84-.91-1.42-.24-.58-.37-1.17-.37-1.78s.12-1.2.37-1.78c.24-.58.58-1.08,1.01-1.51.43-.37.91-.67,1.46-.91.55-.24,1.13-.37,1.74-.37s1.19.11,1.74.32c.55.21,1.04.53,1.46.96.43.43.76.93,1.01,1.51.24.58.37,1.17.37,1.78,0,.67-.12,1.3-.37,1.87-.24.58-.61,1.08-1.1,1.51-.43.37-.9.66-1.42.87-.52.21-1.08.32-1.69.32s-1.2-.12-1.78-.37ZM419.13,54.5c-.58-.24-1.08-.58-1.51-1.01-.37-.37-.67-.84-.91-1.42-.24-.58-.37-1.17-.37-1.78s.12-1.2.37-1.78c.24-.58.58-1.08,1.01-1.51.43-.37.91-.67,1.46-.91.55-.24,1.13-.37,1.74-.37s1.19.11,1.74.32c.55.21,1.04.53,1.46.96.43.43.76.93,1.01,1.51.24.58.37,1.17.37,1.78,0,.67-.12,1.3-.37,1.87-.24.58-.61,1.08-1.1,1.51-.43.37-.9.66-1.42.87-.52.21-1.08.32-1.69.32s-1.2-.12-1.78-.37Z"/>
  <path d="M433.75,8.78c-.58-.24-1.08-.58-1.51-1.01-.37-.37-.67-.84-.91-1.42-.24-.58-.37-1.17-.37-1.78s.12-1.2.37-1.78c.24-.58.58-1.08,1.01-1.51.43-.37.91-.67,1.46-.91.55-.24,1.13-.37,1.74-.37s1.19.11,1.74.32c.55.21,1.04.53,1.46.96.43.43.76.93,1.01,1.51.24.58.37,1.17.37,1.78,0,.67-.12,1.3-.37,1.87-.24.58-.61,1.08-1.1,1.51-.43.37-.9.66-1.42.87-.52.21-1.08.32-1.69.32s-1.2-.12-1.78-.37ZM433.75,27.07c-.58-.24-1.08-.58-1.51-1.01-.37-.37-.67-.84-.91-1.42-.24-.58-.37-1.17-.37-1.78s.12-1.2.37-1.78c.24-.58.58-1.08,1.01-1.51.43-.37.91-.67,1.46-.91.55-.24,1.13-.37,1.74-.37s1.19.11,1.74.32c.55.21,1.04.53,1.46.96.43.43.76.93,1.01,1.51.24.58.37,1.17.37,1.78,0,.67-.12,1.3-.37,1.87-.24.58-.61,1.08-1.1,1.51-.43.37-.9.66-1.42.87-.52.21-1.08.32-1.69.32s-1.2-.12-1.78-.37ZM441.34,17.05c-.82-.82-1.23-1.93-1.23-3.34s.41-2.44,1.23-3.29c.82-.85,1.94-1.28,3.34-1.28h9.14c1.34,0,2.44.43,3.29,1.28.85.85,1.28,1.95,1.28,3.29s-.43,2.51-1.28,3.34c-.85.82-1.95,1.23-3.29,1.23h-9.14c-1.4,0-2.51-.41-3.34-1.23ZM452.04,63.64c-.58-.24-1.08-.58-1.51-1.01-.37-.37-.67-.84-.91-1.42-.24-.58-.37-1.17-.37-1.78s.12-1.2.37-1.78c.24-.58.58-1.08,1.01-1.51.43-.37.91-.67,1.46-.91.55-.24,1.13-.37,1.74-.37s1.19.11,1.74.32c.55.21,1.04.53,1.46.96.43.43.76.93,1.01,1.51.24.58.37,1.17.37,1.78,0,.67-.12,1.3-.37,1.87-.24.58-.61,1.08-1.1,1.51-.43.37-.9.66-1.42.87-.52.21-1.08.32-1.69.32s-1.2-.12-1.78-.37ZM461.18,8.78c-.58-.24-1.08-.58-1.51-1.01-.37-.37-.67-.84-.91-1.42-.24-.58-.37-1.17-.37-1.78s.12-1.2.37-1.78c.24-.58.58-1.08,1.01-1.51.43-.37.91-.67,1.46-.91.55-.24,1.13-.37,1.74-.37s1.19.11,1.74.32c.55.21,1.04.53,1.46.96.43.43.76.93,1.01,1.51.24.58.37,1.17.37,1.78,0,.67-.12,1.3-.37,1.87-.24.58-.61,1.08-1.1,1.51-.43.37-.9.66-1.42.87-.52.21-1.08.32-1.69.32s-1.2-.12-1.78-.37ZM466.3,53.63c-.82.82-1.94,1.23-3.34,1.23s-2.44-.41-3.29-1.23c-.85-.82-1.28-1.93-1.28-3.34v-27.43c0-1.34.43-2.44,1.28-3.29s1.95-1.28,3.29-1.28,2.51.43,3.34,1.28c.82.85,1.23,1.95,1.23,3.29v27.43c0,1.4-.41,2.51-1.23,3.34ZM470.32,63.64c-.58-.24-1.08-.58-1.51-1.01-.37-.37-.67-.84-.91-1.42-.24-.58-.37-1.17-.37-1.78s.12-1.2.37-1.78c.24-.58.58-1.08,1.01-1.51.43-.37.91-.67,1.46-.91.55-.24,1.13-.37,1.74-.37s1.19.11,1.74.32c.55.21,1.04.53,1.46.96.43.43.76.93,1.01,1.51.24.58.37,1.17.37,1.78,0,.67-.12,1.3-.37,1.87-.24.58-.61,1.08-1.1,1.51-.43.37-.9.66-1.42.87-.52.21-1.08.32-1.69.32s-1.2-.12-1.78-.37ZM469.68,17.05c-.82-.82-1.23-1.93-1.23-3.34s.41-2.44,1.23-3.29c.82-.85,1.94-1.28,3.34-1.28h9.14c1.34,0,2.44.43,3.29,1.28.85.85,1.28,1.95,1.28,3.29s-.43,2.51-1.28,3.34c-.85.82-1.95,1.23-3.29,1.23h-9.14c-1.4,0-2.51-.41-3.34-1.23ZM488.61,8.78c-.58-.24-1.08-.58-1.51-1.01-.37-.37-.67-.84-.91-1.42-.24-.58-.37-1.17-.37-1.78s.12-1.2.37-1.78c.24-.58.58-1.08,1.01-1.51.43-.37.91-.67,1.46-.91.55-.24,1.13-.37,1.74-.37s1.19.11,1.74.32c.55.21,1.04.53,1.46.96.43.43.76.93,1.01,1.51.24.58.37,1.17.37,1.78,0,.67-.12,1.3-.37,1.87-.24.58-.61,1.08-1.1,1.51-.43.37-.9.66-1.42.87-.52.21-1.08.32-1.69.32s-1.2-.12-1.78-.37ZM488.61,27.07c-.58-.24-1.08-.58-1.51-1.01-.37-.37-.67-.84-.91-1.42-.24-.58-.37-1.17-.37-1.78s.12-1.2.37-1.78c.24-.58.58-1.08,1.01-1.51.43-.37.91-.67,1.46-.91.55-.24,1.13-.37,1.74-.37s1.19.11,1.74.32c.55.21,1.04.53,1.46.96.43.43.76.93,1.01,1.51.24.58.37,1.17.37,1.78,0,.67-.12,1.3-.37,1.87-.24.58-.61,1.08-1.1,1.51-.43.37-.9.66-1.42.87-.52.21-1.08.32-1.69.32s-1.2-.12-1.78-.37Z"/>
  <path d="M2.79,100.22c-.58-.24-1.08-.58-1.51-1.01-.37-.37-.67-.84-.91-1.42C.12,97.22,0,96.62,0,96.01s.12-1.2.37-1.78c.24-.58.58-1.08,1.01-1.51.43-.37.91-.67,1.46-.91.55-.24,1.13-.37,1.74-.37s1.19.11,1.74.32c.55.21,1.04.53,1.46.96.43.43.76.93,1.01,1.51.24.58.37,1.17.37,1.78,0,.67-.12,1.3-.37,1.87-.24.58-.61,1.08-1.1,1.51-.43.37-.9.66-1.42.87-.52.21-1.08.32-1.69.32s-1.2-.12-1.78-.37ZM2.79,127.65c-.58-.24-1.08-.58-1.51-1.01-.37-.37-.67-.84-.91-1.42C.12,124.65,0,124.05,0,123.44s.12-1.2.37-1.78c.24-.58.58-1.08,1.01-1.51.43-.37.91-.67,1.46-.91.55-.24,1.13-.37,1.74-.37s1.19.11,1.74.32c.55.21,1.04.53,1.46.96.43.43.76.93,1.01,1.51.24.58.37,1.17.37,1.78,0,.67-.12,1.3-.37,1.87-.24.58-.61,1.08-1.1,1.51-.43.37-.9.66-1.42.87-.52.21-1.08.32-1.69.32s-1.2-.12-1.78-.37ZM2.79,155.08c-.58-.24-1.08-.58-1.51-1.01-.37-.37-.67-.84-.91-1.42C.12,152.08,0,151.49,0,150.88s.12-1.2.37-1.78c.24-.58.58-1.08,1.01-1.51.43-.37.91-.67,1.46-.91.55-.24,1.13-.37,1.74-.37s1.19.11,1.74.32c.55.21,1.04.53,1.46.96.43.43.76.93,1.01,1.51.24.58.37,1.17.37,1.78,0,.67-.12,1.3-.37,1.87-.24.58-.61,1.08-1.1,1.51-.43.37-.9.66-1.42.87-.52.21-1.08.32-1.69.32s-1.2-.12-1.78-.37ZM10.38,101.82c.82-.82,1.94-1.23,3.34-1.23s2.44.41,3.29,1.23c.85.82,1.28,1.94,1.28,3.34v9.14c0,1.34-.43,2.44-1.28,3.29-.85.85-1.95,1.28-3.29,1.28s-2.51-.43-3.34-1.28c-.82-.85-1.23-1.95-1.23-3.29v-9.14c0-1.4.41-2.51,1.23-3.34ZM10.38,129.25c.82-.82,1.94-1.23,3.34-1.23s2.44.41,3.29,1.23c.85.82,1.28,1.94,1.28,3.34v9.14c0,1.34-.43,2.44-1.28,3.29-.85.85-1.95,1.28-3.29,1.28s-2.51-.43-3.34-1.28c-.82-.85-1.23-1.95-1.23-3.29v-9.14c0-1.4.41-2.51,1.23-3.34ZM44.49,92.67c.82.82,1.23,1.94,1.23,3.34s-.41,2.44-1.23,3.29c-.82.85-1.94,1.28-3.34,1.28h-18.29c-1.34,0-2.44-.43-3.29-1.28-.85-.85-1.28-1.95-1.28-3.29s.43-2.51,1.28-3.34c.85-.82,1.95-1.23,3.29-1.23h18.29c1.4,0,2.51.41,3.34,1.23ZM35.34,120.11c.82.82,1.23,1.94,1.23,3.34s-.41,2.44-1.23,3.29c-.82.85-1.94,1.28-3.34,1.28h-9.14c-1.34,0-2.44-.43-3.29-1.28-.85-.85-1.28-1.95-1.28-3.29s.43-2.51,1.28-3.34c.85-.82,1.95-1.23,3.29-1.23h9.14c1.4,0,2.51.41,3.34,1.23ZM44.49,147.54c.82.82,1.23,1.94,1.23,3.34s-.41,2.44-1.23,3.29c-.82.85-1.94,1.28-3.34,1.28h-18.29c-1.34,0-2.44-.43-3.29-1.28-.85-.85-1.28-1.95-1.28-3.29s.43-2.51,1.28-3.34c.85-.82,1.95-1.23,3.29-1.23h18.29c1.4,0,2.51.41,3.34,1.23ZM48.51,109.36c-.58-.24-1.08-.58-1.51-1.01-.37-.37-.67-.84-.91-1.42-.24-.58-.37-1.17-.37-1.78s.12-1.2.37-1.78c.24-.58.58-1.08,1.01-1.51.43-.37.91-.67,1.46-.91.55-.24,1.13-.37,1.74-.37s1.19.11,1.74.32c.55.21,1.04.53,1.46.96.43.43.76.93,1.01,1.51.24.58.37,1.17.37,1.78,0,.67-.12,1.3-.37,1.87-.24.58-.61,1.08-1.1,1.51-.43.37-.9.66-1.42.87-.52.21-1.08.32-1.69.32s-1.2-.12-1.78-.37ZM48.51,145.94c-.58-.24-1.08-.58-1.51-1.01-.37-.37-.67-.84-.91-1.42-.24-.58-.37-1.17-.37-1.78s.12-1.2.37-1.78c.24-.58.58-1.08,1.01-1.51.43-.37.91-.67,1.46-.91.55-.24,1.13-.37,1.74-.37s1.19.11,1.74.32c.55.21,1.04.53,1.46.96.43.43.76.93,1.01,1.51.24.58.37,1.17.37,1.78,0,.67-.12,1.3-.37,1.87-.24.58-.61,1.08-1.1,1.51-.43.37-.9.66-1.42.87-.52.21-1.08.32-1.69.32s-1.2-.12-1.78-.37Z"/>
  <path d="M63.59,100.26c-.52-.21-.99-.5-1.42-.87-.49-.43-.85-.93-1.1-1.51-.24-.58-.37-1.2-.37-1.87,0-.61.12-1.2.37-1.78.24-.58.58-1.08,1.01-1.51.43-.43.91-.75,1.46-.96.55-.21,1.13-.32,1.74-.32s1.19.12,1.74.37c.55.24,1.04.55,1.46.91.43.43.76.93,1.01,1.51.24.58.37,1.17.37,1.78s-.12,1.2-.37,1.78c-.24.58-.55,1.05-.91,1.42-.43.43-.93.76-1.51,1.01-.58.24-1.17.37-1.78.37s-1.17-.11-1.69-.32ZM63.59,127.7c-.52-.21-.99-.5-1.42-.87-.49-.43-.85-.93-1.1-1.51-.24-.58-.37-1.2-.37-1.87,0-.61.12-1.2.37-1.78.24-.58.58-1.08,1.01-1.51.43-.43.91-.75,1.46-.96.55-.21,1.13-.32,1.74-.32s1.19.12,1.74.37c.55.24,1.04.55,1.46.91.43.43.76.93,1.01,1.51.24.58.37,1.17.37,1.78s-.12,1.2-.37,1.78c-.24.58-.55,1.05-.91,1.42-.43.43-.93.76-1.51,1.01-.58.24-1.17.37-1.78.37s-1.17-.11-1.69-.32ZM63.59,155.13c-.52-.21-.99-.5-1.42-.87-.49-.43-.85-.93-1.1-1.51-.24-.58-.37-1.2-.37-1.87,0-.61.12-1.2.37-1.78.24-.58.58-1.08,1.01-1.51s.91-.75,1.46-.96c.55-.21,1.13-.32,1.74-.32s1.19.12,1.74.37c.55.24,1.04.55,1.46.91.43.43.76.93,1.01,1.51.24.58.37,1.17.37,1.78s-.12,1.2-.37,1.78c-.24.58-.55,1.05-.91,1.42-.43.43-.93.76-1.51,1.01-.58.24-1.17.37-1.78.37s-1.17-.11-1.69-.32ZM69.85,105.16c0-1.4.43-2.51,1.28-3.34.85-.82,1.95-1.23,3.29-1.23s2.51.41,3.34,1.23c.82.82,1.23,1.94,1.23,3.34v9.14c0,1.34-.41,2.44-1.23,3.29-.82.85-1.94,1.28-3.34,1.28s-2.44-.43-3.29-1.28c-.85-.85-1.28-1.95-1.28-3.29v-9.14ZM69.85,132.59c0-1.4.43-2.51,1.28-3.34.85-.82,1.95-1.23,3.29-1.23s2.51.41,3.34,1.23c.82.82,1.23,1.94,1.23,3.34v9.14c0,1.34-.41,2.44-1.23,3.29-.82.85-1.94,1.28-3.34,1.28s-2.44-.43-3.29-1.28c-.85-.85-1.28-1.95-1.28-3.29v-9.14ZM81.88,100.26c-.52-.21-.99-.5-1.42-.87-.49-.43-.85-.93-1.1-1.51-.24-.58-.37-1.2-.37-1.87,0-.61.12-1.2.37-1.78.24-.58.58-1.08,1.01-1.51.43-.43.91-.75,1.46-.96.55-.21,1.13-.32,1.74-.32s1.19.12,1.74.37c.55.24,1.04.55,1.46.91.43.43.76.93,1.01,1.51.24.58.37,1.17.37,1.78s-.12,1.2-.37,1.78c-.24.58-.55,1.05-.91,1.42-.43.43-.93.76-1.51,1.01-.58.24-1.17.37-1.78.37s-1.17-.11-1.69-.32ZM81.88,127.7c-.52-.21-.99-.5-1.42-.87-.49-.43-.85-.93-1.1-1.51-.24-.58-.37-1.2-.37-1.87,0-.61.12-1.2.37-1.78.24-.58.58-1.08,1.01-1.51.43-.43.91-.75,1.46-.96.55-.21,1.13-.32,1.74-.32s1.19.12,1.74.37c.55.24,1.04.55,1.46.91.43.43.76.93,1.01,1.51.24.58.37,1.17.37,1.78s-.12,1.2-.37,1.78c-.24.58-.55,1.05-.91,1.42-.43.43-.93.76-1.51,1.01-.58.24-1.17.37-1.78.37s-1.17-.11-1.69-.32ZM83.57,155.45c-1.34,0-2.44-.43-3.29-1.28-.85-.85-1.28-1.95-1.28-3.29s.43-2.51,1.28-3.34c.85-.82,1.95-1.23,3.29-1.23h9.14c1.4,0,2.51.41,3.34,1.23.82.82,1.23,1.94,1.23,3.34s-.41,2.44-1.23,3.29c-.82.85-1.94,1.28-3.34,1.28h-9.14ZM100.16,145.99c-.52-.21-.99-.5-1.42-.87-.49-.43-.85-.93-1.1-1.51-.24-.58-.37-1.2-.37-1.87,0-.61.12-1.2.37-1.78.24-.58.58-1.08,1.01-1.51s.91-.75,1.46-.96c.55-.21,1.13-.32,1.74-.32s1.19.12,1.74.37c.55.24,1.04.55,1.46.91.43.43.76.93,1.01,1.51.24.58.37,1.17.37,1.78s-.12,1.2-.37,1.78c-.24.58-.55,1.05-.91,1.42-.43.43-.93.76-1.51,1.01-.58.24-1.17.37-1.78.37s-1.17-.11-1.69-.32Z"/>
  <path d="M114.68,100.22c-.58-.24-1.08-.58-1.51-1.01-.37-.37-.67-.84-.91-1.42-.24-.58-.37-1.17-.37-1.78s.12-1.2.37-1.78c.24-.58.58-1.08,1.01-1.51.43-.37.91-.67,1.46-.91.55-.24,1.13-.37,1.74-.37s1.19.11,1.74.32c.55.21,1.04.53,1.46.96.43.43.76.93,1.01,1.51.24.58.37,1.17.37,1.78,0,.67-.12,1.3-.37,1.87-.24.58-.61,1.08-1.1,1.51-.43.37-.9.66-1.42.87-.52.21-1.08.32-1.69.32s-1.2-.12-1.78-.37ZM114.68,127.65c-.58-.24-1.08-.58-1.51-1.01-.37-.37-.67-.84-.91-1.42-.24-.58-.37-1.17-.37-1.78s.12-1.2.37-1.78c.24-.58.58-1.08,1.01-1.51.43-.37.91-.67,1.46-.91.55-.24,1.13-.37,1.74-.37s1.19.11,1.74.32c.55.21,1.04.53,1.46.96.43.43.76.93,1.01,1.51.24.58.37,1.17.37,1.78,0,.67-.12,1.3-.37,1.87-.24.58-.61,1.08-1.1,1.51-.43.37-.9.66-1.42.87-.52.21-1.08.32-1.69.32s-1.2-.12-1.78-.37ZM114.68,155.08c-.58-.24-1.08-.58-1.51-1.01-.37-.37-.67-.84-.91-1.42-.24-.58-.37-1.17-.37-1.78s.12-1.2.37-1.78c.24-.58.58-1.08,1.01-1.51.43-.37.91-.67,1.46-.91.55-.24,1.13-.37,1.74-.37s1.19.11,1.74.32c.55.21,1.04.53,1.46.96.43.43.76.93,1.01,1.51.24.58.37,1.17.37,1.78,0,.67-.12,1.3-.37,1.87-.24.58-.61,1.08-1.1,1.51-.43.37-.9.66-1.42.87-.52.21-1.08.32-1.69.32s-1.2-.12-1.78-.37ZM122.27,101.82c.82-.82,1.94-1.23,3.34-1.23s2.44.41,3.29,1.23c.85.82,1.28,1.94,1.28,3.34v9.14c0,1.34-.43,2.44-1.28,3.29-.85.85-1.95,1.28-3.29,1.28s-2.51-.43-3.34-1.28c-.82-.85-1.23-1.95-1.23-3.29v-9.14c0-1.4.41-2.51,1.23-3.34ZM122.27,129.25c.82-.82,1.94-1.23,3.34-1.23s2.44.41,3.29,1.23c.85.82,1.28,1.94,1.28,3.34v9.14c0,1.34-.43,2.44-1.28,3.29-.85.85-1.95,1.28-3.29,1.28s-2.51-.43-3.34-1.28c-.82-.85-1.23-1.95-1.23-3.29v-9.14c0-1.4.41-2.51,1.23-3.34ZM156.38,92.67c.82.82,1.23,1.94,1.23,3.34s-.41,2.44-1.23,3.29c-.82.85-1.94,1.28-3.34,1.28h-18.29c-1.34,0-2.44-.43-3.29-1.28-.85-.85-1.28-1.95-1.28-3.29s.43-2.51,1.28-3.34c.85-.82,1.95-1.23,3.29-1.23h18.29c1.4,0,2.51.41,3.34,1.23ZM147.24,120.11c.82.82,1.23,1.94,1.23,3.34s-.41,2.44-1.23,3.29c-.82.85-1.94,1.28-3.34,1.28h-9.14c-1.34,0-2.44-.43-3.29-1.28-.85-.85-1.28-1.95-1.28-3.29s.43-2.51,1.28-3.34c.85-.82,1.95-1.23,3.29-1.23h9.14c1.4,0,2.51.41,3.34,1.23ZM156.38,147.54c.82.82,1.23,1.94,1.23,3.34s-.41,2.44-1.23,3.29c-.82.85-1.94,1.28-3.34,1.28h-18.29c-1.34,0-2.44-.43-3.29-1.28-.85-.85-1.28-1.95-1.28-3.29s.43-2.51,1.28-3.34c.85-.82,1.95-1.23,3.29-1.23h18.29c1.4,0,2.51.41,3.34,1.23ZM160.4,109.36c-.58-.24-1.08-.58-1.51-1.01-.37-.37-.67-.84-.91-1.42-.24-.58-.37-1.17-.37-1.78s.12-1.2.37-1.78c.24-.58.58-1.08,1.01-1.51.43-.37.91-.67,1.46-.91.55-.24,1.13-.37,1.74-.37s1.19.11,1.74.32c.55.21,1.04.53,1.46.96.43.43.76.93,1.01,1.51.24.58.37,1.17.37,1.78,0,.67-.12,1.3-.37,1.87-.24.58-.61,1.08-1.1,1.51-.43.37-.9.66-1.42.87-.52.21-1.08.32-1.69.32s-1.2-.12-1.78-.37ZM160.4,145.94c-.58-.24-1.08-.58-1.51-1.01-.37-.37-.67-.84-.91-1.42-.24-.58-.37-1.17-.37-1.78s.12-1.2.37-1.78c.24-.58.58-1.08,1.01-1.51.43-.37.91-.67,1.46-.91.55-.24,1.13-.37,1.74-.37s1.19.11,1.74.32c.55.21,1.04.53,1.46.96.43.43.76.93,1.01,1.51.24.58.37,1.17.37,1.78,0,.67-.12,1.3-.37,1.87-.24.58-.61,1.08-1.1,1.51-.43.37-.9.66-1.42.87-.52.21-1.08.32-1.69.32s-1.2-.12-1.78-.37Z"/>
  <path d="M180.19,135.93c-.82.82-1.94,1.23-3.34,1.23s-2.44-.41-3.29-1.23c-.85-.82-1.28-1.94-1.28-3.34v-18.29c0-1.34.43-2.44,1.28-3.29s1.95-1.28,3.29-1.28,2.51.43,3.34,1.28c.82.85,1.23,1.95,1.23,3.29v18.29c0,1.4-.41,2.51-1.23,3.34ZM184.21,109.36c-.58-.24-1.08-.58-1.51-1.01-.37-.37-.67-.84-.91-1.42-.24-.58-.37-1.17-.37-1.78s.12-1.2.37-1.78c.24-.58.58-1.08,1.01-1.51.43-.37.91-.67,1.46-.91.55-.24,1.13-.37,1.74-.37s1.19.11,1.74.32c.55.21,1.04.53,1.46.96.43.43.76.93,1.01,1.51.24.58.37,1.17.37,1.78,0,.67-.12,1.3-.37,1.87-.24.58-.61,1.08-1.1,1.51-.43.37-.9.66-1.42.87-.52.21-1.08.32-1.69.32s-1.2-.12-1.78-.37ZM184.21,145.94c-.58-.24-1.08-.58-1.51-1.01-.37-.37-.67-.84-.91-1.42-.24-.58-.37-1.17-.37-1.78s.12-1.2.37-1.78c.24-.58.58-1.08,1.01-1.51.43-.37.91-.67,1.46-.91.55-.24,1.13-.37,1.74-.37s1.19.11,1.74.32c.55.21,1.04.53,1.46.96.43.43.76.93,1.01,1.51.24.58.37,1.17.37,1.78,0,.67-.12,1.3-.37,1.87-.24.58-.61,1.08-1.1,1.51-.43.37-.9.66-1.42.87-.52.21-1.08.32-1.69.32s-1.2-.12-1.78-.37ZM216.77,92.67c.82.82,1.23,1.94,1.23,3.34s-.41,2.44-1.23,3.29c-.82.85-1.94,1.28-3.34,1.28h-18.29c-1.34,0-2.44-.43-3.29-1.28-.85-.85-1.28-1.95-1.28-3.29s.43-2.51,1.28-3.34c.85-.82,1.95-1.23,3.29-1.23h18.29c1.4,0,2.51.41,3.34,1.23ZM216.77,147.54c.82.82,1.23,1.94,1.23,3.34s-.41,2.44-1.23,3.29c-.82.85-1.94,1.28-3.34,1.28h-18.29c-1.34,0-2.44-.43-3.29-1.28-.85-.85-1.28-1.95-1.28-3.29s.43-2.51,1.28-3.34c.85-.82,1.95-1.23,3.29-1.23h18.29c1.4,0,2.51.41,3.34,1.23ZM220.79,109.36c-.58-.24-1.08-.58-1.51-1.01-.37-.37-.67-.84-.91-1.42-.24-.58-.37-1.17-.37-1.78s.12-1.2.37-1.78c.24-.58.58-1.08,1.01-1.51.43-.37.91-.67,1.46-.91.55-.24,1.13-.37,1.74-.37s1.19.11,1.74.32c.55.21,1.04.53,1.46.96.43.43.76.93,1.01,1.51.24.58.37,1.17.37,1.78,0,.67-.12,1.3-.37,1.87-.24.58-.61,1.08-1.1,1.51-.43.37-.9.66-1.42.87-.52.21-1.08.32-1.69.32s-1.2-.12-1.78-.37ZM220.79,145.94c-.58-.24-1.08-.58-1.51-1.01-.37-.37-.67-.84-.91-1.42-.24-.58-.37-1.17-.37-1.78s.12-1.2.37-1.78c.24-.58.58-1.08,1.01-1.51.43-.37.91-.67,1.46-.91.55-.24,1.13-.37,1.74-.37s1.19.11,1.74.32c.55.21,1.04.53,1.46.96.43.43.76.93,1.01,1.51.24.58.37,1.17.37,1.78,0,.67-.12,1.3-.37,1.87-.24.58-.61,1.08-1.1,1.51-.43.37-.9.66-1.42.87-.52.21-1.08.32-1.69.32s-1.2-.12-1.78-.37Z"/>
  <path d="M235.41,100.22c-.58-.24-1.08-.58-1.51-1.01-.37-.37-.67-.84-.91-1.42-.24-.58-.37-1.17-.37-1.78s.12-1.2.37-1.78c.24-.58.58-1.08,1.01-1.51.43-.37.91-.67,1.46-.91.55-.24,1.13-.37,1.74-.37s1.19.11,1.74.32c.55.21,1.04.53,1.46.96.43.43.76.93,1.01,1.51.24.58.37,1.17.37,1.78,0,.67-.12,1.3-.37,1.87-.24.58-.61,1.08-1.1,1.51-.43.37-.9.66-1.42.87-.52.21-1.08.32-1.69.32s-1.2-.12-1.78-.37ZM235.41,118.51c-.58-.24-1.08-.58-1.51-1.01-.37-.37-.67-.84-.91-1.42-.24-.58-.37-1.17-.37-1.78s.12-1.2.37-1.78c.24-.58.58-1.08,1.01-1.51.43-.37.91-.67,1.46-.91.55-.24,1.13-.37,1.74-.37s1.19.11,1.74.32c.55.21,1.04.53,1.46.96.43.43.76.93,1.01,1.51.24.58.37,1.17.37,1.78,0,.67-.12,1.3-.37,1.87-.24.58-.61,1.08-1.1,1.51-.43.37-.9.66-1.42.87-.52.21-1.08.32-1.69.32s-1.2-.12-1.78-.37ZM243,108.49c-.82-.82-1.23-1.93-1.23-3.34s.41-2.44,1.23-3.29c.82-.85,1.94-1.28,3.34-1.28h9.14c1.34,0,2.44.43,3.29,1.28.85.85,1.28,1.95,1.28,3.29s-.43,2.51-1.28,3.34c-.85.82-1.95,1.23-3.29,1.23h-9.14c-1.4,0-2.51-.41-3.34-1.23ZM253.7,155.08c-.58-.24-1.08-.58-1.51-1.01-.37-.37-.67-.84-.91-1.42-.24-.58-.37-1.17-.37-1.78s.12-1.2.37-1.78c.24-.58.58-1.08,1.01-1.51.43-.37.91-.67,1.46-.91.55-.24,1.13-.37,1.74-.37s1.19.11,1.74.32c.55.21,1.04.53,1.46.96.43.43.76.93,1.01,1.51.24.58.37,1.17.37,1.78,0,.67-.12,1.3-.37,1.87-.24.58-.61,1.08-1.1,1.51-.43.37-.9.66-1.42.87-.52.21-1.08.32-1.69.32s-1.2-.12-1.78-.37ZM262.84,100.22c-.58-.24-1.08-.58-1.51-1.01-.37-.37-.67-.84-.91-1.42-.24-.58-.37-1.17-.37-1.78s.12-1.2.37-1.78c.24-.58.58-1.08,1.01-1.51.43-.37.91-.67,1.46-.91.55-.24,1.13-.37,1.74-.37s1.19.11,1.74.32c.55.21,1.04.53,1.46.96.43.43.76.93,1.01,1.51.24.58.37,1.17.37,1.78,0,.67-.12,1.3-.37,1.87-.24.58-.61,1.08-1.1,1.51-.43.37-.9.66-1.42.87-.52.21-1.08.32-1.69.32s-1.2-.12-1.78-.37ZM267.97,145.07c-.82.82-1.94,1.23-3.34,1.23s-2.44-.41-3.29-1.23c-.85-.82-1.28-1.94-1.28-3.34v-27.43c0-1.34.43-2.44,1.28-3.29s1.95-1.28,3.29-1.28,2.51.43,3.34,1.28c.82.85,1.23,1.95,1.23,3.29v27.43c0,1.4-.41,2.51-1.23,3.34ZM271.99,155.08c-.58-.24-1.08-.58-1.51-1.01-.37-.37-.67-.84-.91-1.42-.24-.58-.37-1.17-.37-1.78s.12-1.2.37-1.78c.24-.58.58-1.08,1.01-1.51.43-.37.91-.67,1.46-.91.55-.24,1.13-.37,1.74-.37s1.19.11,1.74.32c.55.21,1.04.53,1.46.96.43.43.76.93,1.01,1.51.24.58.37,1.17.37,1.78,0,.67-.12,1.3-.37,1.87-.24.58-.61,1.08-1.1,1.51-.43.37-.9.66-1.42.87-.52.21-1.08.32-1.69.32s-1.2-.12-1.78-.37ZM271.35,108.49c-.82-.82-1.23-1.93-1.23-3.34s.41-2.44,1.23-3.29c.82-.85,1.94-1.28,3.34-1.28h9.14c1.34,0,2.44.43,3.29,1.28.85.85,1.28,1.95,1.28,3.29s-.43,2.51-1.28,3.34c-.85.82-1.95,1.23-3.29,1.23h-9.14c-1.4,0-2.51-.41-3.34-1.23ZM290.28,100.22c-.58-.24-1.08-.58-1.51-1.01-.37-.37-.67-.84-.91-1.42-.24-.58-.37-1.17-.37-1.78s.12-1.2.37-1.78c.24-.58.58-1.08,1.01-1.51.43-.37.91-.67,1.46-.91.55-.24,1.13-.37,1.74-.37s1.19.11,1.74.32c.55.21,1.04.53,1.46.96.43.43.76.93,1.01,1.51.24.58.37,1.17.37,1.78,0,.67-.12,1.3-.37,1.87-.24.58-.61,1.08-1.1,1.51-.43.37-.9.66-1.42.87-.52.21-1.08.32-1.69.32s-1.2-.12-1.78-.37ZM290.28,118.51c-.58-.24-1.08-.58-1.51-1.01-.37-.37-.67-.84-.91-1.42-.24-.58-.37-1.17-.37-1.78s.12-1.2.37-1.78c.24-.58.58-1.08,1.01-1.51.43-.37.91-.67,1.46-.91.55-.24,1.13-.37,1.74-.37s1.19.11,1.74.32c.55.21,1.04.53,1.46.96.43.43.76.93,1.01,1.51.24.58.37,1.17.37,1.78,0,.67-.12,1.3-.37,1.87-.24.58-.61,1.08-1.1,1.51-.43.37-.9.66-1.42.87-.52.21-1.08.32-1.69.32s-1.2-.12-1.78-.37Z"/>
  <path d="M306.75,100.22c-.58-.24-1.08-.58-1.51-1.01-.37-.37-.67-.84-.91-1.42-.24-.58-.37-1.17-.37-1.78s.12-1.2.37-1.78c.24-.58.58-1.08,1.01-1.51.43-.37.91-.67,1.46-.91.55-.24,1.13-.37,1.74-.37s1.19.11,1.74.32c.55.21,1.04.53,1.46.96.43.43.76.93,1.01,1.51.24.58.37,1.17.37,1.78,0,.67-.12,1.3-.37,1.87-.24.58-.61,1.08-1.1,1.51-.43.37-.9.66-1.42.87-.52.21-1.08.32-1.69.32s-1.2-.12-1.78-.37ZM306.75,127.65c-.58-.24-1.08-.58-1.51-1.01-.37-.37-.67-.84-.91-1.42-.24-.58-.37-1.17-.37-1.78s.12-1.2.37-1.78c.24-.58.58-1.08,1.01-1.51.43-.37.91-.67,1.46-.91.55-.24,1.13-.37,1.74-.37s1.19.11,1.74.32c.55.21,1.04.53,1.46.96.43.43.76.93,1.01,1.51.24.58.37,1.17.37,1.78,0,.67-.12,1.3-.37,1.87-.24.58-.61,1.08-1.1,1.51-.43.37-.9.66-1.42.87-.52.21-1.08.32-1.69.32s-1.2-.12-1.78-.37ZM306.75,155.08c-.58-.24-1.08-.58-1.51-1.01-.37-.37-.67-.84-.91-1.42-.24-.58-.37-1.17-.37-1.78s.12-1.2.37-1.78c.24-.58.58-1.08,1.01-1.51.43-.37.91-.67,1.46-.91.55-.24,1.13-.37,1.74-.37s1.19.11,1.74.32c.55.21,1.04.53,1.46.96.43.43.76.93,1.01,1.51.24.58.37,1.17.37,1.78,0,.67-.12,1.3-.37,1.87-.24.58-.61,1.08-1.1,1.51-.43.37-.9.66-1.42.87-.52.21-1.08.32-1.69.32s-1.2-.12-1.78-.37ZM314.34,101.82c.82-.82,1.94-1.23,3.34-1.23s2.44.41,3.29,1.23c.85.82,1.28,1.94,1.28,3.34v9.14c0,1.34-.43,2.44-1.28,3.29-.85.85-1.95,1.28-3.29,1.28s-2.51-.43-3.34-1.28c-.82-.85-1.23-1.95-1.23-3.29v-9.14c0-1.4.41-2.51,1.23-3.34ZM314.34,129.25c.82-.82,1.94-1.23,3.34-1.23s2.44.41,3.29,1.23c.85.82,1.28,1.94,1.28,3.34v9.14c0,1.34-.43,2.44-1.28,3.29-.85.85-1.95,1.28-3.29,1.28s-2.51-.43-3.34-1.28c-.82-.85-1.23-1.95-1.23-3.29v-9.14c0-1.4.41-2.51,1.23-3.34ZM348.45,92.67c.82.82,1.23,1.94,1.23,3.34s-.41,2.44-1.23,3.29c-.82.85-1.94,1.28-3.34,1.28h-18.29c-1.34,0-2.44-.43-3.29-1.28-.85-.85-1.28-1.95-1.28-3.29s.43-2.51,1.28-3.34c.85-.82,1.95-1.23,3.29-1.23h18.29c1.4,0,2.51.41,3.34,1.23ZM348.45,120.11c.82.82,1.23,1.94,1.23,3.34s-.41,2.44-1.23,3.29c-.82.85-1.94,1.28-3.34,1.28h-18.29c-1.34,0-2.44-.43-3.29-1.28-.85-.85-1.28-1.95-1.28-3.29s.43-2.51,1.28-3.34c.85-.82,1.95-1.23,3.29-1.23h18.29c1.4,0,2.51.41,3.34,1.23ZM325.04,155.08c-.58-.24-1.08-.58-1.51-1.01-.37-.37-.67-.84-.91-1.42-.24-.58-.37-1.17-.37-1.78s.12-1.2.37-1.78c.24-.58.58-1.08,1.01-1.51.43-.37.91-.67,1.46-.91.55-.24,1.13-.37,1.74-.37s1.19.11,1.74.32c.55.21,1.04.53,1.46.96.43.43.76.93,1.01,1.51.24.58.37,1.17.37,1.78,0,.67-.12,1.3-.37,1.87-.24.58-.61,1.08-1.1,1.51-.43.37-.9.66-1.42.87-.52.21-1.08.32-1.69.32s-1.2-.12-1.78-.37ZM350.92,101.82c.82-.82,1.94-1.23,3.34-1.23s2.44.41,3.29,1.23c.85.82,1.28,1.94,1.28,3.34v9.14c0,1.34-.43,2.44-1.28,3.29-.85.85-1.95,1.28-3.29,1.28s-2.51-.43-3.34-1.28c-.82-.85-1.23-1.95-1.23-3.29v-9.14c0-1.4.41-2.51,1.23-3.34ZM350.92,129.25c.82-.82,1.94-1.23,3.34-1.23s2.44.41,3.29,1.23c.85.82,1.28,1.94,1.28,3.34v9.14c0,1.34-.43,2.44-1.28,3.29-.85.85-1.95,1.28-3.29,1.28s-2.51-.43-3.34-1.28c-.82-.85-1.23-1.95-1.23-3.29v-9.14c0-1.4.41-2.51,1.23-3.34ZM361.62,155.08c-.58-.24-1.08-.58-1.51-1.01-.37-.37-.67-.84-.91-1.42-.24-.58-.37-1.17-.37-1.78s.12-1.2.37-1.78c.24-.58.58-1.08,1.01-1.51.43-.37.91-.67,1.46-.91.55-.24,1.13-.37,1.74-.37s1.19.11,1.74.32c.55.21,1.04.53,1.46.96.43.43.76.93,1.01,1.51.24.58.37,1.17.37,1.78,0,.67-.12,1.3-.37,1.87-.24.58-.61,1.08-1.1,1.51-.43.37-.9.66-1.42.87-.52.21-1.08.32-1.69.32s-1.2-.12-1.78-.37Z"/>
  <path d="M378.83,135.93c-.82.82-1.94,1.23-3.34,1.23s-2.44-.41-3.29-1.23c-.85-.82-1.28-1.94-1.28-3.34v-18.29c0-1.34.43-2.44,1.28-3.29s1.95-1.28,3.29-1.28,2.51.43,3.34,1.28c.82.85,1.23,1.95,1.23,3.29v18.29c0,1.4-.41,2.51-1.23,3.34ZM382.85,109.36c-.58-.24-1.08-.58-1.51-1.01-.37-.37-.67-.84-.91-1.42-.24-.58-.37-1.17-.37-1.78s.12-1.2.37-1.78c.24-.58.58-1.08,1.01-1.51.43-.37.91-.67,1.46-.91.55-.24,1.13-.37,1.74-.37s1.19.11,1.74.32c.55.21,1.04.53,1.46.96.43.43.76.93,1.01,1.51.24.58.37,1.17.37,1.78,0,.67-.12,1.3-.37,1.87-.24.58-.61,1.08-1.1,1.51-.43.37-.9.66-1.42.87-.52.21-1.08.32-1.69.32s-1.2-.12-1.78-.37ZM382.85,145.94c-.58-.24-1.08-.58-1.51-1.01-.37-.37-.67-.84-.91-1.42-.24-.58-.37-1.17-.37-1.78s.12-1.2.37-1.78c.24-.58.58-1.08,1.01-1.51.43-.37.91-.67,1.46-.91.55-.24,1.13-.37,1.74-.37s1.19.11,1.74.32c.55.21,1.04.53,1.46.96.43.43.76.93,1.01,1.51.24.58.37,1.17.37,1.78,0,.67-.12,1.3-.37,1.87-.24.58-.61,1.08-1.1,1.51-.43.37-.9.66-1.42.87-.52.21-1.08.32-1.69.32s-1.2-.12-1.78-.37ZM415.4,92.67c.82.82,1.23,1.94,1.23,3.34s-.41,2.44-1.23,3.29c-.82.85-1.94,1.28-3.34,1.28h-18.29c-1.34,0-2.44-.43-3.29-1.28-.85-.85-1.28-1.95-1.28-3.29s.43-2.51,1.28-3.34c.85-.82,1.95-1.23,3.29-1.23h18.29c1.4,0,2.51.41,3.34,1.23ZM415.4,147.54c.82.82,1.23,1.94,1.23,3.34s-.41,2.44-1.23,3.29c-.82.85-1.94,1.28-3.34,1.28h-18.29c-1.34,0-2.44-.43-3.29-1.28-.85-.85-1.28-1.95-1.28-3.29s.43-2.51,1.28-3.34c.85-.82,1.95-1.23,3.29-1.23h18.29c1.4,0,2.51.41,3.34,1.23ZM419.43,109.36c-.58-.24-1.08-.58-1.51-1.01-.37-.37-.67-.84-.91-1.42-.24-.58-.37-1.17-.37-1.78s.12-1.2.37-1.78c.24-.58.58-1.08,1.01-1.51.43-.37.91-.67,1.46-.91.55-.24,1.13-.37,1.74-.37s1.19.11,1.74.32c.55.21,1.04.53,1.46.96.43.43.76.93,1.01,1.51.24.58.37,1.17.37,1.78,0,.67-.12,1.3-.37,1.87-.24.58-.61,1.08-1.1,1.51-.43.37-.9.66-1.42.87-.52.21-1.08.32-1.69.32s-1.2-.12-1.78-.37ZM419.43,145.94c-.58-.24-1.08-.58-1.51-1.01-.37-.37-.67-.84-.91-1.42-.24-.58-.37-1.17-.37-1.78s.12-1.2.37-1.78c.24-.58.58-1.08,1.01-1.51.43-.37.91-.67,1.46-.91.55-.24,1.13-.37,1.74-.37s1.19.11,1.74.32c.55.21,1.04.53,1.46.96.43.43.76.93,1.01,1.51.24.58.37,1.17.37,1.78,0,.67-.12,1.3-.37,1.87-.24.58-.61,1.08-1.1,1.51-.43.37-.9.66-1.42.87-.52.21-1.08.32-1.69.32s-1.2-.12-1.78-.37ZM433.69,135.93c-.82.82-1.94,1.23-3.34,1.23s-2.44-.41-3.29-1.23c-.85-.82-1.28-1.94-1.28-3.34v-18.29c0-1.34.43-2.44,1.28-3.29s1.95-1.28,3.29-1.28,2.51.43,3.34,1.28c.82.85,1.23,1.95,1.23,3.29v18.29c0,1.4-.41,2.51-1.23,3.34Z"/>
  <path d="M441.82,100.22c-.58-.24-1.08-.58-1.51-1.01-.37-.37-.67-.84-.91-1.42-.24-.58-.37-1.17-.37-1.78s.12-1.2.37-1.78c.24-.58.58-1.08,1.01-1.51.43-.37.91-.67,1.46-.91.55-.24,1.13-.37,1.74-.37s1.19.11,1.74.32c.55.21,1.04.53,1.46.96.43.43.76.93,1.01,1.51.24.58.37,1.17.37,1.78,0,.67-.12,1.3-.37,1.87-.24.58-.61,1.08-1.1,1.51-.43.37-.9.66-1.42.87-.52.21-1.08.32-1.69.32s-1.2-.12-1.78-.37ZM441.82,155.08c-.58-.24-1.08-.58-1.51-1.01-.37-.37-.67-.84-.91-1.42-.24-.58-.37-1.17-.37-1.78s.12-1.2.37-1.78c.24-.58.58-1.08,1.01-1.51.43-.37.91-.67,1.46-.91.55-.24,1.13-.37,1.74-.37s1.19.11,1.74.32c.55.21,1.04.53,1.46.96.43.43.76.93,1.01,1.51.24.58.37,1.17.37,1.78,0,.67-.12,1.3-.37,1.87-.24.58-.61,1.08-1.1,1.51-.43.37-.9.66-1.42.87-.52.21-1.08.32-1.69.32s-1.2-.12-1.78-.37ZM450.96,109.36c-.58-.24-1.08-.58-1.51-1.01-.37-.37-.67-.84-.91-1.42-.24-.58-.37-1.17-.37-1.78s.12-1.2.37-1.78c.24-.58.58-1.08,1.01-1.51.43-.37.91-.67,1.46-.91.55-.24,1.13-.37,1.74-.37s1.19.11,1.74.32c.55.21,1.04.53,1.46.96.43.43.76.93,1.01,1.51.24.58.37,1.17.37,1.78,0,.67-.12,1.3-.37,1.87-.24.58-.61,1.08-1.1,1.51-.43.37-.9.66-1.42.87-.52.21-1.08.32-1.69.32s-1.2-.12-1.78-.37ZM449.41,120.11c.82-.82,1.94-1.23,3.34-1.23s2.44.41,3.29,1.23c.85.82,1.28,1.94,1.28,3.34v18.29c0,1.34-.43,2.44-1.28,3.29-.85.85-1.95,1.28-3.29,1.28s-2.51-.43-3.34-1.28c-.82-.85-1.23-1.95-1.23-3.29v-18.29c0-1.4.41-2.51,1.23-3.34ZM460.11,100.22c-.58-.24-1.08-.58-1.51-1.01-.37-.37-.67-.84-.91-1.42-.24-.58-.37-1.17-.37-1.78s.12-1.2.37-1.78c.24-.58.58-1.08,1.01-1.51.43-.37.91-.67,1.46-.91.55-.24,1.13-.37,1.74-.37s1.19.11,1.74.32c.55.21,1.04.53,1.46.96.43.43.76.93,1.01,1.51.24.58.37,1.17.37,1.78,0,.67-.12,1.3-.37,1.87-.24.58-.61,1.08-1.1,1.51-.43.37-.9.66-1.42.87-.52.21-1.08.32-1.69.32s-1.2-.12-1.78-.37ZM460.11,118.51c-.58-.24-1.08-.58-1.51-1.01-.37-.37-.67-.84-.91-1.42-.24-.58-.37-1.17-.37-1.78s.12-1.2.37-1.78c.24-.58.58-1.08,1.01-1.51.43-.37.91-.67,1.46-.91.55-.24,1.13-.37,1.74-.37s1.19.11,1.74.32c.55.21,1.04.53,1.46.96.43.43.76.93,1.01,1.51.24.58.37,1.17.37,1.78,0,.67-.12,1.3-.37,1.87-.24.58-.61,1.08-1.1,1.51-.43.37-.9.66-1.42.87-.52.21-1.08.32-1.69.32s-1.2-.12-1.78-.37ZM460.11,155.08c-.58-.24-1.08-.58-1.51-1.01-.37-.37-.67-.84-.91-1.42-.24-.58-.37-1.17-.37-1.78s.12-1.2.37-1.78c.24-.58.58-1.08,1.01-1.51.43-.37.91-.67,1.46-.91.55-.24,1.13-.37,1.74-.37s1.19.11,1.74.32c.55.21,1.04.53,1.46.96.43.43.76.93,1.01,1.51.24.58.37,1.17.37,1.78,0,.67-.12,1.3-.37,1.87-.24.58-.61,1.08-1.1,1.51-.43.37-.9.66-1.42.87-.52.21-1.08.32-1.69.32s-1.2-.12-1.78-.37ZM469.25,127.65c-.58-.24-1.08-.58-1.51-1.01-.37-.37-.67-.84-.91-1.42-.24-.58-.37-1.17-.37-1.78s.12-1.2.37-1.78c.24-.58.58-1.08,1.01-1.51.43-.37.91-.67,1.46-.91.55-.24,1.13-.37,1.74-.37s1.19.11,1.74.32c.55.21,1.04.53,1.46.96.43.43.76.93,1.01,1.51.24.58.37,1.17.37,1.78,0,.67-.12,1.3-.37,1.87-.24.58-.61,1.08-1.1,1.51-.43.37-.9.66-1.42.87-.52.21-1.08.32-1.69.32s-1.2-.12-1.78-.37ZM478.39,100.22c-.58-.24-1.08-.58-1.51-1.01-.37-.37-.67-.84-.91-1.42-.24-.58-.37-1.17-.37-1.78s.12-1.2.37-1.78c.24-.58.58-1.08,1.01-1.51.43-.37.91-.67,1.46-.91.55-.24,1.13-.37,1.74-.37s1.19.11,1.74.32c.55.21,1.04.53,1.46.96.43.43.76.93,1.01,1.51.24.58.37,1.17.37,1.78,0,.67-.12,1.3-.37,1.87-.24.58-.61,1.08-1.1,1.51-.43.37-.9.66-1.42.87-.52.21-1.08.32-1.69.32s-1.2-.12-1.78-.37ZM478.39,136.79c-.58-.24-1.08-.58-1.51-1.01-.37-.37-.67-.84-.91-1.42-.24-.58-.37-1.17-.37-1.78s.12-1.2.37-1.78c.24-.58.58-1.08,1.01-1.51.43-.37.91-.67,1.46-.91.55-.24,1.13-.37,1.74-.37s1.19.11,1.74.32c.55.21,1.04.53,1.46.96.43.43.76.93,1.01,1.51.24.58.37,1.17.37,1.78,0,.67-.12,1.3-.37,1.87-.24.58-.61,1.08-1.1,1.51-.43.37-.9.66-1.42.87-.52.21-1.08.32-1.69.32s-1.2-.12-1.78-.37ZM478.39,155.08c-.58-.24-1.08-.58-1.51-1.01-.37-.37-.67-.84-.91-1.42-.24-.58-.37-1.17-.37-1.78s.12-1.2.37-1.78c.24-.58.58-1.08,1.01-1.51.43-.37.91-.67,1.46-.91.55-.24,1.13-.37,1.74-.37s1.19.11,1.74.32c.55.21,1.04.53,1.46.96.43.43.76.93,1.01,1.51.24.58.37,1.17.37,1.78,0,.67-.12,1.3-.37,1.87-.24.58-.61,1.08-1.1,1.51-.43.37-.9.66-1.42.87-.52.21-1.08.32-1.69.32s-1.2-.12-1.78-.37ZM485.98,101.82c.82-.82,1.94-1.23,3.34-1.23s2.44.41,3.29,1.23c.85.82,1.28,1.94,1.28,3.34v18.29c0,1.34-.43,2.44-1.28,3.29-.85.85-1.95,1.28-3.29,1.28s-2.51-.43-3.34-1.28c-.82-.85-1.23-1.95-1.23-3.29v-18.29c0-1.4.41-2.51,1.23-3.34ZM487.54,145.94c-.58-.24-1.08-.58-1.51-1.01-.37-.37-.67-.84-.91-1.42-.24-.58-.37-1.17-.37-1.78s.12-1.2.37-1.78c.24-.58.58-1.08,1.01-1.51.43-.37.91-.67,1.46-.91.55-.24,1.13-.37,1.74-.37s1.19.11,1.74.32c.55.21,1.04.53,1.46.96.43.43.76.93,1.01,1.51.24.58.37,1.17.37,1.78,0,.67-.12,1.3-.37,1.87-.24.58-.61,1.08-1.1,1.51-.43.37-.9.66-1.42.87-.52.21-1.08.32-1.69.32s-1.2-.12-1.78-.37ZM496.68,100.22c-.58-.24-1.08-.58-1.51-1.01-.37-.37-.67-.84-.91-1.42-.24-.58-.37-1.17-.37-1.78s.12-1.2.37-1.78c.24-.58.58-1.08,1.01-1.51.43-.37.91-.67,1.46-.91.55-.24,1.13-.37,1.74-.37s1.19.11,1.74.32c.55.21,1.04.53,1.46.96.43.43.76.93,1.01,1.51.24.58.37,1.17.37,1.78,0,.67-.12,1.3-.37,1.87-.24.58-.61,1.08-1.1,1.51-.43.37-.9.66-1.42.87-.52.21-1.08.32-1.69.32s-1.2-.12-1.78-.37ZM496.68,155.08c-.58-.24-1.08-.58-1.51-1.01-.37-.37-.67-.84-.91-1.42-.24-.58-.37-1.17-.37-1.78s.12-1.2.37-1.78c.24-.58.58-1.08,1.01-1.51.43-.37.91-.67,1.46-.91.55-.24,1.13-.37,1.74-.37s1.19.11,1.74.32c.55.21,1.04.53,1.46.96.43.43.76.93,1.01,1.51.24.58.37,1.17.37,1.78,0,.67-.12,1.3-.37,1.87-.24.58-.61,1.08-1.1,1.51-.43.37-.9.66-1.42.87-.52.21-1.08.32-1.69.32s-1.2-.12-1.78-.37Z"/>
  <path d="M513.16,100.22c-.58-.24-1.08-.58-1.51-1.01-.37-.37-.67-.84-.91-1.42-.24-.58-.37-1.17-.37-1.78s.12-1.2.37-1.78c.24-.58.58-1.08,1.01-1.51.43-.37.91-.67,1.46-.91.55-.24,1.13-.37,1.74-.37s1.19.11,1.74.32c.55.21,1.04.53,1.46.96.43.43.76.93,1.01,1.51.24.58.37,1.17.37,1.78,0,.67-.12,1.3-.37,1.87-.24.58-.61,1.08-1.1,1.51-.43.37-.9.66-1.42.87-.52.21-1.08.32-1.69.32s-1.2-.12-1.78-.37ZM513.16,127.65c-.58-.24-1.08-.58-1.51-1.01-.37-.37-.67-.84-.91-1.42-.24-.58-.37-1.17-.37-1.78s.12-1.2.37-1.78c.24-.58.58-1.08,1.01-1.51.43-.37.91-.67,1.46-.91.55-.24,1.13-.37,1.74-.37s1.19.11,1.74.32c.55.21,1.04.53,1.46.96.43.43.76.93,1.01,1.51.24.58.37,1.17.37,1.78,0,.67-.12,1.3-.37,1.87-.24.58-.61,1.08-1.1,1.51-.43.37-.9.66-1.42.87-.52.21-1.08.32-1.69.32s-1.2-.12-1.78-.37ZM513.16,155.08c-.58-.24-1.08-.58-1.51-1.01-.37-.37-.67-.84-.91-1.42-.24-.58-.37-1.17-.37-1.78s.12-1.2.37-1.78c.24-.58.58-1.08,1.01-1.51.43-.37.91-.67,1.46-.91.55-.24,1.13-.37,1.74-.37s1.19.11,1.74.32c.55.21,1.04.53,1.46.96.43.43.76.93,1.01,1.51.24.58.37,1.17.37,1.78,0,.67-.12,1.3-.37,1.87-.24.58-.61,1.08-1.1,1.51-.43.37-.9.66-1.42.87-.52.21-1.08.32-1.69.32s-1.2-.12-1.78-.37ZM527.42,117.64c-.82.82-1.94,1.23-3.34,1.23s-2.44-.41-3.29-1.23c-.85-.82-1.28-1.93-1.28-3.34v-9.14c0-1.34.43-2.44,1.28-3.29s1.95-1.28,3.29-1.28,2.51.43,3.34,1.28c.82.85,1.23,1.95,1.23,3.29v9.14c0,1.4-.41,2.51-1.23,3.34ZM527.42,145.07c-.82.82-1.94,1.23-3.34,1.23s-2.44-.41-3.29-1.23c-.85-.82-1.28-1.94-1.28-3.34v-9.14c0-1.34.43-2.44,1.28-3.29.85-.85,1.95-1.28,3.29-1.28s2.51.43,3.34,1.28c.82.85,1.23,1.95,1.23,3.29v9.14c0,1.4-.41,2.51-1.23,3.34ZM531.45,100.22c-.58-.24-1.08-.58-1.51-1.01-.37-.37-.67-.84-.91-1.42-.24-.58-.37-1.17-.37-1.78s.12-1.2.37-1.78c.24-.58.58-1.08,1.01-1.51.43-.37.91-.67,1.46-.91.55-.24,1.13-.37,1.74-.37s1.19.11,1.74.32c.55.21,1.04.53,1.46.96.43.43.76.93,1.01,1.51.24.58.37,1.17.37,1.78,0,.67-.12,1.3-.37,1.87-.24.58-.61,1.08-1.1,1.51-.43.37-.9.66-1.42.87-.52.21-1.08.32-1.69.32s-1.2-.12-1.78-.37ZM531.45,127.65c-.58-.24-1.08-.58-1.51-1.01-.37-.37-.67-.84-.91-1.42-.24-.58-.37-1.17-.37-1.78s.12-1.2.37-1.78c.24-.58.58-1.08,1.01-1.51.43-.37.91-.67,1.46-.91.55-.24,1.13-.37,1.74-.37s1.19.11,1.74.32c.55.21,1.04.53,1.46.96.43.43.76.93,1.01,1.51.24.58.37,1.17.37,1.78,0,.67-.12,1.3-.37,1.87-.24.58-.61,1.08-1.1,1.51-.43.37-.9.66-1.42.87-.52.21-1.08.32-1.69.32s-1.2-.12-1.78-.37ZM531.45,155.08c-.58-.24-1.08-.58-1.51-1.01-.37-.37-.67-.84-.91-1.42-.24-.58-.37-1.17-.37-1.78s.12-1.2.37-1.78c.24-.58.58-1.08,1.01-1.51.43-.37.91-.67,1.46-.91.55-.24,1.13-.37,1.74-.37s1.19.11,1.74.32c.55.21,1.04.53,1.46.96.43.43.76.93,1.01,1.51.24.58.37,1.17.37,1.78,0,.67-.12,1.3-.37,1.87-.24.58-.61,1.08-1.1,1.51-.43.37-.9.66-1.42.87-.52.21-1.08.32-1.69.32s-1.2-.12-1.78-.37Z"/>
  <path d="M553.05,135.93c-.82.82-1.94,1.23-3.34,1.23s-2.44-.41-3.29-1.23c-.85-.82-1.28-1.94-1.28-3.34v-18.29c0-1.34.43-2.44,1.28-3.29s1.95-1.28,3.29-1.28,2.51.43,3.34,1.28c.82.85,1.23,1.95,1.23,3.29v18.29c0,1.4-.41,2.51-1.23,3.34ZM557.07,109.36c-.58-.24-1.08-.58-1.51-1.01-.37-.37-.67-.84-.91-1.42-.24-.58-.37-1.17-.37-1.78s.12-1.2.37-1.78c.24-.58.58-1.08,1.01-1.51.43-.37.91-.67,1.46-.91.55-.24,1.13-.37,1.74-.37s1.19.11,1.74.32c.55.21,1.04.53,1.46.96.43.43.76.93,1.01,1.51.24.58.37,1.17.37,1.78,0,.67-.12,1.3-.37,1.87-.24.58-.61,1.08-1.1,1.51-.43.37-.9.66-1.42.87-.52.21-1.08.32-1.69.32s-1.2-.12-1.78-.37ZM557.07,145.94c-.58-.24-1.08-.58-1.51-1.01-.37-.37-.67-.84-.91-1.42-.24-.58-.37-1.17-.37-1.78s.12-1.2.37-1.78c.24-.58.58-1.08,1.01-1.51.43-.37.91-.67,1.46-.91.55-.24,1.13-.37,1.74-.37s1.19.11,1.74.32c.55.21,1.04.53,1.46.96.43.43.76.93,1.01,1.51.24.58.37,1.17.37,1.78,0,.67-.12,1.3-.37,1.87-.24.58-.61,1.08-1.1,1.51-.43.37-.9.66-1.42.87-.52.21-1.08.32-1.69.32s-1.2-.12-1.78-.37ZM589.62,92.67c.82.82,1.23,1.94,1.23,3.34s-.41,2.44-1.23,3.29c-.82.85-1.94,1.28-3.34,1.28h-18.29c-1.34,0-2.44-.43-3.29-1.28-.85-.85-1.28-1.95-1.28-3.29s.43-2.51,1.28-3.34c.85-.82,1.95-1.23,3.29-1.23h18.29c1.4,0,2.51.41,3.34,1.23ZM589.62,147.54c.82.82,1.23,1.94,1.23,3.34s-.41,2.44-1.23,3.29c-.82.85-1.94,1.28-3.34,1.28h-18.29c-1.34,0-2.44-.43-3.29-1.28-.85-.85-1.28-1.95-1.28-3.29s.43-2.51,1.28-3.34c.85-.82,1.95-1.23,3.29-1.23h18.29c1.4,0,2.51.41,3.34,1.23ZM593.64,109.36c-.58-.24-1.08-.58-1.51-1.01-.37-.37-.67-.84-.91-1.42-.24-.58-.37-1.17-.37-1.78s.12-1.2.37-1.78c.24-.58.58-1.08,1.01-1.51.43-.37.91-.67,1.46-.91.55-.24,1.13-.37,1.74-.37s1.19.11,1.74.32c.55.21,1.04.53,1.46.96.43.43.76.93,1.01,1.51.24.58.37,1.17.37,1.78,0,.67-.12,1.3-.37,1.87-.24.58-.61,1.08-1.1,1.51-.43.37-.9.66-1.42.87-.52.21-1.08.32-1.69.32s-1.2-.12-1.78-.37ZM593.64,145.94c-.58-.24-1.08-.58-1.51-1.01-.37-.37-.67-.84-.91-1.42-.24-.58-.37-1.17-.37-1.78s.12-1.2.37-1.78c.24-.58.58-1.08,1.01-1.51.43-.37.91-.67,1.46-.91.55-.24,1.13-.37,1.74-.37s1.19.11,1.74.32c.55.21,1.04.53,1.46.96.43.43.76.93,1.01,1.51.24.58.37,1.17.37,1.78,0,.67-.12,1.3-.37,1.87-.24.58-.61,1.08-1.1,1.51-.43.37-.9.66-1.42.87-.52.21-1.08.32-1.69.32s-1.2-.12-1.78-.37Z"/>
</svg>