<?xml version="1.0" encoding="UTF-8"?>
<svg xmlns="http://www.w3.org/2000/svg" version="1.1" viewBox="0 0 275.2 115.9">
  <!-- Generator: Adobe Illustrator 28.7.1, SVG Export Plug-In . SVG Version: 1.2.0 Build 142)  -->
  <g>
    <g id="Layer_1">
      <circle cx="57.9" cy="7.2" r="7.2"/>
      <circle cx="57.9" cy="108.6" r="7.2"/>
      <circle cx="83.3" cy="14" r="7.2"/>
      <circle cx="32.6" cy="101.8" r="7.2"/>
      <circle cx="101.8" cy="32.6" r="7.2"/>
      <circle cx="14" cy="83.3" r="7.2"/>
      <circle cx="108.6" cy="57.9" r="7.2"/>
      <circle cx="7.2" cy="57.9" r="7.2"/>
      <circle cx="101.8" cy="83.3" r="7.2"/>
      <circle cx="14" cy="32.6" r="7.2"/>
      <circle cx="83.3" cy="101.8" r="7.2"/>
      <circle cx="32.6" cy="14" r="7.2"/>
      <circle cx="65.1" cy="65.1" r="7.2"/>
      <circle cx="217.2" cy="7.2" r="7.2"/>
      <circle cx="217.2" cy="108.6" r="7.2"/>
      <circle cx="242.6" cy="14" r="7.2"/>
      <circle cx="191.9" cy="101.8" r="7.2"/>
      <circle cx="261.1" cy="32.6" r="7.2" transform="translate(169.4 279.2) rotate(-76.7)"/>
      <circle cx="173.3" cy="83.3" r="7.2"/>
      <circle cx="267.9" cy="57.9" r="7.2"/>
      <circle cx="166.6" cy="57.9" r="7.2"/>
      <circle cx="261.1" cy="83.3" r="7.2" transform="translate(137.1 327.7) rotate(-80.8)"/>
      <circle cx="173.3" cy="32.6" r="7.2"/>
      <circle cx="242.6" cy="101.8" r="7.2"/>
      <circle cx="191.9" cy="14" r="7.2"/>
      <circle cx="224.4" cy="65.1" r="7.2"/>
      <circle cx="137.6" cy="57.9" r="7.2"/>
    </g>
  </g>
</svg>