<?xml version="1.0" encoding="UTF-8"?>
<svg id="Layer_1" data-name="Layer 1" xmlns="http://www.w3.org/2000/svg" viewBox="0 0 597 238.8">
  <path d="M243.41,9.22v27.54h27.54v165.27h-27.54V36.76h-110.18v165.27h110.18v27.54h-110.18v-27.54h-27.54V36.76h27.54V9.22h110.18Z"/>
  <path d="M463.77,9.22v27.54h27.54v165.27h-27.54V36.76h-110.18v165.27h110.18v27.54h-110.18v-27.54h-27.54V36.76h27.54V9.22h110.18Z"/>
  <rect x="184.55" y="125.63" width="27.54" height="27.54"/>
  <rect x="50.59" y="64.31" width="27.54" height="27.54"/>
  <rect x="50.59" y="9.22" width="27.54" height="27.54"/>
  <rect x="23.05" y="36.76" width="27.54" height="27.54"/>
  <rect x="78.14" y="64.31" width="27.54" height="27.54"/>
  <rect x="270.95" y="105.63" width="55.09" height="27.54"/>
  <rect x="404.91" y="125.63" width="27.54" height="27.54"/>
  <rect x="546.4" y="36.76" width="27.54" height="27.54"/>
  <rect x="518.86" y="9.22" width="27.54" height="27.54"/>
  <rect x="518.86" y="64.31" width="27.54" height="27.54"/>
  <rect x="491.31" y="64.31" width="27.54" height="27.54"/>
</svg>