<?xml version="1.0" encoding="UTF-8"?>
<svg id="Layer_1" data-name="Layer 1" xmlns="http://www.w3.org/2000/svg" viewBox="0 0 426.86 295.52">
  <path d="M135.07,6.71v31.34s62.69,0,62.69,0v31.34s62.69,0,62.69,0v31.34s62.69,0,62.69,0v31.34s62.69,0,62.69,0v31.34s31.34,0,31.34,0v31.34h-31.34s0,31.34,0,31.34h-31.34s0,31.34,0,31.34h-62.69s0,31.34,0,31.34h-62.69v-31.34h62.69s0-31.34,0-31.34h62.69s0-31.34,0-31.34h31.34s0-31.34,0-31.34h-62.69v-31.34s-62.69,0-62.69,0v-31.34s-62.69,0-62.69,0v-31.34s-62.69,0-62.69,0v-31.34s-62.69,0-62.69,0v31.34h-31.34s0,31.34,0,31.34h62.69v31.34s62.69,0,62.69,0v31.34s62.69,0,62.69,0v31.34s62.69,0,62.69,0v31.34h-62.69s0,31.34,0,31.34h-31.34v-31.34h31.34s0-31.34,0-31.34h-62.69v-31.34s-62.69,0-62.69,0v31.34h-62.69v-31.34h62.69s0-31.34,0-31.34h-62.69s0,31.34,0,31.34H9.69v-31.34h31.34s0-31.34,0-31.34H9.69v-31.34h31.34s0-31.34,0-31.34h31.34s0-31.34,0-31.34h62.69Z"/>
</svg>